<?xml version="1.0" encoding="UTF-8" standalone="no"?>
<svg
   viewBox="82.196 226.37 183.88876 160.88"
   version="1.1"
   id="svg184"
   sodipodi:docname="favicon-white.svg"
   width="183.88876"
   height="160.88"
   inkscape:version="1.3.2 (091e20ef0f, 2023-11-25, custom)"
   xmlns:inkscape="http://www.inkscape.org/namespaces/inkscape"
   xmlns:sodipodi="http://sodipodi.sourceforge.net/DTD/sodipodi-0.dtd"
   xmlns="http://www.w3.org/2000/svg"
   xmlns:svg="http://www.w3.org/2000/svg">
  <defs
     id="defs184" />
  <sodipodi:namedview
     id="namedview184"
     pagecolor="#FFD54F"
     bordercolor="#000000"
     borderopacity="0.25"
     inkscape:showpageshadow="2"
     inkscape:pageopacity="0.0"
     inkscape:pagecheckerboard="0"
     inkscape:deskcolor="#d1d1d1"
     inkscape:zoom="2.6179826"
     inkscape:cx="88.999828"
     inkscape:cy="52.712344"
     inkscape:window-width="1920"
     inkscape:window-height="1011"
     inkscape:window-x="0"
     inkscape:window-y="0"
     inkscape:window-maximized="1"
     inkscape:current-layer="svg184" />
  <linearGradient
     id="a"
     x1="312.40399"
     x2="312.40399"
     y1="310.67801"
     y2="388.54999"
     gradientUnits="userSpaceOnUse">
    <stop
       offset="0"
       style="stop-color:#914694"
       id="stop1" />
    <stop
       offset="0"
       style="stop-color:#954694"
       id="stop2" />
    <stop
       offset="0"
       style="stop-color:#974694"
       id="stop3" />
    <stop
       offset=".168"
       style="stop-color:#944593"
       id="stop4" />
    <stop
       offset=".345"
       style="stop-color:#8b4292"
       id="stop5" />
    <stop
       offset=".526"
       style="stop-color:#7a3d8f"
       id="stop6" />
    <stop
       offset=".711"
       style="stop-color:#62378b"
       id="stop7" />
    <stop
       offset=".896"
       style="stop-color:#443286"
       id="stop8" />
    <stop
       offset="1"
       style="stop-color:#2d2e83"
       id="stop9" />
    <stop
       offset="1"
       style="stop-color:#000"
       id="stop10" />
  </linearGradient>
  <linearGradient
     id="b"
     x1="380.04001"
     x2="380.04001"
     y1="311.54599"
     y2="387.71701"
     gradientUnits="userSpaceOnUse">
    <stop
       offset="0"
       style="stop-color:#914694"
       id="stop11" />
    <stop
       offset="0"
       style="stop-color:#954694"
       id="stop12" />
    <stop
       offset="0"
       style="stop-color:#974694"
       id="stop13" />
    <stop
       offset=".168"
       style="stop-color:#944593"
       id="stop14" />
    <stop
       offset=".345"
       style="stop-color:#8b4292"
       id="stop15" />
    <stop
       offset=".526"
       style="stop-color:#7a3d8f"
       id="stop16" />
    <stop
       offset=".711"
       style="stop-color:#62378b"
       id="stop17" />
    <stop
       offset=".896"
       style="stop-color:#443286"
       id="stop18" />
    <stop
       offset="1"
       style="stop-color:#2d2e83"
       id="stop19" />
    <stop
       offset="1"
       style="stop-color:#000"
       id="stop20" />
  </linearGradient>
  <linearGradient
     id="c"
     x1="437.013"
     x2="437.013"
     y1="310.68399"
     y2="390.22699"
     gradientUnits="userSpaceOnUse">
    <stop
       offset="0"
       style="stop-color:#914694"
       id="stop21" />
    <stop
       offset="0"
       style="stop-color:#954694"
       id="stop22" />
    <stop
       offset="0"
       style="stop-color:#974694"
       id="stop23" />
    <stop
       offset=".168"
       style="stop-color:#944593"
       id="stop24" />
    <stop
       offset=".345"
       style="stop-color:#8b4292"
       id="stop25" />
    <stop
       offset=".526"
       style="stop-color:#7a3d8f"
       id="stop26" />
    <stop
       offset=".711"
       style="stop-color:#62378b"
       id="stop27" />
    <stop
       offset=".896"
       style="stop-color:#443286"
       id="stop28" />
    <stop
       offset="1"
       style="stop-color:#2d2e83"
       id="stop29" />
    <stop
       offset="1"
       style="stop-color:#000"
       id="stop30" />
  </linearGradient>
  <radialGradient
     id="d"
     cx="174.142"
     cy="307.272"
     r="86.386002"
     gradientUnits="userSpaceOnUse"
     spreadMethod="reflect"
     gradientTransform="translate(-2.3231027e-4,-0.47)">
    <stop
       offset="0"
       style="stop-color:#914694"
       id="stop31" />
    <stop
       offset="0"
       style="stop-color:#954694"
       id="stop32" />
    <stop
       offset="0"
       style="stop-color:#974694"
       id="stop33" />
    <stop
       offset=".168"
       style="stop-color:#944593"
       id="stop34" />
    <stop
       offset=".345"
       style="stop-color:#8b4292"
       id="stop35" />
    <stop
       offset=".526"
       style="stop-color:#7a3d8f"
       id="stop36" />
    <stop
       offset=".711"
       style="stop-color:#62378b"
       id="stop37" />
    <stop
       offset=".896"
       style="stop-color:#443286"
       id="stop38" />
    <stop
       offset="1"
       style="stop-color:#2d2e83"
       id="stop39" />
    <stop
       offset="1"
       style="stop-color:#000"
       id="stop40" />
  </radialGradient>
  <path
     d="m 265.88977,307.08 c -0.27,0.47 -0.76,0.75 -1.3,0.75 h -75.63 v 40.19 h 21.39 c 0.82,0 1.49,0.67 1.49,1.49 v 13.23 c 0,0.82 -0.67,1.49 -1.49,1.49 h -71.22 c -0.82,0 -1.49,-0.67 -1.49,-1.49 V 349.9 c 0,-0.82 0.67,-1.49 1.49,-1.49 h 17.8 V 294.9 c 0,-0.48 0.23,-0.93 0.61,-1.21 l 4.16,-3.03 v -12.97 c 0,-0.44 0.19,-0.85 0.52,-1.13 l 3.66,-3.13 v -14.27 c 0,-0.82 0.67,-1.49 1.49,-1.49 0.82,0 1.49,0.67 1.49,1.49 v 6 l 4.11,-3.43 c 0.31,-0.26 0.71,-0.38 1.12,-0.34 0.4,0.04 0.76,0.24 1.01,0.56 l 4.38,5.57 c 0.21,0.26 0.32,0.59 0.32,0.93 v 5.18 l 3.83,2.64 c 0.41,0.28 0.64,0.74 0.64,1.23 v 12.91 c 1.11,0.54 1.88,1.69 1.88,3.02 0,1.86 -1.51,3.37 -3.37,3.37 -1.86,0 -3.37,-1.5 -3.37,-3.37 0,-1.11 0.54,-2.1 1.37,-2.7 0.16,-0.12 0.33,-0.22 0.51,-0.31 v -12.13 l -3.83,-2.64 c -0.41,-0.27 -0.64,-0.73 -0.64,-1.23 v -5.45 l -3.11,-3.95 -4.85,4.04 v 5.07 c 0,0.44 -0.19,0.85 -0.52,1.13 l -3.66,3.13 v 13.04 c 0,0.48 -0.23,0.93 -0.61,1.21 l -4.16,3.03 v 54.25 c 0,0.83 -0.66,1.49 -1.49,1.49 h -17.8 v 9.85 h 68.24 v -10.25 h -21.39 c -0.82,0 -1.49,-0.67 -1.49,-1.49 v -43.17 c 0,-0.82 0.67,-1.49 1.49,-1.49 h 74.54 l -43.76,-75.5 h -88.06 l -44.770002,79.2 44.490002,75.71 h 88.49 l 5.37,-8.96 h -83.86 c -0.12,0.24 -0.27,0.47 -0.44,0.67 -0.61,0.73 -1.53,1.2 -2.57,1.2 -1.86,0 -3.37,-1.51 -3.37,-3.37 0,-1.86 1.5,-3.37 3.37,-3.37 1.33,0 2.48,0.77 3.02,1.88 h 86.5 c 0.54,0 1.03,0.29 1.3,0.76 0.27,0.47 0.26,1.04 -0.02,1.5 l -7.16,11.94 c -0.27,0.45 -0.76,0.73 -1.28,0.73 h -90.19 c -0.53,0 -1.01,-0.28 -1.28,-0.74 L 82.399768,309.32 c -0.27,-0.46 -0.27,-1.03 -0.01,-1.49 l 45.620002,-80.7 c 0.26,-0.47 0.76,-0.76 1.3,-0.76 h 89.79 c 0.53,0 1.03,0.29 1.3,0.75 l 2.488,4.292 43.002,74.188 c 0.26,0.45 0.26,1.02 0,1.48 z"
     style="fill:#FFD54F;fill-opacity:1"
     id="path40" />
  <linearGradient
     id="e"
     x1="214.786"
     x2="174.87601"
     y1="242.39"
     y2="282.29999"
     gradientUnits="userSpaceOnUse"
     gradientTransform="translate(-2.3231027e-4,-0.47)">
    <stop
       offset="0"
       style="stop-color:#914694"
       id="stop41" />
    <stop
       offset=".199"
       style="stop-color:#954694"
       id="stop42" />
    <stop
       offset=".274"
       style="stop-color:#974694"
       id="stop43" />
    <stop
       offset=".276"
       style="stop-color:#974694"
       id="stop44" />
    <stop
       offset=".385"
       style="stop-color:#783c8e"
       id="stop45" />
    <stop
       offset=".496"
       style="stop-color:#5f378a"
       id="stop46" />
    <stop
       offset=".611"
       style="stop-color:#4a3387"
       id="stop47" />
    <stop
       offset=".731"
       style="stop-color:#3b3085"
       id="stop48" />
    <stop
       offset=".857"
       style="stop-color:#312f84"
       id="stop49" />
    <stop
       offset="1"
       style="stop-color:#2d2e83"
       id="stop50" />
    <stop
       offset="1"
       style="stop-color:#000"
       id="stop51" />
  </linearGradient>
  <path
     d="m 245.90977,293.88 c 0,1.86 -1.5,3.37 -3.37,3.37 a 3.372,3.372 0 0 1 -2.83,-5.2 l -30.21,-50.97 h -74.75 c -0.82,0 -1.49,-0.67 -1.49,-1.49 0,-0.82 0.67,-1.49 1.49,-1.49 h 75.6 c 0.53,0 1.02,0.28 1.28,0.73 l 30.65,51.69 c 0.09,-0.01 0.17,-0.01 0.26,-0.01 1.86,0 3.37,1.51 3.37,3.37 z"
     style="fill:#FFD54F;fill-opacity:1"
     id="path51" />
  <linearGradient
     id="f"
     x1="151.896"
     x2="151.896"
     y1="309.79099"
     y2="248.23399"
     gradientUnits="userSpaceOnUse"
     gradientTransform="translate(-2.3231027e-4,-0.47)">
    <stop
       offset="0"
       style="stop-color:#914694"
       id="stop52" />
    <stop
       offset="0"
       style="stop-color:#954694"
       id="stop53" />
    <stop
       offset="0"
       style="stop-color:#974694"
       id="stop54" />
    <stop
       offset=".168"
       style="stop-color:#944593"
       id="stop55" />
    <stop
       offset=".345"
       style="stop-color:#8b4292"
       id="stop56" />
    <stop
       offset=".526"
       style="stop-color:#7a3d8f"
       id="stop57" />
    <stop
       offset=".711"
       style="stop-color:#62378b"
       id="stop58" />
    <stop
       offset=".896"
       style="stop-color:#443286"
       id="stop59" />
    <stop
       offset="1"
       style="stop-color:#2d2e83"
       id="stop60" />
    <stop
       offset="1"
       style="stop-color:#000"
       id="stop61" />
  </linearGradient>
  <path
     d="m 207.13977,251.13 a 3.372,3.372 0 0 1 -6.39,1.5 h -68.14 L 99.419768,308.6 c -0.27,0.47 -0.77,0.73 -1.28,0.73 a 1.5,1.5 0 0 1 -1.29,-2.25 l 33.620002,-56.7 c 0.27,-0.45 0.76,-0.73 1.29,-0.73 h 68.98 a 3.37,3.37 0 0 1 3.02,-1.87 3.344,3.344 0 0 1 3.38,3.35 z"
     style="fill:#FFD54F;fill-opacity:1"
     id="path61" />
  <linearGradient
     id="g"
     x1="158.392"
     x2="118.815"
     y1="321.85999"
     y2="282.28299"
     gradientUnits="userSpaceOnUse"
     gradientTransform="translate(-2.3231027e-4,-0.47)">
    <stop
       offset="0"
       style="stop-color:#914694"
       id="stop62" />
    <stop
       offset="0"
       style="stop-color:#954694"
       id="stop63" />
    <stop
       offset="0"
       style="stop-color:#974694"
       id="stop64" />
    <stop
       offset=".168"
       style="stop-color:#944593"
       id="stop65" />
    <stop
       offset=".345"
       style="stop-color:#8b4292"
       id="stop66" />
    <stop
       offset=".526"
       style="stop-color:#7a3d8f"
       id="stop67" />
    <stop
       offset=".711"
       style="stop-color:#62378b"
       id="stop68" />
    <stop
       offset=".896"
       style="stop-color:#443286"
       id="stop69" />
    <stop
       offset="1"
       style="stop-color:#2d2e83"
       id="stop70" />
    <stop
       offset="1"
       style="stop-color:#000"
       id="stop71" />
  </linearGradient>
  <path
     d="m 151.37977,264.3 -0.27,11.45 c -0.02,0.82 -0.71,1.49 -1.53,1.46 a 1.5,1.5 0 0 1 -1.46,-1.52 l 0.23,-9.92 h -9.02 l -25.57,44.02 18.69,28.9 c 0.19,-0.03 0.37,-0.05 0.56,-0.05 1.86,0 3.37,1.51 3.37,3.37 0,1.86 -1.5,3.37 -3.37,3.37 a 3.372,3.372 0 0 1 -2.99,-4.93 l -19.27,-29.81 c -0.3,-0.47 -0.32,-1.07 -0.04,-1.56 l 26.46,-45.56 c 0.27,-0.46 0.76,-0.74 1.29,-0.74 h 11.41 c 0.41,0 0.79,0.16 1.07,0.45 0.3,0.28 0.45,0.67 0.44,1.07 z"
     style="fill:#FFD54F;fill-opacity:1"
     id="path71" />
  <linearGradient
     id="h"
     x1="140.69701"
     x2="140.69701"
     y1="292.85599"
     y2="316.66901"
     gradientUnits="userSpaceOnUse"
     gradientTransform="translate(-2.3231027e-4,-0.47)">
    <stop
       offset="0"
       style="stop-color:#914694"
       id="stop72" />
    <stop
       offset="0"
       style="stop-color:#8d4593"
       id="stop73" />
    <stop
       offset="0"
       style="stop-color:#824191"
       id="stop74" />
    <stop
       offset="0"
       style="stop-color:#6f3b8d"
       id="stop75" />
    <stop
       offset="0"
       style="stop-color:#543589"
       id="stop76" />
    <stop
       offset="0"
       style="stop-color:#332f84"
       id="stop77" />
    <stop
       offset=".99"
       style="stop-color:#974694"
       id="stop78" />
    <stop
       offset=".991"
       style="stop-color:#924493"
       id="stop79" />
    <stop
       offset=".993"
       style="stop-color:#834090"
       id="stop80" />
    <stop
       offset=".996"
       style="stop-color:#6a398c"
       id="stop81" />
    <stop
       offset=".999"
       style="stop-color:#463287"
       id="stop82" />
    <stop
       offset="1"
       style="stop-color:#2d2e83"
       id="stop83" />
    <stop
       offset="1"
       style="stop-color:#000"
       id="stop84" />
  </linearGradient>
  <path
     d="m 150.56977,312.83 c 0,1.86 -1.51,3.37 -3.37,3.37 -1.86,0 -3.37,-1.51 -3.37,-3.37 0,-0.54 0.13,-1.04 0.35,-1.49 l -13.03,-16.54 c -0.51,-0.64 -0.4,-1.58 0.24,-2.1 0.64,-0.51 1.59,-0.4 2.1,0.25 l 13.06,16.56 a 3.387,3.387 0 0 1 4.02,3.32 z"
     style="fill:#FFD54F;fill-opacity:1"
     id="path84" />
  <linearGradient
     id="i"
     x1="208.645"
     x2="208.645"
     y1="290.05801"
     y2="276.22601"
     gradientUnits="userSpaceOnUse"
     gradientTransform="translate(-2.3231027e-4,-0.47)">
    <stop
       offset="0"
       style="stop-color:#914694"
       id="stop85" />
    <stop
       offset="0"
       style="stop-color:#954694"
       id="stop86" />
    <stop
       offset="0"
       style="stop-color:#974694"
       id="stop87" />
    <stop
       offset=".168"
       style="stop-color:#944593"
       id="stop88" />
    <stop
       offset=".345"
       style="stop-color:#8b4292"
       id="stop89" />
    <stop
       offset=".526"
       style="stop-color:#7a3d8f"
       id="stop90" />
    <stop
       offset=".711"
       style="stop-color:#62378b"
       id="stop91" />
    <stop
       offset=".896"
       style="stop-color:#443286"
       id="stop92" />
    <stop
       offset="1"
       style="stop-color:#2d2e83"
       id="stop93" />
    <stop
       offset="1"
       style="stop-color:#000"
       id="stop94" />
  </linearGradient>
  <path
     d="m 214.19977,286.22 c 0,1.86 -1.51,3.37 -3.37,3.37 a 3.365,3.365 0 0 1 -3.02,-4.86 l -4.47,-6.65 c -0.46,-0.69 -0.27,-1.61 0.41,-2.07 0.69,-0.46 1.61,-0.28 2.07,0.41 l 4.36,6.49 c 0.21,-0.04 0.43,-0.06 0.65,-0.06 1.86,0 3.37,1.51 3.37,3.37 z"
     style="fill:#FFD54F;fill-opacity:1"
     id="path94" />
  <linearGradient
     id="j"
     x1="208.311"
     x2="194.789"
     y1="323.909"
     y2="323.909"
     gradientUnits="userSpaceOnUse"
     gradientTransform="translate(-2.3231027e-4,-0.47)">
    <stop
       offset="0"
       style="stop-color:#914694"
       id="stop95" />
    <stop
       offset="0"
       style="stop-color:#954694"
       id="stop96" />
    <stop
       offset="0"
       style="stop-color:#974694"
       id="stop97" />
    <stop
       offset=".168"
       style="stop-color:#944593"
       id="stop98" />
    <stop
       offset=".345"
       style="stop-color:#8b4292"
       id="stop99" />
    <stop
       offset=".526"
       style="stop-color:#7a3d8f"
       id="stop100" />
    <stop
       offset=".711"
       style="stop-color:#62378b"
       id="stop101" />
    <stop
       offset=".896"
       style="stop-color:#443286"
       id="stop102" />
    <stop
       offset="1"
       style="stop-color:#2d2e83"
       id="stop103" />
    <stop
       offset="1"
       style="stop-color:#000"
       id="stop104" />
  </linearGradient>
  <path
     d="m 208.30977,317.51 c 0,1.86 -1.5,3.37 -3.37,3.37 -0.1,0 -0.2,-0.01 -0.29,-0.02 l -7.11,11.17 c -0.28,0.45 -0.76,0.69 -1.26,0.69 -0.27,0 -0.55,-0.08 -0.8,-0.23 a 1.5,1.5 0 0 1 -0.46,-2.06 l 7.08,-11.12 c -0.33,-0.52 -0.53,-1.14 -0.53,-1.8 0,-1.86 1.5,-3.37 3.37,-3.37 1.87,0.01 3.37,1.52 3.37,3.37 z"
     style="fill:#FFD54F;fill-opacity:1"
     id="path104" />
  <linearGradient
     id="k"
     x1="203.995"
     x2="222.489"
     y1="327.948"
     y2="327.948"
     gradientUnits="userSpaceOnUse"
     gradientTransform="translate(-2.3231027e-4,-0.47)">
    <stop
       offset="0"
       style="stop-color:#914694"
       id="stop105" />
    <stop
       offset="0"
       style="stop-color:#954694"
       id="stop106" />
    <stop
       offset="0"
       style="stop-color:#974694"
       id="stop107" />
    <stop
       offset=".168"
       style="stop-color:#944593"
       id="stop108" />
    <stop
       offset=".345"
       style="stop-color:#8b4292"
       id="stop109" />
    <stop
       offset=".526"
       style="stop-color:#7a3d8f"
       id="stop110" />
    <stop
       offset=".711"
       style="stop-color:#62378b"
       id="stop111" />
    <stop
       offset=".896"
       style="stop-color:#443286"
       id="stop112" />
    <stop
       offset="1"
       style="stop-color:#2d2e83"
       id="stop113" />
    <stop
       offset="1"
       style="stop-color:#000"
       id="stop114" />
  </linearGradient>
  <path
     d="m 222.24977,317.02 -11.92,18.26 a 3.372,3.372 0 0 1 -2.96,4.98 c -1.86,0 -3.37,-1.5 -3.37,-3.37 0,-1.87 1.51,-3.37 3.37,-3.37 0.18,0 0.35,0.01 0.53,0.04 l 11.86,-18.17 c 0.45,-0.69 1.38,-0.88 2.07,-0.43 0.67,0.44 0.86,1.36 0.42,2.06 z"
     style="fill:#FFD54F;fill-opacity:1"
     id="path114" />
  <linearGradient
     id="l"
     x1="218.922"
     x2="249.79201"
     y1="328.51501"
     y2="328.51501"
     gradientUnits="userSpaceOnUse"
     gradientTransform="translate(-2.3231027e-4,-0.47)">
    <stop
       offset="0"
       style="stop-color:#914694"
       id="stop115" />
    <stop
       offset="0"
       style="stop-color:#954694"
       id="stop116" />
    <stop
       offset="0"
       style="stop-color:#974694"
       id="stop117" />
    <stop
       offset=".168"
       style="stop-color:#944593"
       id="stop118" />
    <stop
       offset=".345"
       style="stop-color:#8b4292"
       id="stop119" />
    <stop
       offset=".526"
       style="stop-color:#7a3d8f"
       id="stop120" />
    <stop
       offset=".711"
       style="stop-color:#62378b"
       id="stop121" />
    <stop
       offset=".896"
       style="stop-color:#443286"
       id="stop122" />
    <stop
       offset="1"
       style="stop-color:#2d2e83"
       id="stop123" />
    <stop
       offset="1"
       style="stop-color:#000"
       id="stop124" />
  </linearGradient>
  <path
     d="m 249.55977,317.69 -11.06,17.76 c 0.35,0.53 0.56,1.17 0.56,1.86 0,1.86 -1.5,3.37 -3.37,3.37 -1.86,0 -3.37,-1.51 -3.37,-3.37 a 3.365,3.365 0 0 1 3.6,-3.36 l 9.7,-15.57 h -11.68 l -12.25,19.28 c -0.44,0.7 -1.36,0.9 -2.06,0.46 -0.69,-0.44 -0.9,-1.36 -0.46,-2.06 l 12.69,-19.97 c 0.27,-0.43 0.75,-0.69 1.26,-0.69 h 15.2 c 0.54,0 1.04,0.3 1.31,0.77 0.24,0.48 0.23,1.06 -0.07,1.52 z"
     style="fill:#FFD54F;fill-opacity:1"
     id="path124" />
  <linearGradient
     id="m"
     x1="183.306"
     x2="229.547"
     y1="279.311"
     y2="279.311"
     gradientUnits="userSpaceOnUse"
     gradientTransform="translate(-2.3231027e-4,-0.47)">
    <stop
       offset="0"
       style="stop-color:#914694"
       id="stop125" />
    <stop
       offset="0"
       style="stop-color:#954694"
       id="stop126" />
    <stop
       offset="0"
       style="stop-color:#974694"
       id="stop127" />
    <stop
       offset=".168"
       style="stop-color:#944593"
       id="stop128" />
    <stop
       offset=".345"
       style="stop-color:#8b4292"
       id="stop129" />
    <stop
       offset=".526"
       style="stop-color:#7a3d8f"
       id="stop130" />
    <stop
       offset=".711"
       style="stop-color:#62378b"
       id="stop131" />
    <stop
       offset=".896"
       style="stop-color:#443286"
       id="stop132" />
    <stop
       offset="1"
       style="stop-color:#2d2e83"
       id="stop133" />
    <stop
       offset="1"
       style="stop-color:#000"
       id="stop134" />
  </linearGradient>
  <path
     d="m 229.33977,296.06 c -0.27,0.45 -0.76,0.73 -1.28,0.73 h -33.42 c -0.82,0 -1.49,-0.67 -1.49,-1.49 v -16.91 c 0,-0.82 0.67,-1.49 1.49,-1.49 0.82,0 1.49,0.67 1.49,1.49 v 15.42 h 29.42 l -15.28,-28.05 h -20.57 a 3.347,3.347 0 0 1 -3.02,1.87 c -1.86,0 -3.37,-1.5 -3.37,-3.37 0,-1.86 1.5,-3.37 3.37,-3.37 1.33,0 2.47,0.76 3.02,1.87 h 21.45 c 0.55,0 1.05,0.3 1.31,0.78 l 16.91,31.04 c 0.24,0.47 0.24,1.03 -0.03,1.48 z"
     style="fill:#FFD54F;fill-opacity:1"
     id="path134" />
  <linearGradient
     id="n"
     x1="152.11"
     x2="136.819"
     y1="291.96701"
     y2="283.13901"
     gradientUnits="userSpaceOnUse"
     gradientTransform="translate(-2.3231027e-4,-0.47)">
    <stop
       offset="0"
       style="stop-color:#914694"
       id="stop135" />
    <stop
       offset="0"
       style="stop-color:#954694"
       id="stop136" />
    <stop
       offset="0"
       style="stop-color:#974694"
       id="stop137" />
    <stop
       offset=".168"
       style="stop-color:#944593"
       id="stop138" />
    <stop
       offset=".345"
       style="stop-color:#8b4292"
       id="stop139" />
    <stop
       offset=".526"
       style="stop-color:#7a3d8f"
       id="stop140" />
    <stop
       offset=".711"
       style="stop-color:#62378b"
       id="stop141" />
    <stop
       offset=".896"
       style="stop-color:#443286"
       id="stop142" />
    <stop
       offset="1"
       style="stop-color:#2d2e83"
       id="stop143" />
    <stop
       offset="1"
       style="stop-color:#000"
       id="stop144" />
  </linearGradient>
  <path
     d="m 149.91977,295.06 c -0.27,0.21 -0.59,0.31 -0.91,0.31 -0.45,0 -0.89,-0.2 -1.18,-0.59 l -6.62,-8.62 c -0.2,0.04 -0.4,0.05 -0.6,0.05 -1.86,0 -3.37,-1.51 -3.37,-3.37 0,-1.86 1.5,-3.37 3.37,-3.37 1.86,0 3.37,1.51 3.37,3.37 0,0.55 -0.13,1.07 -0.37,1.53 l 6.59,8.59 c 0.5,0.66 0.38,1.6 -0.28,2.1 z"
     style="fill:#FFD54F;fill-opacity:1"
     id="path144" />
  <linearGradient
     id="o"
     x1="154.112"
     x2="119.536"
     y1="332.04599"
     y2="312.08401"
     gradientUnits="userSpaceOnUse"
     gradientTransform="translate(-2.3231027e-4,-0.47)">
    <stop
       offset="0"
       style="stop-color:#914694"
       id="stop145" />
    <stop
       offset="0"
       style="stop-color:#954694"
       id="stop146" />
    <stop
       offset="0"
       style="stop-color:#974694"
       id="stop147" />
    <stop
       offset=".168"
       style="stop-color:#944593"
       id="stop148" />
    <stop
       offset=".345"
       style="stop-color:#8b4292"
       id="stop149" />
    <stop
       offset=".526"
       style="stop-color:#7a3d8f"
       id="stop150" />
    <stop
       offset=".711"
       style="stop-color:#62378b"
       id="stop151" />
    <stop
       offset=".896"
       style="stop-color:#443286"
       id="stop152" />
    <stop
       offset="1"
       style="stop-color:#2d2e83"
       id="stop153" />
    <stop
       offset="1"
       style="stop-color:#000"
       id="stop154" />
  </linearGradient>
  <path
     d="m 148.96977,340.18 c -0.26,0.18 -0.55,0.26 -0.84,0.26 -0.48,0 -0.94,-0.23 -1.24,-0.66 l -20.13,-29.67 c -0.18,0.03 -0.36,0.05 -0.55,0.05 -1.86,0 -3.37,-1.5 -3.37,-3.37 0,-1.87 1.51,-3.37 3.37,-3.37 1.86,0 3.37,1.5 3.37,3.37 0,0.57 -0.14,1.11 -0.39,1.58 l 20.18,29.73 c 0.46,0.69 0.28,1.62 -0.4,2.08 z"
     style="fill:#FFD54F;fill-opacity:1"
     id="path154" />
  <linearGradient
     id="p"
     x1="99.813004"
     x2="131.07001"
     y1="341.52802"
     y2="341.52802"
     gradientUnits="userSpaceOnUse"
     gradientTransform="translate(-2.3231027e-4,-0.47)">
    <stop
       offset="0"
       style="stop-color:#914694"
       id="stop155" />
    <stop
       offset="0"
       style="stop-color:#954694"
       id="stop156" />
    <stop
       offset="0"
       style="stop-color:#974694"
       id="stop157" />
    <stop
       offset=".168"
       style="stop-color:#944593"
       id="stop158" />
    <stop
       offset=".345"
       style="stop-color:#8b4292"
       id="stop159" />
    <stop
       offset=".526"
       style="stop-color:#7a3d8f"
       id="stop160" />
    <stop
       offset=".711"
       style="stop-color:#62378b"
       id="stop161" />
    <stop
       offset=".896"
       style="stop-color:#443286"
       id="stop162" />
    <stop
       offset="1"
       style="stop-color:#2d2e83"
       id="stop163" />
    <stop
       offset="1"
       style="stop-color:#000"
       id="stop164" />
  </linearGradient>
  <path
     d="m 130.34977,365.21 c -0.24,0.15 -0.51,0.22 -0.78,0.22 -0.5,0 -1,-0.26 -1.28,-0.72 l -25.32,-41.72 h -0.02 a 3.15,3.15 0 1 1 3.15,-3.15 c 0,0.63 -0.19,1.22 -0.51,1.71 l 25.26,41.61 c 0.43,0.7 0.21,1.62 -0.5,2.05 z"
     style="fill:#FFD54F;fill-opacity:1"
     id="path164" />
  <linearGradient
     id="q"
     x1="218.924"
     x2="231.88901"
     y1="355.09601"
     y2="355.09601"
     gradientUnits="userSpaceOnUse"
     gradientTransform="translate(-2.3231027e-4,-0.47)">
    <stop
       offset="0"
       style="stop-color:#914694"
       id="stop165" />
    <stop
       offset="0"
       style="stop-color:#954694"
       id="stop166" />
    <stop
       offset="0"
       style="stop-color:#974694"
       id="stop167" />
    <stop
       offset=".168"
       style="stop-color:#944593"
       id="stop168" />
    <stop
       offset=".345"
       style="stop-color:#8b4292"
       id="stop169" />
    <stop
       offset=".526"
       style="stop-color:#7a3d8f"
       id="stop170" />
    <stop
       offset=".711"
       style="stop-color:#62378b"
       id="stop171" />
    <stop
       offset=".896"
       style="stop-color:#443286"
       id="stop172" />
    <stop
       offset="1"
       style="stop-color:#2d2e83"
       id="stop173" />
    <stop
       offset="1"
       style="stop-color:#000"
       id="stop174" />
  </linearGradient>
  <path
     d="m 231.88977,349.1 c 0,1.86 -1.5,3.37 -3.37,3.37 -0.11,0 -0.22,-0.01 -0.33,-0.02 l -6.51,10.38 a 1.495,1.495 0 1 1 -2.53,-1.59 l 6.5,-10.38 a 3.365,3.365 0 0 1 2.87,-5.13 c 1.86,0 3.37,1.5 3.37,3.37 z"
     style="fill:#FFD54F;fill-opacity:1"
     id="path174" />
  <linearGradient
     id="r"
     x1="261.974"
     x2="230.53999"
     y1="341.86499"
     y2="341.86499"
     gradientUnits="userSpaceOnUse"
     gradientTransform="translate(-2.3231027e-4,-0.47)">
    <stop
       offset="0"
       style="stop-color:#914694"
       id="stop175" />
    <stop
       offset="0"
       style="stop-color:#954694"
       id="stop176" />
    <stop
       offset="0"
       style="stop-color:#974694"
       id="stop177" />
    <stop
       offset=".168"
       style="stop-color:#944593"
       id="stop178" />
    <stop
       offset=".345"
       style="stop-color:#8b4292"
       id="stop179" />
    <stop
       offset=".526"
       style="stop-color:#7a3d8f"
       id="stop180" />
    <stop
       offset=".711"
       style="stop-color:#62378b"
       id="stop181" />
    <stop
       offset=".896"
       style="stop-color:#443286"
       id="stop182" />
    <stop
       offset="1"
       style="stop-color:#2d2e83"
       id="stop183" />
    <stop
       offset="1"
       style="stop-color:#000"
       id="stop184" />
  </linearGradient>
  <path
     d="m 261.75977,318.94 -25.11,41.85 c 0.39,0.55 0.62,1.22 0.62,1.95 0,1.86 -1.5,3.37 -3.37,3.37 -1.86,0 -3.37,-1.51 -3.37,-3.37 0,-1.86 1.5,-3.37 3.37,-3.37 0.04,0 0.08,0 0.11,0.01 l 25.18,-41.97 c 0.42,-0.7 1.34,-0.94 2.05,-0.51 0.72,0.42 0.94,1.34 0.52,2.04 z"
     style="fill:#FFD54F;fill-opacity:1"
     id="path184" />
</svg>
