<?xml version="1.0" encoding="UTF-8"?>
<svg xmlns="http://www.w3.org/2000/svg" width="577.5" height="130.4" viewBox="0 0 577.5 130.4">
  <g id="Red_CIGUS-logo-ESP-color" data-name="Red CIGUS-logo-ESP-color" transform="translate(-131.1 -232.4)">
    <path id="Trazado_250" data-name="Trazado 250" d="M131.1,362.3H222V232.4H131.1Zm42.3-119h2.2v-2.2h2.2v2.2H180v2.2h-2.2v2.2h-2.2v-2.2h-2.2Zm-16.3,93h-4.3v4.3h-4.3v-4.3h-4.3V332h4.3v-4.3h4.3V332h4.3Zm0-25.9h-4.3v4.3h-4.3v-4.3h-4.3V306h4.3v-4.3h4.3V306h4.3Zm0-26h-4.3v4.3h-4.3v-4.3h-4.3v-4.3h4.3v-4.3h4.3v4.3h4.3Zm21.8,45.3a17.7,17.7,0,0,0-.1,2.3,30.334,30.334,0,0,0,5.4,17.3H169a30.334,30.334,0,0,0,5.4-17.3,16.948,16.948,0,0,0-.1-2.3,15.182,15.182,0,0,1-12.9-15h30.3a15.007,15.007,0,0,1-12.8,15m4.2-49.6v4.3h-4.3v4.3h-4.3v-4.3h-4.3v-4.3h4.3v-4.3h4.3v4.3Zm-6.5,13a8.7,8.7,0,1,1-8.7,8.7,8.706,8.706,0,0,1,8.7-8.7m15.2-22.8H161.5v-3.2h30.3Zm3-8.7-1.6,2.3h-4l2.9-4.2a4.3,4.3,0,0,0,.7-2.2,3.174,3.174,0,0,0-1-2.5,3.847,3.847,0,0,0-2.9-1.2h-.8a11.777,11.777,0,0,1,.4,2.5,7.71,7.71,0,0,1-.9,3.9l-2.3,3.8h-3.9l3.2-5.4a5.091,5.091,0,0,0,.5-2.2,3.343,3.343,0,0,0-1.1-2.7,4.105,4.105,0,0,0-5.9-.1v10.5H175V253.6a3.638,3.638,0,0,0-3-1.2,3.891,3.891,0,0,0-2.9,1.3,3.693,3.693,0,0,0-1.1,2.7,4.767,4.767,0,0,0,.5,2.2l3.2,5.4h-3.9l-2.3-3.8a8.537,8.537,0,0,1-.5-6.4h-.8a3.631,3.631,0,0,0-2.8,1.2,3.317,3.317,0,0,0-1,2.5,4.041,4.041,0,0,0,.7,2.2l2.9,4.2h-4l-1.6-2.3a6.679,6.679,0,0,1-1.3-4.1,6.568,6.568,0,0,1,2.1-5,7.037,7.037,0,0,1,5.1-2.2,9.723,9.723,0,0,1,2.7.5c.1-.1.1-.2.2-.2a6.813,6.813,0,0,1,4.8-1.8,7.672,7.672,0,0,1,4.6,1.5,7.672,7.672,0,0,1,4.6-1.5,6.813,6.813,0,0,1,4.8,1.8l.2.2a8.574,8.574,0,0,1,2.7-.5,6.67,6.67,0,0,1,5.1,2.2,6.569,6.569,0,0,1,2.1,5,6.886,6.886,0,0,1-1.3,4.1m14.3,74.7h-4.3v4.3h-4.3v-4.3h-4.3V332h4.3v-4.3h4.3V332h4.3Zm0-25.9h-4.3v4.3h-4.3v-4.3h-4.3V306h4.3v-4.3h4.3V306h4.3Zm0-26h-4.3v4.3h-4.3v-4.3h-4.3v-4.3h4.3v-4.3h4.3v4.3h4.3Z" fill="#007bc4"></path>
    <g id="Grupo_87" data-name="Grupo 87">
      <path id="Trazado_251" data-name="Trazado 251" d="M291.1,246.1c4,0,7.1.9,9.2,2.6a9.384,9.384,0,0,1,3.2,7.5,9.553,9.553,0,0,1-2.3,6.5,10.786,10.786,0,0,1-6.3,3.4L306,279.7h-8.2l-10.2-13.2h-.9v13.2H280V246.1Zm3.9,13.7a4.061,4.061,0,0,0,1.6-3.5,3.875,3.875,0,0,0-1.4-3.2c-.9-.8-2.4-1.1-4.3-1.1h-4.1v9.1h3.8A8.185,8.185,0,0,0,295,259.8Z" fill="#007bc4"></path>
      <path id="Trazado_252" data-name="Trazado 252" d="M311.6,277c-2.2-2.4-3.3-5.6-3.3-9.7a14.514,14.514,0,0,1,1.5-6.8,11.021,11.021,0,0,1,4.2-4.6,12.175,12.175,0,0,1,6.4-1.6,12.538,12.538,0,0,1,5.9,1.4,10.254,10.254,0,0,1,4,4,12.658,12.658,0,0,1,1.4,6,19.828,19.828,0,0,1-.3,3.5H315a7.542,7.542,0,0,0,2,4.2,5.448,5.448,0,0,0,4,1.4,16.243,16.243,0,0,0,4.1-.6,32.654,32.654,0,0,0,4.7-1.6v5.8a21.568,21.568,0,0,1-4.3,1.5,18.934,18.934,0,0,1-4.7.6C316.9,280.6,313.8,279.4,311.6,277Zm12.3-16.1a4.536,4.536,0,0,0-3.6-1.4,4.826,4.826,0,0,0-3.5,1.4,6.453,6.453,0,0,0-1.7,4h10.2A5.39,5.39,0,0,0,323.9,260.9Z" fill="#007bc4"></path>
      <path id="Trazado_253" data-name="Trazado 253" d="M338.7,277c-1.9-2.4-2.9-5.6-2.9-9.7a14.8,14.8,0,0,1,1.5-6.8,10.386,10.386,0,0,1,4-4.5,10.664,10.664,0,0,1,5.9-1.6,8.025,8.025,0,0,1,3,.6,9.7,9.7,0,0,1,2.8,1.6V244h6.5v35.8h-6.1v-2.3a10.375,10.375,0,0,1-3.3,2.3,8.126,8.126,0,0,1-3.6.8A9.409,9.409,0,0,1,338.7,277Zm11.4-3a11.12,11.12,0,0,0,2.9-2.2v-9.6a8.343,8.343,0,0,0-5.3-2.2,4.317,4.317,0,0,0-2.6.9,6.157,6.157,0,0,0-1.9,2.5,8.729,8.729,0,0,0-.7,3.7,9.524,9.524,0,0,0,1.3,5.5,4.063,4.063,0,0,0,3.5,2A4.228,4.228,0,0,0,350.1,274Z" fill="#007bc4"></path>
      <path id="Trazado_254" data-name="Trazado 254" d="M384.3,278.4a14.893,14.893,0,0,1-5.4-6.2,23.317,23.317,0,0,1-1.9-9.5,20,20,0,0,1,1.9-9.1,14.61,14.61,0,0,1,5.4-6.1,14.8,14.8,0,0,1,8.2-2.2,20.9,20.9,0,0,1,5.5.8,20.513,20.513,0,0,1,5,2.2v6.8a25.942,25.942,0,0,0-5.3-2.6,12.9,12.9,0,0,0-4.8-1,8.3,8.3,0,0,0-4.6,1.4,8.721,8.721,0,0,0-3.1,3.9,13.814,13.814,0,0,0-1.1,5.9c0,3.6.8,6.5,2.4,8.6a7.683,7.683,0,0,0,6.4,3.1,12.521,12.521,0,0,0,4.8-1,36.886,36.886,0,0,0,5.3-2.6v6.8a18.951,18.951,0,0,1-5,2.2,20.9,20.9,0,0,1-5.5.8A15.679,15.679,0,0,1,384.3,278.4Z" fill="#007bc4"></path>
      <path id="Trazado_255" data-name="Trazado 255" d="M409.2,246.1h6.7v33.6h-6.7Z" fill="#007bc4"></path>
      <path id="Trazado_256" data-name="Trazado 256" d="M429.2,278.4a14.229,14.229,0,0,1-5.4-6.2,21.334,21.334,0,0,1-1.8-9.4,19.377,19.377,0,0,1,2.1-9.1,14.71,14.71,0,0,1,5.9-6.2,17.079,17.079,0,0,1,8.9-2.3,26.092,26.092,0,0,1,6,.8,34.884,34.884,0,0,1,5.7,2v6.8a35.109,35.109,0,0,0-6.1-2.4,20.168,20.168,0,0,0-5.4-.9,9.08,9.08,0,0,0-5.2,1.5,9.718,9.718,0,0,0-3.5,4,13.678,13.678,0,0,0-1.2,5.8,14.286,14.286,0,0,0,2.3,8.5,7.689,7.689,0,0,0,6.4,3.1,8.658,8.658,0,0,0,5.5-2,8.029,8.029,0,0,0,2.9-5.3H439l-1.8-5.7H453a15,15,0,0,1,.4,3.7,16.206,16.206,0,0,1-2,8.1,13.62,13.62,0,0,1-5.5,5.4,16.047,16.047,0,0,1-8,1.9A15.825,15.825,0,0,1,429.2,278.4Z" fill="#007bc4"></path>
      <path id="Trazado_257" data-name="Trazado 257" d="M465,279.1a11.382,11.382,0,0,1-4.5-4.2,11.935,11.935,0,0,1-1.6-6.4V246.1h6.7V268a6.434,6.434,0,0,0,1.7,4.7,7.128,7.128,0,0,0,9,0A6.275,6.275,0,0,0,478,268V246.1h6.7v22.4a11.935,11.935,0,0,1-1.6,6.4,11.382,11.382,0,0,1-4.5,4.2,14.514,14.514,0,0,1-6.8,1.5A14.8,14.8,0,0,1,465,279.1Z" fill="#007bc4"></path>
      <path id="Trazado_258" data-name="Trazado 258" d="M494.8,279.8a16.726,16.726,0,0,1-4.3-1.6v-6.8a24.607,24.607,0,0,0,4.7,2,15.834,15.834,0,0,0,4.4.8,8.182,8.182,0,0,0,4.7-1.2,3.418,3.418,0,0,0,1.7-3,2.9,2.9,0,0,0-1.5-2.6,42.9,42.9,0,0,0-5.5-2.6,23.457,23.457,0,0,1-4.5-2.3,9.221,9.221,0,0,1,1.4-16,13.058,13.058,0,0,1,6.1-1.3,19.543,19.543,0,0,1,4.7.6,30.028,30.028,0,0,1,4.8,1.6v6.7a27.462,27.462,0,0,0-5-2,17.833,17.833,0,0,0-4.5-.8,5.219,5.219,0,0,0-3.5,1,3.126,3.126,0,0,0-1.2,2.4,2.41,2.41,0,0,0,.7,1.8,5.862,5.862,0,0,0,1.9,1.4,43.91,43.91,0,0,0,4.1,1.7,43.157,43.157,0,0,1,4.7,2.2,8.613,8.613,0,0,1,3,3,10.3,10.3,0,0,1-.5,10.5,9.816,9.816,0,0,1-4.6,3.6,16.5,16.5,0,0,1-6.8,1.3A12.149,12.149,0,0,1,494.8,279.8Z" fill="#007bc4"></path>
      <path id="Trazado_259" data-name="Trazado 259" d="M281.9,313.6a9.208,9.208,0,0,1-3.2-3.8,14.991,14.991,0,0,1-1.1-5.8,13.978,13.978,0,0,1,1.1-5.6,8.524,8.524,0,0,1,3.2-3.8,8.648,8.648,0,0,1,4.8-1.3,11.325,11.325,0,0,1,3.6.6,12.886,12.886,0,0,1,3.3,1.7v3.2a16.8,16.8,0,0,0-3.6-2.1,8.8,8.8,0,0,0-3.3-.8,5.086,5.086,0,0,0-3.2,1,6.15,6.15,0,0,0-2.2,2.8,11.368,11.368,0,0,0-.8,4.3,12.458,12.458,0,0,0,.8,4.5,6.6,6.6,0,0,0,2.2,2.9,5.183,5.183,0,0,0,3.3,1,8.8,8.8,0,0,0,3.3-.8,16.8,16.8,0,0,0,3.6-2.1v3.2a12.887,12.887,0,0,1-3.3,1.7,11.325,11.325,0,0,1-3.6.6A8.812,8.812,0,0,1,281.9,313.6Z" fill="#007bc4"></path>
      <path id="Trazado_260" data-name="Trazado 260" d="M298.6,312.8a8.382,8.382,0,0,1-1.9-5.9,10.842,10.842,0,0,1,.8-4.2,6.561,6.561,0,0,1,2.4-2.8,6.743,6.743,0,0,1,6.9-.1,5.65,5.65,0,0,1,2.2,2.4,7.845,7.845,0,0,1,.8,3.5,11.018,11.018,0,0,1-.2,1.8H299.3a5.918,5.918,0,0,0,1.4,3.7,3.95,3.95,0,0,0,3.1,1.4,7.658,7.658,0,0,0,2.5-.4,12.272,12.272,0,0,0,2.6-1.2v2.5a8.657,8.657,0,0,1-2.4,1,9.3,9.3,0,0,1-2.7.4A5.871,5.871,0,0,1,298.6,312.8Zm7.6-10.4a3.424,3.424,0,0,0-2.7-1.2,3.763,3.763,0,0,0-2.8,1.1,5.556,5.556,0,0,0-1.3,3.2h7.8A5.218,5.218,0,0,0,306.2,302.4Z" fill="#007bc4"></path>
      <path id="Trazado_261" data-name="Trazado 261" d="M314.4,299.5l1.6.9a9.433,9.433,0,0,1,2.3-1,7.658,7.658,0,0,1,2.5-.4,4.9,4.9,0,0,1,3.8,1.5,5.637,5.637,0,0,1,1.4,3.9v10.1h-2.5v-9.7a3.656,3.656,0,0,0-.9-2.5,3.168,3.168,0,0,0-2.3-.9,5.924,5.924,0,0,0-2.1.4,14.723,14.723,0,0,0-2.2,1v11.8h-2.5v-15h.9Z" fill="#007bc4"></path>
      <path id="Trazado_262" data-name="Trazado 262" d="M333,313.4a5.011,5.011,0,0,1-1.3-3.5v-8.2h-3v-2.3h3v-4h2.5v4H340v2.3h-5.8v8a2.566,2.566,0,0,0,2.5,2.7,11.135,11.135,0,0,0,1.7-.2c.7-.2,1.3-.4,2-.6V314c-.6.2-1.2.4-1.9.6a7.144,7.144,0,0,1-2,.2A5.27,5.27,0,0,1,333,313.4Z" fill="#007bc4"></path>
      <path id="Trazado_263" data-name="Trazado 263" d="M346.1,299.5v3.6a8.378,8.378,0,0,1,2.9-2.7,7.655,7.655,0,0,1,3.9-1.1v2.8a8.081,8.081,0,0,0-3.7.9,10.341,10.341,0,0,0-3.1,2.4v9.1h-2.5v-15h2.5Z" fill="#007bc4"></path>
      <path id="Trazado_264" data-name="Trazado 264" d="M356.8,312.9a8.649,8.649,0,0,1-1.9-6,8.12,8.12,0,0,1,1.9-5.8,6.636,6.636,0,0,1,5.1-2.1,6.351,6.351,0,0,1,5.1,2.1,8.12,8.12,0,0,1,1.9,5.8,8.82,8.82,0,0,1-1.9,6,6.385,6.385,0,0,1-5.1,2.2A7.085,7.085,0,0,1,356.8,312.9Zm8.3-1.7a6.677,6.677,0,0,0,1.2-4.3,6.082,6.082,0,0,0-1.2-4.1,4.163,4.163,0,0,0-6.4,0,6.263,6.263,0,0,0-1.2,4.1,6.677,6.677,0,0,0,1.2,4.3,3.8,3.8,0,0,0,3.2,1.5A3.682,3.682,0,0,0,365.1,311.2Z" fill="#007bc4"></path>
      <path id="Trazado_265" data-name="Trazado 265" d="M374.6,314.6a7.8,7.8,0,0,1-2.3-.8v-2.6a11.422,11.422,0,0,0,2.6.9,7.4,7.4,0,0,0,2.3.4,4.4,4.4,0,0,0,2.5-.6,1.922,1.922,0,0,0,.9-1.6,1.645,1.645,0,0,0-.8-1.5,20.672,20.672,0,0,0-2.6-1,21.157,21.157,0,0,1-2.7-.9,4.31,4.31,0,0,1-1.7-1.3,3.612,3.612,0,0,1-.7-2.4,3.7,3.7,0,0,1,.6-2.1,4.034,4.034,0,0,1,1.8-1.6,6.527,6.527,0,0,1,2.9-.6,11.343,11.343,0,0,1,2.5.3,8.469,8.469,0,0,1,2.4.8v2.5a16.142,16.142,0,0,0-2.6-.9,10.376,10.376,0,0,0-2.3-.3,3.1,3.1,0,0,0-2.1.6,1.613,1.613,0,0,0-.2,2.5,3.458,3.458,0,0,0,1.2.7,12.427,12.427,0,0,0,2,.6,10.132,10.132,0,0,1,3.6,1.6,3.773,3.773,0,0,1,1.2,3,4,4,0,0,1-1.6,3.4,6.493,6.493,0,0,1-4.3,1.3A20.24,20.24,0,0,1,374.6,314.6Z" fill="#007bc4"></path>
      <path id="Trazado_266" data-name="Trazado 266" d="M395.9,312.9a9.931,9.931,0,0,1-1.7-6,10.842,10.842,0,0,1,.8-4.2,6.35,6.35,0,0,1,2.3-2.8,6.818,6.818,0,0,1,3.5-1,6.308,6.308,0,0,1,2.2.5,6.656,6.656,0,0,1,2,1.2V292h2.5v22.5h-2.4V313a8.008,8.008,0,0,1-2.1,1.5,5.657,5.657,0,0,1-2.4.6A6.2,6.2,0,0,1,395.9,312.9Zm7-.8a6.524,6.524,0,0,0,2.1-1.6v-7.4a7.434,7.434,0,0,0-2.1-1.3,5.833,5.833,0,0,0-2-.5,3.139,3.139,0,0,0-2.1.7,5.755,5.755,0,0,0-1.5,1.9,6.742,6.742,0,0,0-.5,3,7.816,7.816,0,0,0,1.1,4.3,3.17,3.17,0,0,0,2.9,1.5A4.2,4.2,0,0,0,402.9,312.1Z" fill="#007bc4"></path>
      <path id="Trazado_267" data-name="Trazado 267" d="M413.4,312.8a8.382,8.382,0,0,1-1.9-5.9,10.842,10.842,0,0,1,.8-4.2,6.561,6.561,0,0,1,2.4-2.8,6.743,6.743,0,0,1,6.9-.1,5.65,5.65,0,0,1,2.2,2.4,7.845,7.845,0,0,1,.8,3.5,11.018,11.018,0,0,1-.2,1.8H414.1a5.918,5.918,0,0,0,1.4,3.7,3.95,3.95,0,0,0,3.1,1.4,7.658,7.658,0,0,0,2.5-.4,12.272,12.272,0,0,0,2.6-1.2v2.5a8.657,8.657,0,0,1-2.4,1,9.3,9.3,0,0,1-2.7.4A5.871,5.871,0,0,1,413.4,312.8Zm7.5-10.4a3.424,3.424,0,0,0-2.7-1.2,3.763,3.763,0,0,0-2.8,1.1,5.556,5.556,0,0,0-1.3,3.2h7.8A4.162,4.162,0,0,0,420.9,302.4Z" fill="#007bc4"></path>
      <path id="Trazado_268" data-name="Trazado 268" d="M436.5,296.3a1.9,1.9,0,0,1-.5-1.3,1.656,1.656,0,0,1,.5-1.2,1.535,1.535,0,0,1,1.3-.5,1.656,1.656,0,0,1,1.2.5,1.584,1.584,0,0,1,.5,1.2,2.106,2.106,0,0,1-.5,1.3,1.845,1.845,0,0,1-1.2.5A1.3,1.3,0,0,1,436.5,296.3Zm0,3.2H439v15h-2.5Z" fill="#007bc4"></path>
      <path id="Trazado_269" data-name="Trazado 269" d="M444.8,299.5l1.6.9a9.433,9.433,0,0,1,2.3-1,10.855,10.855,0,0,1,2.5-.4,4.9,4.9,0,0,1,3.8,1.5,5.21,5.21,0,0,1,1.4,3.9v10.1h-2.5v-9.7a3.656,3.656,0,0,0-.9-2.5,3.168,3.168,0,0,0-2.3-.9,5.924,5.924,0,0,0-2.1.4,14.723,14.723,0,0,0-2.2,1v11.8H444v-15h.8Z" fill="#007bc4"></path>
      <path id="Trazado_270" data-name="Trazado 270" d="M458.9,299.5h2.9l4.5,10.7,4.7-10.7h2.7l-6.9,15.3h-1Z" fill="#007bc4"></path>
      <path id="Trazado_271" data-name="Trazado 271" d="M477.3,312.8a8.382,8.382,0,0,1-1.9-5.9,10.842,10.842,0,0,1,.8-4.2,6.561,6.561,0,0,1,2.4-2.8,6.743,6.743,0,0,1,6.9-.1,5.65,5.65,0,0,1,2.2,2.4,7.845,7.845,0,0,1,.8,3.5,11.018,11.018,0,0,1-.2,1.8H478a5.918,5.918,0,0,0,1.4,3.7,3.95,3.95,0,0,0,3.1,1.4,7.658,7.658,0,0,0,2.5-.4,12.272,12.272,0,0,0,2.6-1.2v2.5a8.657,8.657,0,0,1-2.4,1,9.3,9.3,0,0,1-2.7.4A5.871,5.871,0,0,1,477.3,312.8Zm7.6-10.4a3.424,3.424,0,0,0-2.7-1.2,3.763,3.763,0,0,0-2.8,1.1,5.556,5.556,0,0,0-1.3,3.2h7.8A5.218,5.218,0,0,0,484.9,302.4Z" fill="#007bc4"></path>
      <path id="Trazado_272" data-name="Trazado 272" d="M494,314.6a7.8,7.8,0,0,1-2.3-.8v-2.6a11.422,11.422,0,0,0,2.6.9,7.4,7.4,0,0,0,2.3.4,4.4,4.4,0,0,0,2.5-.6,1.922,1.922,0,0,0,.9-1.6,1.645,1.645,0,0,0-.8-1.5,20.672,20.672,0,0,0-2.6-1,21.157,21.157,0,0,1-2.7-.9,4.31,4.31,0,0,1-1.7-1.3,3.612,3.612,0,0,1-.7-2.4,3.7,3.7,0,0,1,.6-2.1,4.722,4.722,0,0,1,1.8-1.6,6.527,6.527,0,0,1,2.9-.6,11.343,11.343,0,0,1,2.5.3,8.468,8.468,0,0,1,2.4.8v2.5a16.142,16.142,0,0,0-2.6-.9,10.376,10.376,0,0,0-2.3-.3,3.1,3.1,0,0,0-2.1.6,1.613,1.613,0,0,0-.2,2.5,3.458,3.458,0,0,0,1.2.7,12.427,12.427,0,0,0,2,.6,10.132,10.132,0,0,1,3.6,1.6,3.773,3.773,0,0,1,1.2,3,4,4,0,0,1-1.6,3.4,6.493,6.493,0,0,1-4.3,1.3C495.8,314.9,494.9,314.8,494,314.6Z" fill="#007bc4"></path>
      <path id="Trazado_273" data-name="Trazado 273" d="M508.8,313.4a5.011,5.011,0,0,1-1.3-3.5v-8.2h-3v-2.3h3v-4H510v4h5.8v2.3H510v8a2.566,2.566,0,0,0,2.5,2.7,11.135,11.135,0,0,0,1.7-.2c.7-.2,1.3-.4,2-.6V314c-.6.2-1.2.4-1.9.6a7.144,7.144,0,0,1-2,.2A5.074,5.074,0,0,1,508.8,313.4Z" fill="#007bc4"></path>
      <path id="Trazado_274" data-name="Trazado 274" d="M519.5,296.3a1.9,1.9,0,0,1-.5-1.3,1.656,1.656,0,0,1,.5-1.2,1.535,1.535,0,0,1,1.3-.5,1.656,1.656,0,0,1,1.2.5,1.584,1.584,0,0,1,.5,1.2,2.106,2.106,0,0,1-.5,1.3,1.845,1.845,0,0,1-1.2.5A1.378,1.378,0,0,1,519.5,296.3Zm0,3.2H522v15h-2.5Z" fill="#007bc4"></path>
      <path id="Trazado_275" data-name="Trazado 275" d="M530.1,321.4a14.162,14.162,0,0,1-2.2-.7v-2.4a12.345,12.345,0,0,0,2.3.8,9.578,9.578,0,0,0,2.2.3,5.183,5.183,0,0,0,3.3-1,3.515,3.515,0,0,0,1.3-2.7v-2.2a7.194,7.194,0,0,1-2.1,1.2,6.825,6.825,0,0,1-2.3.5,5.671,5.671,0,0,1-4.7-2.1,11.086,11.086,0,0,1,0-11.8,6,6,0,0,1,4.8-2.1,5.867,5.867,0,0,1,2.3.4,6.44,6.44,0,0,1,2,1.1l1.6-1h.8V316a5.291,5.291,0,0,1-.9,3,5.773,5.773,0,0,1-2.5,2.1,8.627,8.627,0,0,1-3.6.8C531.7,321.7,530.9,321.6,530.1,321.4Zm4.7-9.3a5.956,5.956,0,0,0,2.1-1.4V303a10.706,10.706,0,0,0-2.1-1.3,5.813,5.813,0,0,0-2.1-.5,3.514,3.514,0,0,0-2.9,1.5,6.434,6.434,0,0,0-1.1,4.1,7.234,7.234,0,0,0,1.1,4.2,3.219,3.219,0,0,0,2.8,1.5A3.592,3.592,0,0,0,534.8,312.1Z" fill="#007bc4"></path>
      <path id="Trazado_276" data-name="Trazado 276" d="M544.8,313.7a4.752,4.752,0,0,1-1.3-3.5,3.956,3.956,0,0,1,1.7-3.4,7.546,7.546,0,0,1,4.9-1.3h3v-1.3a2.94,2.94,0,0,0-.9-2.2,3.649,3.649,0,0,0-2.4-.8,7.959,7.959,0,0,0-2.4.4,14.766,14.766,0,0,0-2.7,1v-2.5a17.306,17.306,0,0,1,2.7-.8,13.9,13.9,0,0,1,2.7-.3,5.776,5.776,0,0,1,4.1,1.3,4.536,4.536,0,0,1,1.4,3.6v10.6h-.8l-1.6-1a7.561,7.561,0,0,1-2.2,1.1,6.562,6.562,0,0,1-2.3.4A5.113,5.113,0,0,1,544.8,313.7Zm5.9-1.3a21.4,21.4,0,0,0,2.2-1v-3.8h-2.6a4.9,4.9,0,0,0-3.2.8,2.4,2.4,0,0,0-1.1,1.9,2.055,2.055,0,0,0,.8,1.8,2.724,2.724,0,0,0,2,.7A8.1,8.1,0,0,0,550.7,312.4Z" fill="#007bc4"></path>
      <path id="Trazado_277" data-name="Trazado 277" d="M561,312.8a8.958,8.958,0,0,1-1.8-6A8.569,8.569,0,0,1,561,301a6.142,6.142,0,0,1,5-2.1,6.723,6.723,0,0,1,2.4.4,11.212,11.212,0,0,1,2.2,1v2.6a11.507,11.507,0,0,0-2.5-1.2,7.364,7.364,0,0,0-2.3-.5,3.694,3.694,0,0,0-3,1.5,6.894,6.894,0,0,0-1.1,4.1,7.234,7.234,0,0,0,1.1,4.2,3.442,3.442,0,0,0,3,1.5,6.825,6.825,0,0,0,2.3-.5,10.775,10.775,0,0,0,2.4-1.2v2.6a6.953,6.953,0,0,1-2.3,1,11.776,11.776,0,0,1-2.5.4A4.984,4.984,0,0,1,561,312.8Z" fill="#007bc4"></path>
      <path id="Trazado_278" data-name="Trazado 278" d="M574.6,296.3a1.9,1.9,0,0,1-.5-1.3,1.656,1.656,0,0,1,.5-1.2,1.535,1.535,0,0,1,1.3-.5,1.656,1.656,0,0,1,1.2.5,1.584,1.584,0,0,1,.5,1.2,2.106,2.106,0,0,1-.5,1.3,1.845,1.845,0,0,1-1.2.5A1.231,1.231,0,0,1,574.6,296.3Zm0,3.2h2.5v15h-2.5Z" fill="#007bc4"></path>
      <path id="Trazado_279" data-name="Trazado 279" d="M583,312.9a8.649,8.649,0,0,1-1.9-6,8.12,8.12,0,0,1,1.9-5.8,7.243,7.243,0,0,1,10.2,0,8.6,8.6,0,0,1,1.9,5.8,8.82,8.82,0,0,1-1.9,6,6.385,6.385,0,0,1-5.1,2.2A6.715,6.715,0,0,1,583,312.9Zm8.4-1.7a6.677,6.677,0,0,0,1.2-4.3,6.082,6.082,0,0,0-1.2-4.1,4.089,4.089,0,0,0-3.2-1.5,3.8,3.8,0,0,0-3.2,1.5,6.263,6.263,0,0,0-1.2,4.1,6.677,6.677,0,0,0,1.2,4.3,3.8,3.8,0,0,0,3.2,1.5A3.935,3.935,0,0,0,591.4,311.2Zm-4.7-14.9,2.6-3.9h3.5l-4.3,5Z" fill="#007bc4"></path>
      <path id="Trazado_280" data-name="Trazado 280" d="M599.8,299.5l1.6.9a9.433,9.433,0,0,1,2.3-1,10.855,10.855,0,0,1,2.5-.4,4.9,4.9,0,0,1,3.8,1.5,5.21,5.21,0,0,1,1.4,3.9v10.1H609v-9.7a3.656,3.656,0,0,0-.9-2.5,3.168,3.168,0,0,0-2.3-.9,5.924,5.924,0,0,0-2.1.4,14.723,14.723,0,0,0-2.2,1v11.8H599v-15h.8Z" fill="#007bc4"></path>
      <path id="Trazado_281" data-name="Trazado 281" d="M625.1,312.9a9.931,9.931,0,0,1-1.7-6,10.842,10.842,0,0,1,.8-4.2,6.35,6.35,0,0,1,2.3-2.8,6.818,6.818,0,0,1,3.5-1,6.308,6.308,0,0,1,2.2.5,6.656,6.656,0,0,1,2,1.2V292h2.5v22.5h-2.4V313a8.007,8.007,0,0,1-2.1,1.5,5.657,5.657,0,0,1-2.4.6A5.893,5.893,0,0,1,625.1,312.9Zm7-.8a6.523,6.523,0,0,0,2.1-1.6v-7.4a7.433,7.433,0,0,0-2.1-1.3,5.833,5.833,0,0,0-2-.5,3.139,3.139,0,0,0-2.1.7,5.755,5.755,0,0,0-1.5,1.9,6.741,6.741,0,0,0-.5,3,7.817,7.817,0,0,0,1.1,4.3,3.17,3.17,0,0,0,2.9,1.5A4.834,4.834,0,0,0,632.1,312.1Z" fill="#007bc4"></path>
      <path id="Trazado_282" data-name="Trazado 282" d="M642.5,312.8a8.382,8.382,0,0,1-1.9-5.9,10.842,10.842,0,0,1,.8-4.2,6.561,6.561,0,0,1,2.4-2.8,6.742,6.742,0,0,1,6.9-.1,5.65,5.65,0,0,1,2.2,2.4,7.845,7.845,0,0,1,.8,3.5,11.015,11.015,0,0,1-.2,1.8H643.2a5.917,5.917,0,0,0,1.4,3.7,3.95,3.95,0,0,0,3.1,1.4,7.658,7.658,0,0,0,2.5-.4,12.27,12.27,0,0,0,2.6-1.2v2.5a8.657,8.657,0,0,1-2.4,1,9.3,9.3,0,0,1-2.7.4A5.871,5.871,0,0,1,642.5,312.8Zm7.6-10.4a3.424,3.424,0,0,0-2.7-1.2,3.763,3.763,0,0,0-2.8,1.1,5.557,5.557,0,0,0-1.3,3.2h7.8A5.217,5.217,0,0,0,650.1,302.4Z" fill="#007bc4"></path>
      <path id="Trazado_283" data-name="Trazado 283" d="M658.6,313.5a5.137,5.137,0,0,1-1.1-3.4v-18H660V310a2.969,2.969,0,0,0,.5,1.8,1.678,1.678,0,0,0,1.4.6,13.693,13.693,0,0,0,1.6-.2v2.3a8.968,8.968,0,0,1-1.8.2A3.853,3.853,0,0,1,658.6,313.5Z" fill="#007bc4"></path>
      <path id="Trazado_284" data-name="Trazado 284" d="M280.1,349.4a10.342,10.342,0,0,1-2.6-1.2v-2.9a10.492,10.492,0,0,0,2.8,1.4,6.939,6.939,0,0,0,2.6.5,5.389,5.389,0,0,0,3.3-.9,2.908,2.908,0,0,0,1.2-2.5,2.767,2.767,0,0,0-.5-1.6,3.325,3.325,0,0,0-1.4-1.2c-.6-.3-1.3-.8-2.3-1.3a25.293,25.293,0,0,1-3.1-1.7,4.237,4.237,0,0,1-1.7-1.8,4.526,4.526,0,0,1-.7-2.7,5.029,5.029,0,0,1,.8-2.7,5.373,5.373,0,0,1,2.2-2,7.391,7.391,0,0,1,3.4-.7,9.667,9.667,0,0,1,2.9.4,10.909,10.909,0,0,1,2.7,1.1v2.9a12.376,12.376,0,0,0-5.7-1.8,4.551,4.551,0,0,0-2.7.8,2.518,2.518,0,0,0-.9,2,2.3,2.3,0,0,0,.4,1.4,5.241,5.241,0,0,0,1.1,1c.5.3,1.2.7,2.2,1.2,1.6.8,2.8,1.5,3.5,1.9a7.69,7.69,0,0,1,1.8,1.8,4.99,4.99,0,0,1,.7,2.9,5.421,5.421,0,0,1-2,4.4,7.987,7.987,0,0,1-5.3,1.6A6.426,6.426,0,0,1,280.1,349.4Z" fill="#007bc4"></path>
      <path id="Trazado_285" data-name="Trazado 285" d="M294.3,331.2a1.9,1.9,0,0,1-.5-1.3,1.656,1.656,0,0,1,.5-1.2,1.9,1.9,0,0,1,1.3-.5,1.656,1.656,0,0,1,1.2.5,2.078,2.078,0,0,1,.5,1.2,2.106,2.106,0,0,1-.5,1.3,2.078,2.078,0,0,1-1.2.5A2.106,2.106,0,0,1,294.3,331.2Zm0,3.1h2.5v15h-2.5Z" fill="#007bc4"></path>
      <path id="Trazado_286" data-name="Trazado 286" d="M303.6,349.5a7.8,7.8,0,0,1-2.3-.8v-2.6a11.422,11.422,0,0,0,2.6.9,7.4,7.4,0,0,0,2.3.4,4.4,4.4,0,0,0,2.5-.6,1.922,1.922,0,0,0,.9-1.6,1.645,1.645,0,0,0-.8-1.5,20.672,20.672,0,0,0-2.6-1,21.157,21.157,0,0,1-2.7-.9,4.31,4.31,0,0,1-1.7-1.3,3.612,3.612,0,0,1-.7-2.4,3.7,3.7,0,0,1,.6-2.1,4.034,4.034,0,0,1,1.8-1.6,6.527,6.527,0,0,1,2.9-.6,11.343,11.343,0,0,1,2.5.3,8.469,8.469,0,0,1,2.4.8v2.5a16.142,16.142,0,0,0-2.6-.9,10.376,10.376,0,0,0-2.3-.3,3.1,3.1,0,0,0-2.1.6,1.613,1.613,0,0,0-.2,2.5,3.458,3.458,0,0,0,1.2.7,12.427,12.427,0,0,0,2,.6,10.132,10.132,0,0,1,3.6,1.6,3.773,3.773,0,0,1,1.2,3,4,4,0,0,1-1.6,3.4,6.493,6.493,0,0,1-4.3,1.3C305.3,349.7,304.4,349.7,303.6,349.5Z" fill="#007bc4"></path>
      <path id="Trazado_287" data-name="Trazado 287" d="M318.4,348.2a5.011,5.011,0,0,1-1.3-3.5v-8.2h-3v-2.3h3v-4h2.5v4h5.8v2.3h-5.8v8a2.566,2.566,0,0,0,2.5,2.7,11.135,11.135,0,0,0,1.7-.2c.7-.2,1.3-.4,2-.6v2.4c-.6.2-1.2.4-1.9.6a7.144,7.144,0,0,1-2,.2A4.513,4.513,0,0,1,318.4,348.2Z" fill="#007bc4"></path>
      <path id="Trazado_288" data-name="Trazado 288" d="M329.9,347.6a8.382,8.382,0,0,1-1.9-5.9,10.842,10.842,0,0,1,.8-4.2,6.561,6.561,0,0,1,2.4-2.8,6.743,6.743,0,0,1,6.9-.1,5.65,5.65,0,0,1,2.2,2.4,7.845,7.845,0,0,1,.8,3.5,11.018,11.018,0,0,1-.2,1.8H330.6A5.918,5.918,0,0,0,332,346a3.95,3.95,0,0,0,3.1,1.4,7.658,7.658,0,0,0,2.5-.4,12.272,12.272,0,0,0,2.6-1.2v2.5a8.657,8.657,0,0,1-2.4,1,9.3,9.3,0,0,1-2.7.4A6.094,6.094,0,0,1,329.9,347.6Zm7.6-10.4a3.424,3.424,0,0,0-2.7-1.2,3.763,3.763,0,0,0-2.8,1.1,5.556,5.556,0,0,0-1.3,3.2h7.8A4.624,4.624,0,0,0,337.5,337.2Z" fill="#007bc4"></path>
      <path id="Trazado_289" data-name="Trazado 289" d="M345.7,334.3l1.6.9a8.754,8.754,0,0,1,2.2-1,6.562,6.562,0,0,1,2.3-.4,6.963,6.963,0,0,1,2.5.5,4.529,4.529,0,0,1,1.8,1.5,13.5,13.5,0,0,1,2.6-1.5,7.059,7.059,0,0,1,2.8-.6,4.988,4.988,0,0,1,5.2,5.4v10.1h-2.5v-9.7a3.656,3.656,0,0,0-.9-2.5,3.029,3.029,0,0,0-2.2-1,5.833,5.833,0,0,0-2,.5,11.251,11.251,0,0,0-2.1,1.2v11.5h-2.5v-9.8a3.649,3.649,0,0,0-.8-2.4,2.94,2.94,0,0,0-2.2-.9,4.979,4.979,0,0,0-1.9.4,21.4,21.4,0,0,0-2.2,1v11.7h-2.5v-15h.8Z" fill="#007bc4"></path>
      <path id="Trazado_290" data-name="Trazado 290" d="M372,348.5a4.752,4.752,0,0,1-1.3-3.5,3.956,3.956,0,0,1,1.7-3.4,7.546,7.546,0,0,1,4.9-1.3h3V339a2.94,2.94,0,0,0-.9-2.2,3.649,3.649,0,0,0-2.4-.8,7.959,7.959,0,0,0-2.4.4,14.767,14.767,0,0,0-2.7,1V335a17.306,17.306,0,0,1,2.7-.8,13.9,13.9,0,0,1,2.7-.3,5.776,5.776,0,0,1,4.1,1.3,4.536,4.536,0,0,1,1.4,3.6v10.6H382l-1.6-1a7.561,7.561,0,0,1-2.2,1.1,6.562,6.562,0,0,1-2.3.4A5.3,5.3,0,0,1,372,348.5Zm6-1.3a21.4,21.4,0,0,0,2.2-1v-3.8h-2.6a4.9,4.9,0,0,0-3.2.8,2.265,2.265,0,0,0-1.1,1.9,2.055,2.055,0,0,0,.8,1.8,2.724,2.724,0,0,0,2,.7A4.979,4.979,0,0,0,378,347.2Z" fill="#007bc4"></path>
      <path id="Trazado_291" data-name="Trazado 291" d="M397.6,347.9a7.233,7.233,0,0,1-2.1-5.5V328.6h2.7v13.7a4.924,4.924,0,0,0,1.3,3.7,5.635,5.635,0,0,0,7.2,0,4.924,4.924,0,0,0,1.3-3.7V328.6h2.7v13.8a7.386,7.386,0,0,1-2.1,5.5,7.817,7.817,0,0,1-5.6,2A7.324,7.324,0,0,1,397.6,347.9Z" fill="#007bc4"></path>
      <path id="Trazado_292" data-name="Trazado 292" d="M416.6,334.3l1.6.9a9.433,9.433,0,0,1,2.3-1,7.658,7.658,0,0,1,2.5-.4,4.9,4.9,0,0,1,3.8,1.5,5.21,5.21,0,0,1,1.4,3.9v10.1h-2.5v-9.7a3.656,3.656,0,0,0-.9-2.5,3.168,3.168,0,0,0-2.3-.9,5.924,5.924,0,0,0-2.1.4,14.723,14.723,0,0,0-2.2,1v11.8h-2.5v-15h.9Z" fill="#007bc4"></path>
      <path id="Trazado_293" data-name="Trazado 293" d="M433.1,331.2a1.9,1.9,0,0,1-.5-1.3,1.656,1.656,0,0,1,.5-1.2,1.9,1.9,0,0,1,1.3-.5,1.656,1.656,0,0,1,1.2.5,1.584,1.584,0,0,1,.5,1.2,2.106,2.106,0,0,1-.5,1.3,1.845,1.845,0,0,1-1.2.5A2.106,2.106,0,0,1,433.1,331.2Zm0,3.1h2.5v15h-2.5Z" fill="#007bc4"></path>
      <path id="Trazado_294" data-name="Trazado 294" d="M438.4,334.3h2.9l4.5,10.7,4.7-10.7h2.7l-6.9,15.3h-1Z" fill="#007bc4"></path>
      <path id="Trazado_295" data-name="Trazado 295" d="M456.7,347.6a8.382,8.382,0,0,1-1.9-5.9,10.842,10.842,0,0,1,.8-4.2,6.561,6.561,0,0,1,2.4-2.8,6.743,6.743,0,0,1,6.9-.1,5.65,5.65,0,0,1,2.2,2.4,7.845,7.845,0,0,1,.8,3.5,11.018,11.018,0,0,1-.2,1.8H457.4a5.918,5.918,0,0,0,1.4,3.7,3.95,3.95,0,0,0,3.1,1.4,7.658,7.658,0,0,0,2.5-.4,12.272,12.272,0,0,0,2.6-1.2v2.5a8.657,8.657,0,0,1-2.4,1,9.3,9.3,0,0,1-2.7.4A6.094,6.094,0,0,1,456.7,347.6Zm7.6-10.4a3.424,3.424,0,0,0-2.7-1.2,3.763,3.763,0,0,0-2.8,1.1,5.556,5.556,0,0,0-1.3,3.2h7.8A4.624,4.624,0,0,0,464.3,337.2Z" fill="#007bc4"></path>
      <path id="Trazado_296" data-name="Trazado 296" d="M474.2,334.3v3.6a8.378,8.378,0,0,1,2.9-2.7,7.655,7.655,0,0,1,3.9-1.1v2.8a8.081,8.081,0,0,0-3.7.9,10.341,10.341,0,0,0-3.1,2.4v9.1h-2.5v-15h2.5Z" fill="#007bc4"></path>
      <path id="Trazado_297" data-name="Trazado 297" d="M485.7,349.5a7.8,7.8,0,0,1-2.3-.8v-2.6a11.422,11.422,0,0,0,2.6.9,7.4,7.4,0,0,0,2.3.4,4.4,4.4,0,0,0,2.5-.6,1.922,1.922,0,0,0,.9-1.6,1.645,1.645,0,0,0-.8-1.5,20.672,20.672,0,0,0-2.6-1,21.157,21.157,0,0,1-2.7-.9,4.31,4.31,0,0,1-1.7-1.3,3.612,3.612,0,0,1-.7-2.4,3.7,3.7,0,0,1,.6-2.1,4.722,4.722,0,0,1,1.8-1.6,6.527,6.527,0,0,1,2.9-.6,11.343,11.343,0,0,1,2.5.3,8.468,8.468,0,0,1,2.4.8v2.5a16.142,16.142,0,0,0-2.6-.9,10.376,10.376,0,0,0-2.3-.3,3.1,3.1,0,0,0-2.1.6,1.613,1.613,0,0,0-.2,2.5,3.458,3.458,0,0,0,1.2.7,12.427,12.427,0,0,0,2,.6,10.132,10.132,0,0,1,3.6,1.6,3.773,3.773,0,0,1,1.2,3,4,4,0,0,1-1.6,3.4,6.493,6.493,0,0,1-4.3,1.3C487.5,349.7,486.6,349.7,485.7,349.5Z" fill="#007bc4"></path>
      <path id="Trazado_298" data-name="Trazado 298" d="M498.4,331.2a1.9,1.9,0,0,1-.5-1.3,1.656,1.656,0,0,1,.5-1.2,1.9,1.9,0,0,1,1.3-.5,1.656,1.656,0,0,1,1.2.5,1.584,1.584,0,0,1,.5,1.2,2.106,2.106,0,0,1-.5,1.3,1.845,1.845,0,0,1-1.2.5A1.9,1.9,0,0,1,498.4,331.2Zm0,3.1h2.5v15h-2.5Z" fill="#007bc4"></path>
      <path id="Trazado_299" data-name="Trazado 299" d="M508.2,348.2a5.011,5.011,0,0,1-1.3-3.5v-8.2h-3v-2.3h3v-4h2.5v4h5.8v2.3h-5.8v8a2.566,2.566,0,0,0,2.5,2.7,11.135,11.135,0,0,0,1.7-.2c.7-.2,1.3-.4,2-.6v2.4c-.6.2-1.2.4-1.9.6a7.144,7.144,0,0,1-2,.2A4.513,4.513,0,0,1,508.2,348.2Z" fill="#007bc4"></path>
      <path id="Trazado_300" data-name="Trazado 300" d="M519.3,348.5A4.752,4.752,0,0,1,518,345a3.956,3.956,0,0,1,1.7-3.4,7.546,7.546,0,0,1,4.9-1.3h3V339a2.94,2.94,0,0,0-.9-2.2,3.649,3.649,0,0,0-2.4-.8,7.959,7.959,0,0,0-2.4.4,14.766,14.766,0,0,0-2.7,1V335a17.306,17.306,0,0,1,2.7-.8,13.9,13.9,0,0,1,2.7-.3,5.776,5.776,0,0,1,4.1,1.3,4.536,4.536,0,0,1,1.4,3.6v10.6h-.8l-1.6-1a7.561,7.561,0,0,1-2.2,1.1,6.562,6.562,0,0,1-2.3.4A5.144,5.144,0,0,1,519.3,348.5Zm6-1.3a21.4,21.4,0,0,0,2.2-1v-3.8h-2.6a4.9,4.9,0,0,0-3.2.8,2.4,2.4,0,0,0-1.1,1.9,2.055,2.055,0,0,0,.8,1.8,2.724,2.724,0,0,0,2,.7A5.811,5.811,0,0,0,525.3,347.2Z" fill="#007bc4"></path>
      <path id="Trazado_301" data-name="Trazado 301" d="M537.1,334.3v3.6a8.378,8.378,0,0,1,2.9-2.7,7.655,7.655,0,0,1,3.9-1.1v2.8a8.081,8.081,0,0,0-3.7.9,10.341,10.341,0,0,0-3.1,2.4v9.1h-2.5v-15h2.5Z" fill="#007bc4"></path>
      <path id="Trazado_302" data-name="Trazado 302" d="M547,331.2a1.9,1.9,0,0,1-.5-1.3,1.656,1.656,0,0,1,.5-1.2,1.9,1.9,0,0,1,1.3-.5,1.656,1.656,0,0,1,1.2.5,1.584,1.584,0,0,1,.5,1.2,2.106,2.106,0,0,1-.5,1.3,1.845,1.845,0,0,1-1.2.5A2.106,2.106,0,0,1,547,331.2Zm0,3.1h2.5v15H547Z" fill="#007bc4"></path>
      <path id="Trazado_303" data-name="Trazado 303" d="M555.5,347.7a8.649,8.649,0,0,1-1.9-6,8.12,8.12,0,0,1,1.9-5.8,7.243,7.243,0,0,1,10.2,0,8.6,8.6,0,0,1,1.9,5.8,8.82,8.82,0,0,1-1.9,6,6.385,6.385,0,0,1-5.1,2.2A6.563,6.563,0,0,1,555.5,347.7Zm8.3-1.7a6.677,6.677,0,0,0,1.2-4.3,6.082,6.082,0,0,0-1.2-4.1,4.089,4.089,0,0,0-3.2-1.5,3.8,3.8,0,0,0-3.2,1.5,6.263,6.263,0,0,0-1.2,4.1,6.677,6.677,0,0,0,1.2,4.3,4.163,4.163,0,0,0,6.4,0Z" fill="#007bc4"></path>
      <path id="Trazado_304" data-name="Trazado 304" d="M580.3,347.7a9.931,9.931,0,0,1-1.7-6,10.842,10.842,0,0,1,.8-4.2,6.35,6.35,0,0,1,2.3-2.8,6.818,6.818,0,0,1,3.5-1,6.308,6.308,0,0,1,2.2.5,6.656,6.656,0,0,1,2,1.2v-8.6h2.5v22.5h-2.4v-1.5a8.007,8.007,0,0,1-2.1,1.5,5.657,5.657,0,0,1-2.4.6A5.885,5.885,0,0,1,580.3,347.7Zm7-.8a6.523,6.523,0,0,0,2.1-1.6V338a7.433,7.433,0,0,0-2.1-1.3,5.833,5.833,0,0,0-2-.5,3.139,3.139,0,0,0-2.1.7,5.755,5.755,0,0,0-1.5,1.9,6.741,6.741,0,0,0-.5,3,7.817,7.817,0,0,0,1.1,4.3,3.17,3.17,0,0,0,2.9,1.5A5.787,5.787,0,0,0,587.3,346.9Z" fill="#007bc4"></path>
      <path id="Trazado_305" data-name="Trazado 305" d="M597.7,347.6a8.382,8.382,0,0,1-1.9-5.9,10.842,10.842,0,0,1,.8-4.2,6.561,6.561,0,0,1,2.4-2.8,6.742,6.742,0,0,1,6.9-.1,5.65,5.65,0,0,1,2.2,2.4,7.845,7.845,0,0,1,.8,3.5,11.015,11.015,0,0,1-.2,1.8H598.4a5.917,5.917,0,0,0,1.4,3.7,3.95,3.95,0,0,0,3.1,1.4,7.658,7.658,0,0,0,2.5-.4,12.27,12.27,0,0,0,2.6-1.2v2.5a8.657,8.657,0,0,1-2.4,1,9.3,9.3,0,0,1-2.7.4A6.094,6.094,0,0,1,597.7,347.6Zm7.6-10.4a3.424,3.424,0,0,0-2.7-1.2,3.763,3.763,0,0,0-2.8,1.1,5.557,5.557,0,0,0-1.3,3.2h7.8A4.624,4.624,0,0,0,605.3,337.2Z" fill="#007bc4"></path>
      <path id="Trazado_306" data-name="Trazado 306" d="M624.3,348.5a9.425,9.425,0,0,1-3.3-3.8,13.354,13.354,0,0,1-1.1-5.8,11.3,11.3,0,0,1,1.3-5.6,8.8,8.8,0,0,1,3.6-3.8,10.416,10.416,0,0,1,5.3-1.3,12.309,12.309,0,0,1,3.6.6,16.037,16.037,0,0,1,3.5,1.5v3.1a26.907,26.907,0,0,0-3.8-1.9,9.305,9.305,0,0,0-3.3-.7,6.97,6.97,0,0,0-3.8,1,6.685,6.685,0,0,0-2.6,2.9,9.719,9.719,0,0,0-.9,4.3,12.458,12.458,0,0,0,.8,4.5,6.11,6.11,0,0,0,2.3,2.9,5.676,5.676,0,0,0,3.4,1,6.148,6.148,0,0,0,6.5-6.1H630l-.8-2.5h9.3a11.078,11.078,0,0,1,.2,1.9,10.156,10.156,0,0,1-1.2,4.9,8.069,8.069,0,0,1-3.3,3.3,10,10,0,0,1-5,1.2A11.359,11.359,0,0,1,624.3,348.5Z" fill="#007bc4"></path>
      <path id="Trazado_307" data-name="Trazado 307" d="M643.1,348.5a4.752,4.752,0,0,1-1.3-3.5,3.956,3.956,0,0,1,1.7-3.4,7.546,7.546,0,0,1,4.9-1.3h3V339a2.94,2.94,0,0,0-.9-2.2,3.649,3.649,0,0,0-2.4-.8,7.959,7.959,0,0,0-2.4.4,14.766,14.766,0,0,0-2.7,1V335a17.306,17.306,0,0,1,2.7-.8,13.9,13.9,0,0,1,2.7-.3,5.776,5.776,0,0,1,4.1,1.3,4.536,4.536,0,0,1,1.4,3.6v10.6H653l-1.6-1a7.561,7.561,0,0,1-2.2,1.1,6.562,6.562,0,0,1-2.3.4A5.216,5.216,0,0,1,643.1,348.5Zm6-1.3a21.4,21.4,0,0,0,2.2-1v-3.8h-2.6a4.9,4.9,0,0,0-3.2.8,2.4,2.4,0,0,0-1.1,1.9,2.055,2.055,0,0,0,.8,1.8,2.724,2.724,0,0,0,2,.7A4.978,4.978,0,0,0,649.1,347.2Z" fill="#007bc4"></path>
      <path id="Trazado_308" data-name="Trazado 308" d="M659.6,348.3a5.137,5.137,0,0,1-1.1-3.4v-18H661v17.9a2.969,2.969,0,0,0,.5,1.8,1.678,1.678,0,0,0,1.4.6,13.693,13.693,0,0,0,1.6-.2v2.3a8.968,8.968,0,0,1-1.8.2A3.853,3.853,0,0,1,659.6,348.3Z" fill="#007bc4"></path>
      <path id="Trazado_309" data-name="Trazado 309" d="M667.8,331.2a1.9,1.9,0,0,1-.5-1.3,1.656,1.656,0,0,1,.5-1.2,1.9,1.9,0,0,1,1.3-.5,1.656,1.656,0,0,1,1.2.5,1.584,1.584,0,0,1,.5,1.2,2.106,2.106,0,0,1-.5,1.3,1.845,1.845,0,0,1-1.2.5A2.106,2.106,0,0,1,667.8,331.2Zm0,3.1h2.5v15h-2.5Z" fill="#007bc4"></path>
      <path id="Trazado_310" data-name="Trazado 310" d="M676.2,347.7a8.958,8.958,0,0,1-1.8-6,8.569,8.569,0,0,1,1.8-5.8,6.142,6.142,0,0,1,5-2.1,6.723,6.723,0,0,1,2.4.4,11.212,11.212,0,0,1,2.2,1v2.6a11.507,11.507,0,0,0-2.5-1.2,7.364,7.364,0,0,0-2.3-.5,3.694,3.694,0,0,0-3,1.5,6.894,6.894,0,0,0-1.1,4.1,7.234,7.234,0,0,0,1.1,4.2,3.442,3.442,0,0,0,3,1.5,6.825,6.825,0,0,0,2.3-.5,10.775,10.775,0,0,0,2.4-1.2v2.6a6.953,6.953,0,0,1-2.3,1,11.776,11.776,0,0,1-2.5.4A5.451,5.451,0,0,1,676.2,347.7Z" fill="#007bc4"></path>
      <path id="Trazado_311" data-name="Trazado 311" d="M689.8,331.2a1.9,1.9,0,0,1-.5-1.3,1.656,1.656,0,0,1,.5-1.2,1.9,1.9,0,0,1,1.3-.5,1.656,1.656,0,0,1,1.2.5,1.584,1.584,0,0,1,.5,1.2,2.106,2.106,0,0,1-.5,1.3,1.845,1.845,0,0,1-1.2.5A1.728,1.728,0,0,1,689.8,331.2Zm0,3.1h2.5v15h-2.5Z" fill="#007bc4"></path>
      <path id="Trazado_312" data-name="Trazado 312" d="M697.8,348.5a4.752,4.752,0,0,1-1.3-3.5,3.956,3.956,0,0,1,1.7-3.4,7.546,7.546,0,0,1,4.9-1.3h3V339a2.94,2.94,0,0,0-.9-2.2,3.649,3.649,0,0,0-2.4-.8,7.959,7.959,0,0,0-2.4.4,14.766,14.766,0,0,0-2.7,1V335a17.306,17.306,0,0,1,2.7-.8,13.9,13.9,0,0,1,2.7-.3,5.776,5.776,0,0,1,4.1,1.3,4.536,4.536,0,0,1,1.4,3.6v10.6h-.8l-1.6-1a7.561,7.561,0,0,1-2.2,1.1,6.562,6.562,0,0,1-2.3.4A5.144,5.144,0,0,1,697.8,348.5Zm6-1.3a21.4,21.4,0,0,0,2.2-1v-3.8h-2.6a4.9,4.9,0,0,0-3.2.8,2.4,2.4,0,0,0-1.1,1.9,2.055,2.055,0,0,0,.8,1.8,2.724,2.724,0,0,0,2,.7A5.365,5.365,0,0,0,703.8,347.2Z" fill="#007bc4"></path>
    </g>
    <rect id="Rectángulo_31" data-name="Rectángulo 31" width="4.4" height="130.3" transform="translate(247.8 232.5)" fill="#007bc4"></rect>
  </g>
</svg>
