<?xml version="1.0" encoding="UTF-8"?>
<svg id="Capa_1" xmlns="http://www.w3.org/2000/svg" version="1.1" viewBox="0 0 841.9 595.3">
  <!-- Generator: Adobe Illustrator 29.0.1, SVG Export Plug-In . SVG Version: 2.1.0 Build 192)  -->
  <defs>
    <style>
      .st0 {
        fill: #fff;
      }
    </style>
  </defs>
  <rect class="st0" x="343.2" y="171.8" width="29.8" height="89.2" transform="translate(-60.2 207.2) rotate(-29.9)"/>
  <rect class="st0" x="390.4" y="139.2" width="29.7" height="88.9" transform="translate(-37.5 227.2) rotate(-30)"/>
  <rect class="st0" x="360.9" y="362.7" width="88.9" height="29.7" transform="translate(-124.3 539.8) rotate(-60)"/>
  <rect class="st0" x="309.5" y="333" width="88.9" height="29.7" transform="translate(-124.2 480.7) rotate(-60)"/>
  <rect class="st0" x="193.1" y="131.4" width="88.9" height="29.6"/>
  <rect class="st0" x="76.8" y="198.7" width="88.9" height="29.6" transform="translate(-124.3 211.6) rotate(-60)"/>
  <rect class="st0" x="25.5" y="169" width="88.9" height="29.6" transform="translate(-124.3 152.4) rotate(-60)"/>
  <rect class="st0" x="55.1" y="332.9" width="29.7" height="88.9" transform="translate(-179.3 85.5) rotate(-30)"/>
  <polygon class="st0" points="111.8 301.9 86.1 316.7 130.6 393.7 156.3 378.9 111.8 301.9"/>
  <rect class="st0" x="193.1" y="72.1" width="88.9" height="29.6"/>
  <rect class="st0" x="193.1" y="131.4" width="88.9" height="29.6"/>
  <rect class="st0" x="193.1" y="459.4" width="88.9" height="29.6"/>
  <rect class="st0" x="193.1" y="400.1" width="88.9" height="29.6"/>
  <path class="st0" d="M567,398.3l-22.4,4c-.5-3.8-2.3-7.4-5.1-10-3-2.3-6.7-3.5-10.5-3.4-5.2-.2-10.1,2-13.5,5.9-3.4,3.9-5.1,10.5-5.1,19.6s1.7,17.4,5.1,21.6c3.3,4.2,8.4,6.5,13.7,6.3,3.8.1,7.6-1.2,10.5-3.7,3.2-3.6,5.3-8.1,5.8-12.9l22.4,3.9c-1.6,9.1-6.3,17.3-13.3,23.3-6.6,5.2-15.3,7.9-26.4,7.9s-22.5-4-29.9-11.9c-7.5-7.9-11.2-18.9-11.2-33s3.7-25.2,11.2-33.1c7.5-7.9,17.6-11.9,30.3-11.9s18.8,2.2,24.9,6.7c6.7,5.1,11.4,12.4,13.4,20.5Z"/>
  <path class="st0" d="M584.1,361.4v-21.1h22.6v21.1h-22.6ZM584.1,458.8v-86h22.6v86h-22.6Z"/>
  <path class="st0" d="M669.7,372.8v18.1h-15.5v35c-.2,4.1,0,8.2.4,12.4.3,1.2,1,2.2,2,2.9,1.1.8,2.4,1.2,3.8,1.2,3.1-.2,6.1-1,9-2.2l2,17.6c-5.6,2.3-11.7,3.5-17.8,3.4-3.8,0-7.5-.6-11-2-2.8-1-5.3-2.9-7.2-5.2-1.7-2.7-2.8-5.7-3.1-8.9-.6-5.3-.9-10.7-.7-16.1v-37.8h-10.3v-18.1h10.3v-17l22.6-13.4v30.4h15.5Z"/>
  <path class="st0" d="M685.1,361.4v-21.1h22.6v21.1h-22.6ZM685.1,458.8v-86h22.6v86h-22.6Z"/>
  <path class="st0" d="M806.1,398.3l-22.4,4c-.5-3.9-2.4-7.4-5.2-10-3-2.3-6.7-3.5-10.5-3.4-5.2-.2-10.1,2-13.5,5.9-3.3,3.9-5,10.5-5,19.6s1.7,17.4,5.2,21.6c3.3,4.2,8.4,6.5,13.7,6.3,3.8.1,7.6-1.2,10.5-3.7,3.2-3.6,5.3-8.1,5.8-12.9l22.4,3.9c-1.6,9.1-6.3,17.3-13.3,23.3-6.6,5.2-15.3,7.9-26.2,7.9s-22.5-4-30-11.9c-7.4-7.9-11.2-18.9-11.2-33s3.7-25.2,11.2-33.1,17.6-11.9,30.4-11.9,18.7,2.2,24.9,6.7c6.6,5.1,11.3,12.4,13.3,20.5Z"/>
</svg>