<?xml version="1.0" encoding="UTF-8"?>
<svg id="svg1" xmlns="http://www.w3.org/2000/svg" xmlns:svg="http://www.w3.org/2000/svg" version="1.1" viewBox="0 0 1053.3 280.4">
  <!-- Generator: Adobe Illustrator 29.0.1, SVG Export Plug-In . SVG Version: 2.1.0 Build 192)  -->
  <defs>
    <style>
      .st0 {
        fill: #f03941;
      }

      .st1 {
        fill: #fff;
      }
    </style>
  </defs>
  <g id="g1">
    <g id="group-R5">
      <path id="path2" class="st1" d="M234.7,195.3c-.2-8.5-2.1-15-5.7-19.4-3.6-4.4-9.1-6.7-16.5-6.7s-13.4,2.3-17.7,7c-4.3,4.7-6.6,11-7,19.1h46.9ZM221.9,279.8c-23.5,0-41.5-5.8-54.1-17.5-12.5-11.6-18.8-28.2-18.8-49.7s5.8-37.9,17.5-50.4c11.7-12.6,28-18.8,49-18.8s33.4,5.3,43,16c9.6,10.7,14.4,25.9,14.4,45.7v14.5h-85.1c.4,6,1.6,11,3.7,15,2.1,4,4.8,7.2,8.2,9.6,3.3,2.4,7.2,4.1,11.7,5.1,4.4,1,9.3,1.5,14.5,1.5s8.9-.5,13.3-1.5c4.4-1,8.4-2.4,12-4.1,3.2-1.5,6.1-3,8.8-4.7,2.7-1.7,4.9-3.2,6.6-4.5h4.1v33.2c-3.2,1.3-6.1,2.5-8.7,3.6-2.6,1.1-6.2,2.2-10.8,3.4-4.2,1.1-8.6,2-13,2.7-4.5.6-9.9,1-16.4,1"/>
      <path id="path3" class="st1" d="M416.5,276.3h-39v-64c0-5.2-.2-10.4-.6-15.6-.4-5.2-1.1-9-2.3-11.4-1.3-2.9-3.2-5-5.8-6.3-2.5-1.3-5.9-1.9-10.1-1.9s-6.4.6-9.6,1.8c-3.3,1.2-6.7,3.2-10.4,5.9v91.4h-38.8v-129h38.8v14.2c6.4-5.6,12.5-10,18.6-13.1,6-3.1,12.7-4.7,20-4.7,12.7,0,22.4,4.2,29.2,12.5,6.7,8.3,10.1,20.4,10.1,36.1v84"/>
      <path id="path4" class="st1" d="M526.2,212.2c0-7.7-.6-14-1.8-19.1-1.2-5.1-2.9-9.2-5-12.2-2.3-3.2-4.9-5.5-7.8-6.7-2.9-1.3-6.2-1.9-9.9-1.9s-6.6.6-9.4,1.7c-2.8,1.1-5.4,3.2-7.7,6.4-2.2,3-4,7.1-5.3,12.3-1.3,5.2-2,11.8-2,19.6s.6,14.3,1.9,19.1c1.3,4.9,2.9,8.8,4.9,11.7,2.1,3,4.7,5.2,7.8,6.6,3.1,1.4,6.5,2.1,10.3,2.1s6.3-.7,9.5-2.1c3.2-1.4,5.8-3.4,7.7-6.2,2.3-3.3,4-7.3,5.2-11.9,1.2-4.6,1.8-11,1.8-19.2ZM566,211.9c0,21.2-5.6,37.9-16.8,50.1-11.2,12.2-27.1,18.3-47.6,18.3s-36.1-6.1-47.4-18.3c-11.3-12.2-16.9-28.9-16.9-50.1s5.6-38.2,16.9-50.4c11.3-12.1,27.1-18.2,47.4-18.2s36.3,6.1,47.5,18.3c11.2,12.2,16.9,29,16.9,50.3"/>
      <path id="path5" class="st1" d="M669.3,230.8c-1.2,4.6-2.9,8.6-5.2,11.9-1.9,2.8-4.5,4.8-7.7,6.2-3.2,1.4-6.4,2.1-9.5,2.1s-7.2-.7-10.3-2.1c-3.1-1.4-5.7-3.6-7.8-6.5-2-2.9-3.6-6.8-4.9-11.7-1.3-4.9-1.9-11.2-1.9-19.1s.7-14.4,2-19.6c1.3-5.2,3.1-9.3,5.3-12.3,2.4-3.1,5-5.3,7.8-6.4,2.8-1.1,5.9-1.7,9.4-1.7s7,.6,9.9,1.9c2.9,1.3,5.5,3.5,7.8,6.7,2.2,3.1,3.8,7.1,5.1,12.2,1.2,5.1,1.8,11.5,1.8,19.1s-.6,14.6-1.8,19.2h0ZM671,79.1v74.5c-5.6-3-14.6-7.4-19.4-8.6-4.3-1.1-9.5-2.1-16-2.1s-14,1.6-20.4,4.9c-6.4,3.3-11.9,7.7-16.4,13.3-1.1,1.3-2.1,2.7-3,4.2-8.9,11.7-13.4,27.1-13.4,46.2s5.6,37.9,16.9,50.1c11.3,12.2,27.1,18.3,47.4,18.3s36.3-6.1,47.5-18.3c10.9-11.8,16.6-27.9,16.9-48.2h0V79.1h-40"/>
      <path id="path6" class="st1" d="M87.1,230.8c-1.2,4.6-2.9,8.6-5.2,11.9-1.9,2.8-4.5,4.8-7.7,6.2-3.2,1.4-6.4,2.1-9.5,2.1s-7.2-.7-10.3-2.1c-3.1-1.4-5.7-3.6-7.8-6.5-2-2.9-3.6-6.8-4.9-11.7-1.3-4.9-1.9-11.2-1.9-19.1s.7-14.4,2-19.6c1.3-5.2,3.1-9.3,5.3-12.3,2.4-3.1,5-5.3,7.8-6.4,2.8-1.1,5.9-1.7,9.4-1.7s7,.6,9.9,1.9c2.9,1.3,5.5,3.5,7.8,6.7,2.1,3.1,3.8,7.1,5.1,12.2,1.2,5.1,1.8,11.5,1.8,19.1s-.6,14.6-1.8,19.2h0ZM88.7,79.1v74.5c-5.6-3-14.6-7.4-19.5-8.6-4.2-1.1-9.5-2.1-16-2.1s-14,1.6-20.4,4.9c-6.4,3.3-11.9,7.7-16.4,13.3-1.1,1.3-2.1,2.7-3.1,4.2-8.9,11.7-13.4,27.1-13.4,46.2s5.6,37.9,16.9,50.1c11.3,12.2,27.1,18.3,47.4,18.3s36.3-6.1,47.5-18.3c10.9-11.8,16.6-27.9,16.9-48.2h0V79.1h-40"/>
      <path id="path7" class="st1" d="M820.6,211.6c0-7.7-.6-14-1.8-19.1-1.2-5.1-2.9-9.2-5.1-12.2-2.3-3.2-4.9-5.5-7.8-6.7-2.9-1.3-6.2-1.9-9.9-1.9s-6.6.6-9.4,1.7c-2.8,1.1-5.4,3.2-7.8,6.4-2.2,3-4,7.1-5.3,12.3-1.3,5.2-2,11.7-2,19.6s.6,14.3,1.9,19.1c1.3,4.9,2.9,8.7,4.9,11.7,2.1,3,4.7,5.2,7.8,6.6,3.1,1.4,6.5,2.1,10.3,2.1s6.3-.7,9.5-2.1c3.2-1.4,5.8-3.4,7.7-6.2,2.3-3.3,4-7.3,5.2-11.9,1.2-4.6,1.8-11,1.8-19.2h0ZM860.5,211.3c0,21.2-5.6,37.9-16.8,50.1-11.2,12.2-27.1,18.3-47.5,18.3s-36.1-6.1-47.4-18.3c-11.3-12.2-16.9-28.9-16.9-50.1s5.6-38.2,16.9-50.4c11.3-12.1,27.1-18.2,47.4-18.2s36.2,6.1,47.5,18.3c11.2,12.2,16.9,29,16.9,50.3"/>
      <path id="path8" class="st0" d="M894.6,111.5l20,34.2-34.7,19.8-20-34.2,34.7-19.7"/>
      <path id="path9" class="st0" d="M936.6,158.2h40.1v39.6h-40.1v-39.6"/>
      <path id="path10" class="st0" d="M998.6,145.7l20-34.2,34.7,19.7-20,34.2-34.7-19.8"/>
      <path id="path11" class="st0" d="M1018.7,86.4l-20-34.3,34.7-19.8,20,34.3-34.7,19.8"/>
      <path id="path12" class="st1" d="M976.6,118.7h-40.1v-39.6h40.1v39.6"/>
      <path id="path13" class="st0" d="M976.6,39.6h-40.1V0h40.1v39.6"/>
      <path id="path14" class="st0" d="M914.6,52.1l-20,34.3-34.7-19.8,20-34.3,34.7,19.8"/>
    </g>
  </g>
</svg>