<?xml version="1.0" encoding="UTF-8"?>
<svg xmlns="http://www.w3.org/2000/svg" xmlns:svg="http://www.w3.org/2000/svg" xmlns:sodipodi="http://sodipodi.sourceforge.net/DTD/sodipodi-0.dtd" xmlns:rdf="http://www.w3.org/1999/02/22-rdf-syntax-ns#" xmlns:inkscape="http://www.inkscape.org/namespaces/inkscape" xmlns:dc="http://purl.org/dc/elements/1.1/" xmlns:cc="http://creativecommons.org/ns#" version="1.1" viewBox="0 0 770 162">
  <!-- Generator: Adobe Illustrator 29.0.1, SVG Export Plug-In . SVG Version: 2.1.0 Build 192)  -->
  <defs>
    <style>
      .st0 {
        fill: #fff;
      }
    </style>
  </defs>
  <g id="Capa_1" inkscape:version="0.92.4 (5da689c313, 2019-01-14)" sodipodi:docname="Logotipos_RGB_FondosEuropeos_Positivo_Castellano.svg">
    <sodipodi:namedview id="namedview53" bordercolor="#666666" borderopacity="1" gridtolerance="10" guidetolerance="10" inkscape:current-layer="Capa_1" inkscape:cx="385" inkscape:cy="81" inkscape:pageopacity="0" inkscape:pageshadow="2" inkscape:window-height="719" inkscape:window-maximized="0" inkscape:window-width="1100" inkscape:window-x="2290" inkscape:window-y="207" inkscape:zoom="0.45324675" objecttolerance="10" pagecolor="#ffffff" showgrid="false"/>
    <g id="g34">
      <path id="path6" class="st0" d="M252.1,111.2v-47.9h27.6v5.1h-21.5v16.2h18.3v5.1h-18.3v21.5h-6.1Z"/>
      <path id="path8" class="st0" d="M299.5,112c-2.9,0-5.6-.7-8.1-2.2s-4.5-3.6-6.1-6.3c-1.5-2.8-2.3-6.1-2.3-10s.8-7.4,2.3-10.2c1.5-2.8,3.5-4.9,6.1-6.3s5.2-2.2,8.1-2.2,5.6.7,8.1,2.2c2.5,1.5,4.5,3.6,6,6.3,1.5,2.8,2.3,6.2,2.3,10.2s-.8,7.2-2.3,10-3.5,4.9-6,6.3c-2.5,1.5-5.2,2.2-8.1,2.2ZM299.5,107.1c3.1,0,5.5-1.2,7.4-3.8s2.8-5.8,2.8-9.8-.9-7.4-2.8-9.9-4.4-3.8-7.4-3.8-5.5,1.3-7.4,3.8c-1.9,2.5-2.9,5.8-2.9,9.9s1,7.3,2.9,9.8c1.9,2.5,4.4,3.8,7.4,3.8Z"/>
      <path id="path10" class="st0" d="M323.8,111.2v-35.5h5l.5,5.1h.2c1.7-1.7,3.5-3.1,5.4-4.3,1.9-1.1,4.1-1.7,6.5-1.7,3.8,0,6.5,1.2,8.2,3.5s2.6,5.8,2.6,10.3v22.5h-6v-21.7c0-3.3-.5-5.7-1.6-7.2-1.1-1.5-2.8-2.3-5.1-2.3s-3.4.5-4.9,1.4c-1.4.9-3.1,2.3-4.9,4.1v25.7h-6,0Z"/>
      <path id="path12" class="st0" d="M374.6,112c-4.4,0-8-1.6-10.7-4.9-2.7-3.2-4-7.8-4-13.7s.7-7.2,2.1-10c1.4-2.8,3.3-4.9,5.7-6.5,2.4-1.5,4.9-2.3,7.6-2.3s3.8.4,5.3,1.1c1.5.7,3,1.7,4.6,3l-.3-6.1v-13.7h6.1v52h-5l-.5-4.2h-.2c-1.4,1.4-3,2.5-4.8,3.5s-3.8,1.5-5.9,1.5h0ZM376,107c3.1,0,6.1-1.6,9.1-4.9v-18.5c-1.5-1.4-3-2.3-4.4-2.9s-2.8-.8-4.3-.8-3.6.6-5.1,1.7c-1.5,1.1-2.8,2.7-3.7,4.8s-1.4,4.4-1.4,7.1c0,4.2.9,7.6,2.6,10,1.7,2.4,4.1,3.6,7.2,3.6h0Z"/>
      <path id="path14" class="st0" d="M415.5,112c-2.9,0-5.6-.7-8.1-2.2s-4.5-3.6-6.1-6.3c-1.5-2.8-2.3-6.1-2.3-10s.8-7.4,2.3-10.2c1.5-2.8,3.5-4.9,6.1-6.3s5.2-2.2,8.1-2.2,5.6.7,8.1,2.2c2.5,1.5,4.5,3.6,6,6.3,1.5,2.8,2.3,6.2,2.3,10.2s-.8,7.2-2.3,10-3.5,4.9-6,6.3c-2.5,1.5-5.2,2.2-8.1,2.2ZM415.5,107.1c3.1,0,5.5-1.2,7.4-3.8s2.8-5.8,2.8-9.8-.9-7.4-2.8-9.9-4.4-3.8-7.4-3.8-5.5,1.3-7.4,3.8c-1.9,2.5-2.9,5.8-2.9,9.9s1,7.3,2.9,9.8c1.9,2.5,4.4,3.8,7.4,3.8Z"/>
      <path id="path16" class="st0" d="M448.8,112c-2.5,0-4.9-.5-7.2-1.4s-4.3-2.1-6-3.5l3-4c1.6,1.2,3.2,2.2,4.8,3,1.6.8,3.5,1.2,5.6,1.2s4.1-.6,5.3-1.6c1.2-1.1,1.8-2.4,1.8-3.9s-.4-2.2-1.2-3.1c-.8-.8-1.8-1.5-3.1-2.1-1.2-.6-2.5-1.1-3.8-1.6-1.7-.6-3.3-1.3-4.9-2.2-1.6-.8-2.9-1.8-3.9-3.1s-1.5-2.9-1.5-4.9c0-2.9,1.1-5.3,3.2-7.2,2.2-1.9,5.2-2.9,9-2.9s4.2.4,6.1,1.2c1.9.8,3.5,1.7,4.9,2.8l-2.9,3.8c-1.2-.9-2.5-1.7-3.8-2.3-1.3-.6-2.8-.9-4.3-.9-2.2,0-3.9.5-4.9,1.5s-1.6,2.2-1.6,3.6.4,2,1.1,2.7,1.7,1.3,2.9,1.8c1.2.5,2.4,1,3.7,1.6,1.7.6,3.4,1.3,5,2.2,1.6.8,3,1.9,4.1,3.2,1.1,1.3,1.6,3.1,1.6,5.4s-.5,3.7-1.5,5.3-2.5,2.9-4.4,3.9-4.3,1.5-7.1,1.5h0Z"/>
      <path id="path18" class="st0" d="M486.1,111.2v-47.9h27.6v5.1h-21.5v15.1h18.2v5.2h-18.2v17.4h22.3v5.2h-28.3Z"/>
      <path id="path20" class="st0" d="M531.8,112c-3.8,0-6.5-1.2-8.2-3.5s-2.6-5.8-2.6-10.3v-22.5h6.1v21.7c0,3.3.5,5.7,1.6,7.2s2.7,2.3,5.1,2.3,3.5-.5,4.9-1.4,3-2.5,4.6-4.6v-25.2h6v35.5h-5l-.5-5.6h-.2c-1.7,1.9-3.4,3.5-5.3,4.7-1.8,1.2-4,1.8-6.4,1.8h0Z"/>
      <path id="path22" class="st0" d="M559.2,111.2v-35.5h5l.5,6.4h.2c1.2-2.2,2.7-4,4.5-5.3,1.8-1.3,3.6-2,5.6-2s2.7.2,3.8.7l-1.2,5.3c-.6-.2-1.1-.3-1.6-.4-.5,0-1.1-.2-1.8-.2-1.5,0-3.1.6-4.7,1.8s-3.1,3.3-4.3,6.3v22.8h-6,0Z"/>
      <path id="path24" class="st0" d="M596.9,112c-2.9,0-5.6-.7-8.1-2.2s-4.5-3.6-6.1-6.3c-1.5-2.8-2.3-6.1-2.3-10s.8-7.4,2.3-10.2c1.5-2.8,3.5-4.9,6.1-6.3s5.2-2.2,8.1-2.2,5.6.7,8.1,2.2c2.5,1.5,4.5,3.6,6,6.3,1.5,2.8,2.3,6.2,2.3,10.2s-.8,7.2-2.3,10c-1.5,2.8-3.5,4.9-6,6.3-2.5,1.5-5.2,2.2-8.1,2.2ZM596.9,107.1c3.1,0,5.5-1.2,7.4-3.8s2.8-5.8,2.8-9.8-.9-7.4-2.8-9.9-4.3-3.8-7.4-3.8-5.5,1.3-7.4,3.8c-1.9,2.5-2.8,5.8-2.8,9.9s1,7.3,2.8,9.8c1.9,2.5,4.4,3.8,7.4,3.8Z"/>
      <path id="path26" class="st0" d="M621.2,126.1v-50.5h5l.5,4.1h.2c1.6-1.4,3.4-2.5,5.3-3.5,1.9-1,3.9-1.5,6-1.5,4.6,0,8.1,1.6,10.4,4.9,2.4,3.3,3.6,7.7,3.6,13.2s-.7,7.4-2.2,10.3c-1.4,2.9-3.3,5.1-5.6,6.6s-4.8,2.3-7.6,2.3-3.3-.4-4.9-1.1c-1.6-.7-3.3-1.7-4.9-3l.2,6.2v12h-6ZM635.8,107c2.9,0,5.3-1.2,7.3-3.8,1.9-2.5,2.9-5.9,2.9-10.3s-.7-7.1-2.2-9.5c-1.4-2.4-3.8-3.6-7.2-3.6s-3,.4-4.6,1.2c-1.5.8-3.2,2-4.9,3.6v18.6c1.6,1.4,3.2,2.3,4.7,2.9,1.5.6,2.8.8,4,.8h0Z"/>
      <path id="path28" class="st0" d="M675.2,112c-3.2,0-6-.7-8.6-2.2-2.6-1.5-4.6-3.6-6.1-6.4-1.5-2.8-2.3-6.1-2.3-9.9s.8-7.2,2.3-10c1.5-2.8,3.5-4.9,6-6.4s5-2.3,7.7-2.3c4.5,0,8,1.5,10.5,4.5,2.5,3,3.7,7.1,3.7,12.1s0,1.2,0,1.9c0,.6,0,1.1-.2,1.6h-24c.2,3.8,1.4,6.7,3.5,9,2.1,2.2,4.9,3.4,8.3,3.4s3.3-.3,4.7-.8c1.4-.5,2.8-1.2,4.1-2l2.1,3.9c-1.5,1-3.2,1.8-5.2,2.6-1.9.7-4.1,1.1-6.5,1.1h0ZM664,90.6h19c0-3.6-.8-6.3-2.3-8.2-1.5-1.9-3.7-2.8-6.5-2.8s-4.7,1-6.7,2.9-3.2,4.6-3.5,8.1h0Z"/>
      <path id="path30" class="st0" d="M710.2,112c-2.9,0-5.6-.7-8.1-2.2s-4.5-3.6-6.1-6.3c-1.5-2.8-2.3-6.1-2.3-10s.8-7.4,2.3-10.2c1.5-2.8,3.5-4.9,6.1-6.3s5.2-2.2,8.1-2.2,5.6.7,8.1,2.2c2.5,1.5,4.5,3.6,6,6.3,1.5,2.8,2.3,6.2,2.3,10.2s-.8,7.2-2.3,10c-1.5,2.8-3.5,4.9-6,6.3-2.5,1.5-5.2,2.2-8.1,2.2ZM710.2,107.1c3.1,0,5.5-1.2,7.4-3.8s2.8-5.8,2.8-9.8-.9-7.4-2.8-9.9-4.3-3.8-7.4-3.8-5.5,1.3-7.4,3.8c-1.9,2.5-2.8,5.8-2.8,9.9s1,7.3,2.8,9.8c1.9,2.5,4.4,3.8,7.4,3.8Z"/>
      <path id="path32" class="st0" d="M743.5,112c-2.5,0-4.9-.5-7.2-1.4s-4.3-2.1-6-3.5l3-4c1.6,1.2,3.2,2.2,4.8,3,1.7.8,3.5,1.2,5.6,1.2s4.1-.6,5.3-1.6c1.2-1.1,1.8-2.4,1.8-3.9s-.4-2.2-1.2-3.1-1.8-1.5-3.1-2.1c-1.2-.6-2.5-1.1-3.8-1.6-1.7-.6-3.3-1.3-4.9-2.2-1.6-.8-2.9-1.8-3.9-3.1s-1.5-2.9-1.5-4.9c0-2.9,1.1-5.3,3.2-7.2,2.2-1.9,5.2-2.9,9-2.9s4.2.4,6.1,1.2c1.9.8,3.5,1.7,4.9,2.8l-2.9,3.8c-1.2-.9-2.5-1.7-3.8-2.3-1.3-.6-2.8-.9-4.3-.9-2.2,0-3.9.5-4.9,1.5s-1.6,2.2-1.6,3.6.4,2,1.1,2.7,1.7,1.3,2.8,1.8c1.2.5,2.4,1,3.7,1.6,1.7.6,3.4,1.3,5,2.2,1.7.8,3,1.9,4.1,3.2,1.1,1.3,1.6,3.1,1.6,5.4s-.5,3.7-1.5,5.3-2.5,2.9-4.4,3.9-4.3,1.5-7.1,1.5h0Z"/>
    </g>
    <g id="g50">
      <g id="g42">
        <path id="path36" class="st0" d="M212.7,53.7h-83.9c-2,0-3.5,1.9-3,3.9l2.8,11.4c.5,2-1,3.9-3,3.9h-58.2c-.7,0-1.3-.5-1.5-1.2l-4-16c-.2-1,.5-2,1.5-2h52.6c2,0,3.5-1.9,3-3.9l-2.8-11.4c-.5-2,1-3.9,3-3.9h89.5c.7,0,1.4.5,1.5,1.2l4,16c.2,1-.5,2-1.5,2h0Z"/>
        <path id="path38" class="st0" d="M212.7,92h-64.8c-2,0-3.5,1.9-3,3.9l2.8,11.4c.5,2-1,3.9-3,3.9h-77.3c-.7,0-1.3-.5-1.5-1.2l-4-16c-.2-1,.5-1.9,1.5-1.9h71.7c2,0,3.5-1.9,3-3.9l-2.9-11.4c-.5-2,1-3.9,3-3.9h70.4c.7,0,1.4.5,1.5,1.2l4,16c.2,1-.5,1.9-1.5,1.9h0Z"/>
        <path id="path40" class="st0" d="M212.7,130.3h-45.6c-2,0-3.5,1.9-3,3.9l2.6,10.6c.6,2.4-1.2,4.7-3.7,4.7h-95.6c-.7,0-1.3-.5-1.5-1.2l-4-16c-.2-1,.5-1.9,1.5-1.9h90.9c2,0,3.5-1.9,3-3.9l-2.9-11.4c-.5-2,1-3.9,3-3.9h51.2c.7,0,1.4.5,1.5,1.2l4,16c.2,1-.5,1.9-1.5,1.9h0Z"/>
      </g>
      <polygon id="polygon44" class="st0" points="13.5 53.6 23.7 61 19.7 73 29.9 65.5 40.1 72.9 36.1 61 46.2 53.6 33.8 53.6 30 41.8 26.1 53.6 13.5 53.6"/>
      <polygon id="polygon46" class="st0" points="33 21.9 41.2 27.8 38 37.4 46.1 31.5 54.3 37.4 51.1 27.8 59.2 22 49.2 22 46.2 12.5 43.1 22 33 21.9"/>
      <polygon id="polygon48" class="st0" points="68.6 22 75.2 26.7 72.6 34.4 79.2 29.6 85.7 34.3 83.1 26.7 89.6 22 81.6 22 79.2 14.4 76.7 22 68.6 22"/>
    </g>
  </g>
</svg>