<?xml version="1.0" encoding="UTF-8"?>
<svg id="svg1" xmlns="http://www.w3.org/2000/svg" xmlns:svg="http://www.w3.org/2000/svg" xmlns:sodipodi="http://sodipodi.sourceforge.net/DTD/sodipodi-0.dtd" xmlns:inkscape="http://www.inkscape.org/namespaces/inkscape" version="1.1" viewBox="0 0 3851 1813">
  <!-- Generator: Adobe Illustrator 29.0.1, SVG Export Plug-In . SVG Version: 2.1.0 Build 192)  -->
  <defs>
    <style>
      .st0 {
        fill: #eb2028;
      }

      .st1 {
        fill: #fff;
      }
    </style>
  </defs>
  <sodipodi:namedview id="namedview1" bordercolor="#000000" borderopacity="0.25" inkscape:current-layer="svg1" inkscape:cx="1952.0085" inkscape:cy="1067.3263" inkscape:deskcolor="#d1d1d1" inkscape:pagecheckerboard="0" inkscape:pageopacity="0.0" inkscape:showpageshadow="2" inkscape:window-height="890" inkscape:window-maximized="0" inkscape:window-width="1472" inkscape:window-x="0" inkscape:window-y="38" inkscape:zoom="0.087602079" pagecolor="#ffffff"/>
  <g id="LogoGradiant">
    <g id="LogoGradiant-2">
      <path id="Trazado_8346" class="st0" d="M3050.8,10.9c-3.5,27-6.9,47.7-8.8,68.6-8.4,94.6,33.3,165.9,105.4,222.2,67.1,52.4,145.8,78.5,227,99,106.8,26.9,209.9,62.9,298.7,130.9,65,48.7,113.1,116.6,137.7,194-40.7-20.8-86.3-30.2-132-27.2-75.4,6.3-148.5,29-214.3,66.3-77,41.6-151.6,87.8-225.7,134.3-93.9,58.9-192.9,104.2-303.5,118.3-103,13.1-199.9,0-277-79.4-2.9-3-5.3-6.6-9.2-11.5,3.6-1.5,7.4-2.5,11.2-3,100.5,3.7,157-59.5,184.1-135.9,30.8-86.8,32.2-176.9,30.1-267.4-2.8-120.6.2-240.4,52.3-352.6,28.3-61.2,70.8-114.9,123.9-156.5Z"/>
      <path id="Trazado_8347" class="st1" d="M452.1,1158.1v-77.9h114.7v468.1c0,138.9-79.9,230.1-219.1,250.2-95,13.7-205.4-13-274.3-68,15.5-26.3,31.4-53,48.2-81.6,53.8,38.5,110.8,59.3,175.9,57.2,97.1-3.2,154.4-60.7,154.4-158v-50.5c-32,39.5-65.8,64.3-108.7,75.3-158.4,40.4-297.3-64.2-302.8-228-2.8-83.2,16.1-158.1,80.4-216.5,73-66.3,240.1-87.5,331.2,29.7ZM452,1327.9c-.2-95-61.3-159.8-150.7-159.8-89,0-154.3,69-153.1,161.8,1.2,93.7,64.1,159.8,152.3,160.1,89.7.4,151.7-65.9,151.5-162.2h0Z"/>
      <path id="Trazado_8348" class="st1" d="M1963,1160.4v-289.4h113.3v732.5h-112.4v-77.1c-3.7,1.8-7.3,3.9-10.5,6.5-118,133.5-340.3,94.5-406.5-72.3-30.2-73.9-31.2-156.5-2.8-231.2,63.2-171.4,287.5-212.3,409.9-75.4,2.8,2.4,5.8,4.6,9,6.5ZM1963,1343.6c-.4-102-66.3-171.4-162.4-171.1-94.2.3-161.7,73.4-160.5,173.8,1.1,98.8,69.6,169.9,163,169.2,93.5-.7,160.3-72.5,159.9-171.9h0Z"/>
      <path id="Trazado_8349" class="st1" d="M2822.4,1604.3h-110.4c-.8-18.2-1.6-35.2-2.5-56.9-58.1,57.4-127.5,68.4-201.2,62.4-111.4-9.1-181.3-105.6-151.1-208.5,19.1-65,68.9-94.7,131-106.5,27.7-4.4,55.6-6.4,83.7-6.2,44.6-.9,89.2-.2,133.4-.2,13.9-47.1-12.8-96.6-59.8-110.8-65.2-22-126.1-6.3-184.6,24.2-10.8,5.6-21.1,12.1-32.7,18.8-15.6-26.5-30.6-51.9-46.3-78.6,61.7-41.6,127.5-66.3,200-66.8,40.2-1,80.3,3.5,119.2,13.1,75.9,20.6,119,77.5,121.1,159.1,3,115.6,1.8,231.2,2.4,346.9-.4,3.4-1.1,6.8-2.1,10.1ZM2707.7,1376.3c-63.1,0-124.5-3.2-185.4,1.1-42.8,3-61.2,26.1-62.6,61-1.5,37.4,19.4,69.6,59.1,75.1,35.1,5.3,71,3.8,105.5-4.5,67.4-17.9,92.3-62.4,83.4-132.7h0Z"/>
      <path id="Trazado_8350" class="st1" d="M1342.1,1288.4c11.2-68.8-31.9-116.7-104.4-120.2-58.9-2.8-84.2,4.6-174.5,51.9l-45.9-78.1c61.9-42.2,128.5-66.9,201.8-66.8,41-.6,81.9,4.3,121.5,14.7,71.8,20.5,114.8,77.3,116.1,151.6,2.1,119.9.6,239.9.6,362h-110.7v-57.7c-59.3,58.8-128.7,71.1-202.1,63.9-152.5-15.1-185-152.7-139.9-236.7,32.6-60.7,91.5-79,154.8-83.1,51.5-3.3,103.4-1.3,155.1-1.6,9.4,0,18.8,0,27.5,0ZM1343,1378.6c-65.6,0-131.3-4.7-195.9,1.5-49.4,4.7-69.9,63.5-39.2,102.7,13.1,14.9,30.1,25.9,49.1,31.8,36.9,12.4,74.5,6.1,110.6-7.1,61.1-22.4,85.4-65.4,75.3-128.9h0Z"/>
      <path id="Trazado_8351" class="st1" d="M3416.6,1604.6h-112.8c-.5-10-1.5-19.2-1.5-28.4-.1-84.1-.2-168.3,0-252.5,0-82.8-35-130.8-101.5-139.5-82-10.8-149.9,33.9-168.9,111.9-3.4,14.5-5.1,29.3-5.2,44.2-.5,78-.2,156-.2,234.1v29.8h-113.8v-448.6c26.8-3.5,55.3-3.5,81.5-11.3,56-16.8,111.1-36.9,166.1-56.9,80.5-29.2,170.4-6.4,218.3,57.5,25.9,35.8,39.2,79.2,37.9,123.5.3,111.2,0,222.4,0,336.3Z"/>
      <path id="Trazado_8352" class="st1" d="M3793.6,1183.1h-149.4c-2.1,3.9-4.4,6.1-4.4,8.3,0,85-1.4,170,1.1,254.9,1.5,51.5,25.4,68.3,76.1,58.4,20-5,39.7-11.1,59-18.2,9.2,28,18.3,56,28.1,86-61.3,36-124.9,52.5-193.3,27.5-58.1-21.2-82.9-68.5-84.3-127.3-2.1-85.8-1-171.7-1.3-257.6v-30.5h-71.8v-84.6h70.5v-144.7h115.5v143.9h154.3v84Z"/>
      <path id="Trazado_8353" class="st1" d="M774.7,1604h-111.7v-523.3h111.2v87.9c45.5-62,103.6-93.8,181-94.1v107.1c-5.3,1-10.7,1.7-16.1,2.2-103.3,4.5-164.2,68.2-164.4,172.2-.1,72.7-.1,145.5,0,218.2v29.8Z"/>
      <path id="Trazado_8354" class="st1" d="M2280.3,1604.6h-110.9v-524h110.9v524Z"/>
    </g>
    <path id="Trazado_8355" class="st1" d="M2223.9,996.9c-38.4-2-67.8-34.8-65.8-73.1,1.9-36,31-64.6,67.1-65.9,37.6.1,67.9,30.7,67.8,68.3,0,1.1,0,2.2,0,3.3.3,37-29.4,67.2-66.4,67.5-.8,0-1.7,0-2.5,0Z"/>
  </g>
</svg>