<?xml version="1.0" encoding="UTF-8"?>
<svg id="Layer_1" xmlns="http://www.w3.org/2000/svg" version="1.1" viewBox="0 0 261 80">
  <!-- Generator: Adobe Illustrator 29.0.1, SVG Export Plug-In . SVG Version: 2.1.0 Build 192)  -->
  <defs>
    <style>
      .st0 {
        fill: #fff;
      }
    </style>
  </defs>
  <path class="st0" d="M0,40v40h261V0H0v40ZM25,26.5v10.5h6V16h6v47h-6v-21h-5.9l-.3,10.2-.3,10.3h-6l-.3-23.3-.2-23.2h7v10.5ZM66.3,20c1.5,3,1.7,6,1.5,23l-.3,19.5h-6v-20.5h-6.5v21.1l-2.7-.3-2.8-.3v-21.1c0-19.6.1-21.4,1.9-23.3,1.7-1.8,2.9-2.1,7.5-1.9,5.3.3,5.7.5,7.4,3.8ZM95.9,18.6c3.1,3.9,3,15.5,0,18.5s-1.7,2.4-1.2,2.8c2.2,1.4,3.3,5.3,3.3,11.6s-.3,6.9-2.5,9c-2.1,2.2-3.3,2.5-9,2.5h-6.5V16h6.9c6.3,0,7.1.2,9,2.6ZM126.6,18.1c1.7,1.9,1.9,3.9,1.9,23.3v21.1l-2.7.3-2.8.3v-21.1h-5.9l-.3,10.2-.3,10.3h-6v-20.5c0-25,.3-26,8.9-26s5.7.5,7.2,2.1ZM160,18.2c0,1.3-2.9,10.4-6.3,20.3l-6.3,18,6.4.3c6.2.3,6.3.3,6,3s-.3,2.7-9.5,3l-9.3.3v-3.2c0-1.8,2.7-11.1,6-20.6,3.3-9.6,6-17.6,6-17.9s-2.7-.4-6-.4c-5.7,0-6-.1-6-2.5s0-2.5,9.5-2.5,9.5.1,9.5,2.2ZM180.8,39.2l-.3,23.3h-5.6v-23c0-12.7.1-23.1.1-23.3s1.4-.2,3-.2h3l-.2,23.2ZM212.7,18.6c2.5,3.9,2.8,12.1.6,16.4-1.7,3.4-1.7,3.6,0,5.3s1.7,3.2,1.5,12l-.3,10.2h-6l-.5-10-.5-10-2.7-.3-2.8-.3v21.1h-6V16h7.5c6.9,0,7.6.2,9.2,2.6ZM242.9,18.6c1.9,2.5,2.1,4,2.1,20.1s-.9,24.3-9.6,24.3-4.3-.8-5.9-2.5c-2.5-2.4-2.5-2.6-2.5-20.5s.5-24,9.2-24,5,.5,6.7,2.6Z"/>
  <path class="st0" d="M55.9,23.7c-.5,1.5-.9,5-.7,7.7.3,4.9.4,5.1,3.2,5.1h3l-.3-6.5c-.4-8.7-3-12-5.2-6.3Z"/>
  <path class="st0" d="M86,29c0,6.3.3,8,1.4,8,2.9,0,4.6-3,4.6-8.4s-1.2-7.6-4.2-7.6-1.8,1-1.8,8Z"/>
  <path class="st0" d="M86,49.4c0,6.8.2,7.6,1.9,7.6,3.1,0,4.2-2.4,3.9-8.7-.3-5.5-.4-5.8-3-6.1l-2.8-.3v7.5Z"/>
  <path class="st0" d="M118.2,22.3c-.6.6-1.2,4.1-1.3,7.7l-.3,6.5h3c2.8,0,2.9-.1,3.2-5.7.4-7.7-1.8-11.9-4.6-8.5Z"/>
  <path class="st0" d="M202,28.5c0,5.8.3,7.7,1.5,8.1,2.9,1.1,4.5-1.6,4.5-7.5s-1.1-8.1-4.2-8.1-1.8.9-1.8,7.5Z"/>
  <path class="st0" d="M234.2,22.2c-1.5,1.5-1.7,31.5-.2,33.8.7,1.2,1.3,1.2,2.7.4,1.6-1,1.8-3,2.1-16.9.2-10.7-.1-16.2-.9-17.1-1.4-1.7-2.2-1.7-3.7-.2Z"/>
</svg>