<?xml version="1.0" encoding="utf-8"?>
<!-- Generator: Adobe Illustrator 27.9.0, SVG Export Plug-In . SVG Version: 6.00 Build 0)  -->
<svg version="1.1" id="Layer_1" xmlns="http://www.w3.org/2000/svg" xmlns:xlink="http://www.w3.org/1999/xlink" x="0px" y="0px"
	 viewBox="0 0 140 18" style="enable-background:new 0 0 140 18;" xml:space="preserve">
<style type="text/css">
	.st0{fill:#FFFFFF;}
</style>
<path class="st0" d="M84.4,0.4h13.2v1.4h-5.8V17h-1.6V1.7h-5.8V0.4z"/>
<path class="st0" d="M98.4,0.4H110v1.4H100v6h9.3v1.4H100v6.6h10.1V17H98.4V0.4z"/>
<path class="st0" d="M118.7,0c3.3,0,6.3,2,6.7,5.4h-1.6c-0.6-2.5-2.7-4-5.1-4c-4.4,0-6.3,3.6-6.3,7.3c0,3.6,1.8,7.3,6.3,7.3
	c2.9,0,5-2.2,5.4-5.4h1.6c-0.4,4.2-3.1,6.7-6.9,6.7c-5.2,0-7.9-4-7.9-8.7C110.8,4.2,113.4,0,118.7,0z"/>
<path class="st0" d="M126.9,0.4h1.6v7.2h9.9V0.4h1.6V17h-1.6V9h-9.9V17h-1.6V0.4z"/>
<path class="st0" d="M3,0.3H0V17h3L3,0.3z"/>
<path class="st0" d="M19.2,0.3h-3v11.6L7.6,0.3h-3V17h3V5.5L16.2,17h3L19.2,0.3z"/>
<path class="st0" d="M27.2,0.3h-6.5V17h6.5c2.2,0,4.3-0.9,5.9-2.4c1.6-1.6,2.4-3.7,2.4-5.9c0-2.2-0.9-4.3-2.4-5.9
	C31.6,1.2,29.4,0.3,27.2,0.3z M32.1,10.7c-0.3,0.6-0.7,1.2-1.1,1.7c-0.5,0.5-1.1,0.9-1.7,1.1c-0.6,0.3-1.3,0.4-2,0.4h-3.4V3.4h3.4
	c0.7,0,1.4,0.1,2,0.4c0.6,0.3,1.2,0.7,1.7,1.1c0.5,0.5,0.9,1.1,1.1,1.7c0.3,0.6,0.4,1.3,0.4,2C32.5,9.4,32.4,10.1,32.1,10.7z"/>
<path class="st0" d="M39.7,0.3h-3V17h3L39.7,0.3z"/>
<path class="st0" d="M54.6,0.3H41.3v3.1h5.1V17h3V3.4h5.1L54.6,0.3z"/>
<path class="st0" d="M67.7,14h-8.5v-3.8h8.5V7.2h-8.5V3.4h8.5v-3H56.1V17h11.6V14z"/>
<path class="st0" d="M78,8.5l5.4-8.2h-3.8l-3.5,5.4l-3.5-5.4h-3.8l5.4,8.2L68.7,17h3.8l3.6-5.7l3.6,5.7h3.8L78,8.5z"/>
</svg>
