<?xml version="1.0" encoding="UTF-8"?>
<svg id="Layer_2" data-name="Layer 2" xmlns="http://www.w3.org/2000/svg" viewBox="0 0 2000.86 306.68">
  <defs>
    <style>
      .cls-1 {
        fill: #ffd230;
      }

      .cls-2 {
        fill: #ffd54f;
      }
    </style>
  </defs>
  <g id="Layer_1-2" data-name="Layer 1">
    <g id="logo_h">
      <g id="iso">
        <path class="cls-2" d="M90.13,306.68c-1.67,0-3.17-.86-4.02-2.31L.64,159.01c-.84-1.43-.85-3.22-.03-4.67L86.51,2.38c.81-1.46,2.37-2.38,4.07-2.38h169.08c1.66,0,3.21.89,4.05,2.33l85.67,147.79c.82,1.42.82,3.2.01,4.64-.85,1.48-2.37,2.36-4.07,2.36h-140.56v71.96h38.42c2.57,0,4.67,2.09,4.67,4.67v24.91c0,2.57-2.09,4.67-4.67,4.67H109.07c-2.57,0-4.67-2.09-4.67-4.67v-24.18c0-2.57,2.09-4.67,4.67-4.67h31.66v-98.9c0-1.49.71-2.9,1.91-3.78l7.08-5.15v-23.48c0-1.37.6-2.67,1.64-3.55l6.23-5.33v-26.01c0-2.57,2.09-4.67,4.67-4.67s4.67,2.09,4.67,4.67v7.32l4.68-3.91c.83-.7,1.91-1.09,3.01-1.09.16,0,.31,0,.47.02,1.27.13,2.4.75,3.19,1.76l8.24,10.48c.64.79,1,1.83,1,2.9v8.78l6.41,4.42c1.26.86,2.01,2.3,2.01,3.85v23.25c2.18,1.51,3.54,4.04,3.54,6.75,0,4.53-3.68,8.21-8.21,8.21s-8.21-3.68-8.21-8.21c0-2.61,1.25-5.08,3.35-6.59.06-.05.12-.09.19-.14v-20.8l-6.41-4.42c-1.25-.82-2.01-2.27-2.01-3.85v-9.62l-4.27-5.43-6.99,5.82v8.67c0,1.37-.6,2.67-1.64,3.55l-6.23,5.33v23.7c0,1.49-.71,2.9-1.91,3.78l-7.08,5.15v101.21c0,2.57-2.09,4.67-4.67,4.67h-31.66v14.82h124.78v-15.58h-38.42c-2.57,0-4.67-2.09-4.67-4.67v-81.29c0-2.57,2.09-4.67,4.67-4.67h137.13L256.99,9.36H93.33L10.08,156.62l82.7,140.73h164.51l7.88-13.15H111.6c-.15.21-.3.41-.47.61-1.54,1.85-3.83,2.92-6.26,2.92-4.53,0-8.21-3.68-8.21-8.21s3.68-8.21,8.21-8.21c2.71,0,5.24,1.36,6.75,3.54h161.83c1.67,0,3.23.91,4.06,2.37.84,1.47.82,3.27-.06,4.72l-13.48,22.47c-.84,1.41-2.38,2.28-4.01,2.28H90.13Z"/>
        <path id="path40" class="cls-2" d="M347.78,153.85c-.51.89-1.43,1.41-2.45,1.41h-142.42v75.68h40.28c1.54,0,2.81,1.26,2.81,2.81v24.91c0,1.54-1.26,2.81-2.81,2.81H109.07c-1.54,0-2.81-1.26-2.81-2.81v-24.18c0-1.54,1.26-2.81,2.81-2.81h33.52v-100.76c0-.9.43-1.75,1.15-2.28l7.83-5.71v-24.42c0-.83.36-1.6.98-2.13l6.89-5.89v-26.87c0-1.54,1.26-2.81,2.81-2.81s2.81,1.26,2.81,2.81v11.3l7.74-6.46c.58-.49,1.34-.72,2.11-.64.75.08,1.43.45,1.9,1.05l8.25,10.49c.4.49.6,1.11.6,1.75v9.75l7.21,4.97c.77.53,1.21,1.39,1.21,2.32v24.31c2.09,1.02,3.54,3.18,3.54,5.69,0,3.5-2.84,6.35-6.35,6.35s-6.35-2.82-6.35-6.35c0-2.09,1.02-3.95,2.58-5.08.3-.23.62-.41.96-.58v-22.84l-7.21-4.97c-.77-.51-1.21-1.37-1.21-2.32v-10.26l-5.86-7.44-9.13,7.61v9.55c0,.83-.36,1.6-.98,2.13l-6.89,5.89v24.56c0,.9-.43,1.75-1.15,2.28l-7.83,5.71v102.16c0,1.56-1.24,2.81-2.81,2.81h-33.52v18.55h128.5v-19.3h-40.28c-1.54,0-2.81-1.26-2.81-2.81v-81.29c0-1.54,1.26-2.81,2.81-2.81h140.37L258.06,7.49H92.24L7.93,156.63l83.78,142.57h166.64l10.11-16.87H110.54c-.23.45-.51.89-.83,1.26-1.15,1.37-2.88,2.26-4.84,2.26-3.5,0-6.35-2.84-6.35-6.35s2.82-6.35,6.35-6.35c2.5,0,4.67,1.45,5.69,3.54h162.89c1.02,0,1.94.55,2.45,1.43.51.89.49,1.96-.04,2.82l-13.48,22.48c-.51.85-1.43,1.37-2.41,1.37H90.13c-1,0-1.9-.53-2.41-1.39L2.24,158.07c-.51-.87-.51-1.94-.02-2.81L88.13,3.29c.49-.89,1.43-1.43,2.45-1.43h169.08c1,0,1.94.55,2.45,1.41l4.69,8.08,80.98,139.7c.49.85.49,1.92,0,2.79h0Z"/>
        <path class="cls-2" d="M303.8,137.2c-2.19,0-4.26-.86-5.8-2.41s-2.4-3.62-2.4-5.81c0-1.18.25-2.33.74-3.39l-55.81-94.16H100.83c-2.57,0-4.67-2.09-4.67-4.67s2.09-4.67,4.67-4.67h142.36c1.66,0,3.2.88,4.02,2.31l57.17,96.41c4.26.29,7.64,3.85,7.64,8.19s-3.68,8.21-8.21,8.21h0Z"/>
        <path id="path51" class="cls-2" d="M310.15,128.99c0,3.5-2.82,6.35-6.35,6.35-3.51,0-6.35-2.85-6.34-6.36,0-1.22.35-2.41,1.01-3.44l-56.89-95.98H100.83c-1.54,0-2.81-1.26-2.81-2.81s1.26-2.81,2.81-2.81h142.36c1,0,1.92.53,2.41,1.37l57.72,97.34c.17-.02.32-.02.49-.02,3.5,0,6.35,2.84,6.35,6.35h0Z"/>
        <path class="cls-2" d="M31.87,159.95c-1.25,0-2.43-.5-3.31-1.39-.88-.89-1.36-2.07-1.35-3.32,0-.81.22-1.61.63-2.32l63.32-106.79c.85-1.41,2.39-2.29,4.03-2.29h128.84c1.52-2.2,4.01-3.52,6.74-3.52,4.52,0,8.18,3.62,8.23,8.07v.12c0,4.51-3.69,8.19-8.21,8.19-2.74,0-5.22-1.33-6.74-3.52h-126.2l-61.96,104.48c-.81,1.4-2.35,2.29-4.01,2.29h-.01Z"/>
        <path id="path61" class="cls-2" d="M237.14,48.49c0,3.51-2.85,6.35-6.36,6.34-2.41,0-4.6-1.36-5.68-3.52H96.8l-62.5,105.4c-.51.89-1.45,1.37-2.41,1.37-1.56,0-2.82-1.28-2.81-2.84,0-.49.13-.97.38-1.4l63.31-106.77c.51-.85,1.43-1.37,2.43-1.37h129.9c1.07-2.16,3.28-3.52,5.69-3.52,3.48-.04,6.33,2.75,6.36,6.23,0,.03,0,.05,0,.08h0Z"/>
        <path class="cls-2" d="M97.55,227.83c-4.53,0-8.21-3.69-8.21-8.21,0-.94.16-1.87.48-2.76l-35.75-55.3c-.95-1.49-1-3.35-.13-4.87l49.83-85.81c.84-1.43,2.39-2.32,4.04-2.32h21.49c1.27,0,2.44.49,3.32,1.38.91.87,1.42,2.1,1.38,3.39l-.51,21.56c-.06,2.52-2.14,4.57-4.64,4.57h-.17c-2.53-.07-4.58-2.2-4.54-4.75l.39-16.79h-14.01l-47.04,80.98,33.96,52.52s.07,0,.1,0c4.53,0,8.21,3.68,8.21,8.21s-3.68,8.21-8.21,8.21h0Z"/>
        <path id="path71" class="cls-2" d="M132.14,73.29l-.51,21.56c-.04,1.54-1.34,2.81-2.88,2.75-1.55-.04-2.77-1.32-2.75-2.86l.43-18.68h-16.99l-48.15,82.89,35.2,54.42c.36-.06.7-.09,1.05-.09,3.5,0,6.35,2.84,6.35,6.35s-2.82,6.35-6.35,6.35c-3.51,0-6.35-2.84-6.35-6.35,0-1.02.25-2.03.72-2.93l-36.29-56.14c-.56-.89-.6-2.01-.08-2.94l49.83-85.79c.51-.87,1.43-1.39,2.43-1.39h21.49c.77,0,1.49.3,2.01.85.56.53.85,1.26.83,2.01h0Z"/>
        <path class="cls-2" d="M124.27,172.88c-4.53,0-8.21-3.68-8.21-8.21,0-.85.13-1.69.39-2.5l-23.87-30.3c-1.58-1.99-1.25-4.93.74-6.55.83-.66,1.86-1.02,2.91-1.02,1.45,0,2.79.65,3.69,1.79l23.95,30.37c.13,0,.25,0,.38,0,3.95,0,7.35,2.82,8.09,6.7.1.5.14,1.01.15,1.52,0,4.53-3.68,8.21-8.21,8.21Z"/>
        <path id="path84" class="cls-2" d="M130.62,164.68c0,3.5-2.84,6.35-6.35,6.35s-6.35-2.84-6.35-6.35c0-1.02.24-1.96.66-2.81l-24.54-31.15c-.96-1.21-.75-2.98.45-3.95,1.21-.96,2.99-.75,3.95.47l24.59,31.18c3.46-.66,6.8,1.61,7.46,5.07.07.39.11.78.11,1.18h0Z"/>
        <path class="cls-2" d="M244.08,122.77c-4.51,0-8.19-3.67-8.2-8.19,0-.88.14-1.77.42-2.61l-7.86-11.7c-1.42-2.14-.85-5.04,1.27-6.48.79-.53,1.69-.8,2.61-.8,1.56,0,3.01.78,3.88,2.08l7.58,11.28c.1,0,.2,0,.3,0,4.53,0,8.21,3.68,8.21,8.21s-3.68,8.21-8.21,8.21h-.01Z"/>
        <path id="path94" class="cls-2" d="M250.44,114.57c0,3.5-2.84,6.35-6.35,6.35-3.5,0-6.34-2.83-6.35-6.33,0-.98.22-1.95.66-2.83l-8.42-12.52c-.87-1.3-.51-3.03.77-3.9,1.3-.87,3.03-.53,3.9.77l8.21,12.22c.4-.08.81-.11,1.22-.11,3.5,0,6.35,2.84,6.35,6.35Z"/>
        <path class="cls-2" d="M216.69,203.99c-.85,0-1.7-.24-2.47-.7-2.2-1.41-2.85-4.3-1.48-6.47l12.76-20.03c-.46-1.04-.71-2.17-.71-3.3,0-4.53,3.68-8.21,8.21-8.21,4.53.02,8.21,3.71,8.21,8.21s-3.44,7.96-7.75,8.2l-12.82,20.15c-.84,1.35-2.32,2.16-3.94,2.16Z"/>
        <path id="path104" class="cls-2" d="M239.35,173.49c0,3.5-2.82,6.35-6.35,6.35-.19,0-.38-.02-.55-.04l-13.39,21.03c-.53.85-1.43,1.3-2.37,1.3-.51,0-1.04-.15-1.51-.43-1.3-.84-1.69-2.57-.87-3.88l13.33-20.94c-.62-.98-1-2.15-1-3.39,0-3.5,2.82-6.35,6.35-6.35,3.52.02,6.35,2.86,6.35,6.35h0Z"/>
        <path class="cls-2" d="M237.58,218.19c-4.53,0-8.21-3.68-8.21-8.21s3.68-8.21,8.21-8.21h.04l21.73-33.3c.86-1.32,2.33-2.11,3.91-2.11.91,0,1.8.26,2.56.76,2.11,1.38,2.71,4.27,1.35,6.43l-21.91,33.56c.62,1.66.69,3.47.17,5.2-.62,2.1-2.03,3.84-3.96,4.88-1.2.65-2.55.99-3.91.99h0Z"/>
        <path id="path114" class="cls-2" d="M265.6,172.57l-22.45,34.39c1.67,3.08.53,6.94-2.55,8.61-.93.5-1.97.77-3.02.77-3.5,0-6.35-2.82-6.35-6.35s2.84-6.35,6.35-6.35c.34,0,.66.02,1,.08l22.33-34.22c.85-1.3,2.6-1.66,3.9-.81,1.26.83,1.62,2.56.79,3.88h0Z"/>
        <path class="cls-2" d="M290.91,218.98c-4.53,0-8.21-3.68-8.21-8.21,0-4.32,3.36-7.88,7.6-8.18l15.95-25.6h-17.62l-22.52,35.44c-.85,1.35-2.33,2.17-3.94,2.17-.88,0-1.75-.25-2.5-.72-2.17-1.38-2.82-4.27-1.45-6.45l23.9-37.61c.84-1.33,2.35-2.16,3.94-2.16h28.62c1.67,0,3.24.91,4.08,2.38l.05.1c.76,1.52.67,3.32-.24,4.71l-20.23,32.48c.5,1.08.76,2.25.76,3.45,0,4.53-3.68,8.21-8.21,8.21Z"/>
        <path id="path124" class="cls-2" d="M317.02,173.83l-20.83,33.44c.66,1,1.05,2.2,1.05,3.5,0,3.5-2.82,6.35-6.35,6.35s-6.35-2.84-6.35-6.35c0-3.5,2.83-6.34,6.33-6.34.15,0,.3,0,.45.02l18.27-29.32h-21.99l-23.07,36.31c-.83,1.32-2.56,1.69-3.88.87-1.3-.83-1.69-2.56-.87-3.88l23.9-37.61c.51-.81,1.41-1.3,2.37-1.3h28.62c1.02,0,1.96.56,2.47,1.45.45.9.43,2-.13,2.86h0Z"/>
        <path class="cls-2" d="M213.6,136.33c-2.57,0-4.67-2.09-4.67-4.67v-31.84c0-2.57,2.09-4.67,4.67-4.67s4.67,2.09,4.67,4.67v27.17h50.4l-26.74-49.1h-36.57c-1.51,2.17-4.03,3.52-6.71,3.52-4.56,0-8.24-3.68-8.24-8.21s3.68-8.21,8.21-8.21c2.74,0,5.23,1.32,6.75,3.52h39.33c1.71,0,3.29.94,4.1,2.44l31.84,58.45c.78,1.53.74,3.25-.09,4.64-.84,1.41-2.38,2.28-4.01,2.28h-62.93Z"/>
        <path id="path134" class="cls-2" d="M278.95,133.1c-.51.85-1.43,1.37-2.41,1.37h-62.93c-1.54,0-2.81-1.26-2.81-2.81v-31.84c0-1.54,1.26-2.81,2.81-2.81s2.81,1.26,2.81,2.81v29.04h55.4l-28.77-52.82h-38.74c-1.07,2.17-3.27,3.53-5.69,3.52-3.5,0-6.35-2.82-6.35-6.35s2.82-6.35,6.35-6.35c2.5,0,4.65,1.43,5.69,3.52h40.39c1.04,0,1.98.56,2.47,1.47l31.84,58.45c.45.89.45,1.94-.06,2.79h0Z"/>
        <path class="cls-2" d="M127.68,133.66c-1.48,0-2.84-.68-3.72-1.86l-11.82-15.39c-.1,0-.2,0-.28,0-4.53,0-8.21-3.68-8.21-8.21s3.68-8.21,8.21-8.21,8.21,3.68,8.21,8.21c0,.89-.14,1.77-.42,2.6l11.75,15.32c.76,1,1.09,2.23.92,3.47-.16,1.25-.8,2.35-1.81,3.11-.8.62-1.79.96-2.84.96Z"/>
        <path id="path144" class="cls-2" d="M129.39,131.21c-.51.4-1.11.58-1.71.58-.85,0-1.68-.38-2.22-1.11l-12.47-16.23c-.38.08-.75.09-1.13.09-3.5,0-6.35-2.84-6.35-6.35s2.82-6.35,6.35-6.35,6.35,2.84,6.35,6.35c0,1.04-.24,2.01-.7,2.88l12.41,16.18c.94,1.24.72,3.01-.53,3.95Z"/>
        <path class="cls-2" d="M126.02,218.53c-1.55,0-2.96-.74-3.86-2.04l-37.3-54.98s-.07,0-.11,0c-4.53,0-8.21-3.68-8.21-8.21s3.68-8.21,8.21-8.21,8.21,3.68,8.21,8.21c0,.95-.16,1.89-.48,2.78l37.42,55.14c1.44,2.16.87,5.07-1.25,6.51-.76.53-1.67.81-2.63.81Z"/>
        <path id="path154" class="cls-2" d="M127.6,216.18c-.49.34-1.04.49-1.58.49-.9,0-1.77-.43-2.34-1.24l-37.91-55.87c-.34.06-.68.09-1.04.09-3.5,0-6.35-2.82-6.35-6.35s2.84-6.35,6.35-6.35,6.35,2.82,6.35,6.35c0,1.07-.26,2.09-.73,2.98l38,55.98c.87,1.3.53,3.05-.75,3.92h0Z"/>
        <path class="cls-2" d="M91.07,265.59c-1.62,0-3.16-.86-4-2.25l-47.18-77.74c-3.81-.53-6.74-3.79-6.74-7.72,0-4.3,3.5-7.79,7.79-7.79s7.79,3.5,7.79,7.79c0,1.1-.23,2.17-.68,3.17l47.01,77.44c.65,1.06.85,2.31.55,3.53-.29,1.22-1.05,2.24-2.12,2.89-.71.44-1.56.68-2.43.68Z"/>
        <path id="path164" class="cls-2" d="M92.54,263.31c-.45.28-.96.41-1.47.41-.94,0-1.88-.49-2.41-1.36l-47.68-78.56h-.04c-3.28,0-5.93-2.66-5.93-5.93s2.66-5.93,5.93-5.93,5.93,2.66,5.93,5.93h0c0,1.19-.36,2.3-.96,3.22l47.57,78.36c.81,1.32.4,3.05-.94,3.86h0Z"/>
        <path class="cls-2" d="M262.09,262.1c-.82,0-1.63-.22-2.35-.63-1.08-.63-1.85-1.64-2.17-2.85-.32-1.21-.15-2.47.48-3.55.06-.1.11-.19.18-.28l11.64-18.59c-.69-1.61-.85-3.39-.44-5.13.51-2.13,1.81-3.94,3.68-5.09,1.29-.8,2.78-1.22,4.3-1.22,4.54,0,8.22,3.68,8.22,8.21s-3.47,7.99-7.82,8.2l-11.69,18.65c-.8,1.38-2.35,2.28-4.02,2.28Z"/>
        <path id="path174" class="cls-2" d="M283.75,232.98c0,3.5-2.82,6.35-6.35,6.35-.21,0-.41-.02-.62-.04l-12.26,19.55c-.78,1.34-2.5,1.8-3.85,1.02-1.34-.78-1.8-2.5-1.02-3.85.03-.06.07-.11.11-.17l12.24-19.55c-1.84-2.98-.91-6.88,2.07-8.72,1-.62,2.16-.94,3.33-.94,3.5,0,6.35,2.82,6.35,6.35Z"/>
        <path class="cls-2" d="M287.54,266.87c-4.53,0-8.21-3.68-8.21-8.21,0-4.23,3.22-7.73,7.35-8.16l46.89-78.16c.84-1.4,2.38-2.27,4.01-2.27.85,0,1.68.23,2.41.67,1.05.61,1.82,1.63,2.13,2.84.31,1.22.13,2.48-.52,3.56l-46.71,77.85c.57,1.13.86,2.38.86,3.67,0,4.53-3.68,8.21-8.21,8.21Z"/>
        <path id="path184" class="cls-2" d="M340,176.18l-47.28,78.81c.73,1.04,1.17,2.3,1.17,3.67,0,3.5-2.82,6.35-6.35,6.35s-6.35-2.84-6.35-6.35,2.82-6.35,6.35-6.35c.08,0,.15,0,.21.02l47.42-79.03c.79-1.32,2.52-1.77,3.86-.96,1.36.79,1.77,2.52.98,3.84h0Z"/>
      </g>
      <g id="text">
        <g id="main">
          <g>
            <path class="cls-1" d="M452.66,27.01v248.93s-41.55,0-41.55,0V27.01s41.55,0,41.55,0ZM547.71,130.61v34.88s-104.63,0-104.63,0v-34.88s104.63,0,104.63,0ZM580.2,27.01v248.93s-41.2,0-41.2,0V27.01s41.2,0,41.2,0Z"/>
            <path class="cls-1" d="M717.38,61.2l-60.18,214.73h-43.43s78.99-248.93,78.99-248.93h27.18s-2.56,34.19-2.56,34.19ZM766.45,183.44v34.88s-115.91,0-115.91,0v-34.88s115.91,0,115.91,0ZM765.42,275.94l-60.35-214.73-2.74-34.19h27.35s79.33,248.93,79.33,248.93h-43.6Z"/>
            <path class="cls-1" d="M954.23,194.73h41.37c-.8,18.01-4.45,33.31-10.94,45.9-6.5,12.6-15.81,22.2-27.95,28.81-12.14,6.61-26.93,9.92-44.37,9.92-13.22,0-25.02-2.39-35.39-7.18-10.37-4.79-19.23-11.71-26.59-20.77-7.35-9.06-12.91-20.14-16.67-33.25-3.76-13.1-5.64-27.98-5.64-44.62v-44.11c0-16.64,1.97-31.51,5.9-44.62,3.93-13.1,9.6-24.25,17.01-33.42,7.41-9.17,16.41-16.1,27.01-20.77,10.6-4.67,22.62-7.01,36.07-7.01,17.21,0,31.68,3.31,43.43,9.92,11.74,6.61,20.8,16.3,27.18,29.06,6.38,12.77,10.14,28.32,11.28,46.67h-41.54c-.57-12.42-2.25-22.34-5.04-29.75-2.8-7.41-7.01-12.76-12.65-16.07-5.64-3.3-13.19-4.96-22.65-4.96-7.86,0-14.62,1.43-20.26,4.27-5.64,2.85-10.26,7.24-13.85,13.16-3.59,5.93-6.27,13.31-8.04,22.14-1.77,8.83-2.65,19.18-2.65,31.03v44.45c0,11.28.74,21.35,2.22,30.18,1.48,8.83,3.87,16.3,7.18,22.4,3.3,6.1,7.69,10.72,13.16,13.85,5.47,3.14,12.31,4.7,20.52,4.7,9.8,0,17.64-1.54,23.51-4.62,5.87-3.08,10.23-8.23,13.08-15.47,2.85-7.24,4.62-17.18,5.3-29.83Z"/>
            <path class="cls-1" d="M1074.2,27.01v248.93s-41.55,0-41.55,0V27.01s41.55,0,41.55,0ZM1198.49,27.01l-82.92,120.19-49.75,61.03-7.86-43.43,34.36-50.95,55.91-86.85h50.26ZM1152.84,275.94l-62.91-117.45,28.38-29.75,83.77,147.2h-49.24Z"/>
          </g>
          <g>
            <path class="cls-1" d="M1364.73,27.01h41.37s0,173.02,0,173.02c0,18.92-3.53,34.19-10.6,45.82-7.07,11.63-16.61,20.12-28.64,25.47-12.03,5.36-31.95,8.04-46.66,8.04-15.27,0-33.27-2.68-45.24-8.04-11.97-5.36-21.37-13.85-28.21-25.47-6.84-11.63-10.26-26.9-10.26-45.82V27.01s41.37,0,41.37,0v173.02c0,11.74,1.51,20.86,4.53,27.35,3.02,6.5,7.35,10.97,12.99,13.42,5.64,2.45,16.83,3.68,24.81,3.68,7.98,0,21.32-1.22,26.91-3.68,5.58-2.45,9.92-6.92,12.99-13.42,3.08-6.5,4.62-15.61,4.62-27.35V27.01Z"/>
            <path class="cls-1" d="M1499.82,27.01v248.93s-41.55,0-41.55,0V27.01s41.55,0,41.55,0ZM1519.31,275.94h-43.08s.34-34.88.34-34.88h42.74c13.34,0,23.99-2.48,31.97-7.44,7.98-4.96,13.73-12.57,17.27-22.82,3.53-10.26,5.3-23.31,5.3-39.15v-40.52c0-12.31-1-22.85-2.99-31.63-2-8.77-5.1-15.9-9.32-21.37-4.22-5.47-9.66-9.51-16.33-12.14-6.67-2.62-14.79-3.93-24.36-3.93h-45.48s0-35.05,0-35.05h45.48c14.25,0,27.15,2.28,38.72,6.84,11.57,4.56,21.48,11.26,29.75,20.09,8.26,8.83,14.59,19.75,18.98,32.74,4.39,12.99,6.58,27.93,6.58,44.79v40.18c0,16.87-2.2,31.77-6.58,44.71-4.39,12.94-10.75,23.82-19.06,32.65-8.32,8.83-18.35,15.53-30.09,20.09-11.74,4.56-25.02,6.84-39.83,6.84Z"/>
            <path class="cls-1" d="M1780.55,194.73h41.37c-.8,18.01-4.45,33.31-10.94,45.9-6.5,12.6-15.81,22.2-27.95,28.81-12.14,6.61-26.93,9.92-44.37,9.92-13.22,0-25.02-2.39-35.39-7.18-10.37-4.79-19.23-11.71-26.59-20.77-7.35-9.06-12.91-20.14-16.67-33.25-3.76-13.1-5.64-27.98-5.64-44.62v-44.11c0-16.64,1.97-31.51,5.9-44.62,3.93-13.1,9.6-24.25,17.01-33.42,7.41-9.17,16.41-16.1,27.01-20.77,10.6-4.67,22.62-7.01,36.07-7.01,17.21,0,31.68,3.31,43.43,9.92,11.74,6.61,20.8,16.3,27.18,29.06,6.38,12.77,10.14,28.32,11.28,46.67h-41.54c-.57-12.42-2.25-22.34-5.04-29.75-2.8-7.41-7.01-12.76-12.65-16.07-5.64-3.3-13.19-4.96-22.65-4.96-7.86,0-14.62,1.43-20.26,4.27-5.64,2.85-10.26,7.24-13.85,13.16-3.59,5.93-6.27,13.31-8.04,22.14-1.77,8.83-2.65,19.18-2.65,31.03v44.45c0,11.28.74,21.35,2.22,30.18,1.48,8.83,3.87,16.3,7.18,22.4,3.3,6.1,7.69,10.72,13.16,13.85,5.47,3.14,12.31,4.7,20.52,4.7,9.8,0,17.64-1.54,23.51-4.62,5.87-3.08,10.23-8.23,13.08-15.47,2.85-7.24,4.62-17.18,5.3-29.83Z"/>
          </g>
        </g>
        <g id="edition">
          <path class="cls-1" d="M1924.25,121.79v15.08s-64.49,0-64.49,0v-13.01s30.55-39.63,30.55-39.63c3.28-4.46,5.85-8.34,7.7-11.62,1.85-3.28,3.13-6.22,3.85-8.81.72-2.59,1.08-5.14,1.08-7.66,0-3.49-.47-6.57-1.42-9.24-.95-2.67-2.35-4.77-4.19-6.31-1.85-1.54-4.08-2.31-6.7-2.31-3.44,0-6.22.9-8.35,2.69-2.13,1.8-3.71,4.25-4.73,7.35-1.03,3.11-1.54,6.66-1.54,10.66h-17.93c0-6.52,1.27-12.49,3.81-17.93,2.54-5.44,6.23-9.76,11.08-12.97,4.85-3.21,10.79-4.81,17.82-4.81,6.46,0,11.94,1.27,16.43,3.81,4.49,2.54,7.9,6.12,10.24,10.74,2.33,4.62,3.5,10.08,3.5,16.39,0,3.49-.46,6.95-1.39,10.39-.92,3.44-2.25,6.86-3.96,10.27-1.72,3.41-3.77,6.84-6.16,10.27-2.39,3.44-5.02,6.93-7.89,10.47l-19.32,26.17h42.02Z"/>
          <path class="cls-1" d="M2000.44,71.46v18.39c0,8.77-.76,16.24-2.27,22.39-1.51,6.16-3.64,11.16-6.39,15.01-2.75,3.85-6.03,6.67-9.85,8.47-3.82,1.79-8.07,2.69-12.74,2.69-3.69,0-7.14-.58-10.35-1.73-3.21-1.15-6.12-2.92-8.74-5.31-2.62-2.39-4.84-5.49-6.66-9.31-1.82-3.82-3.23-8.39-4.23-13.7-1-5.31-1.5-11.48-1.5-18.51v-18.39c0-8.82.77-16.28,2.31-22.36,1.54-6.08,3.68-11.03,6.43-14.85,2.74-3.82,6.04-6.61,9.89-8.35,3.85-1.74,8.11-2.62,12.78-2.62,3.69,0,7.16.55,10.39,1.65,3.23,1.1,6.12,2.84,8.66,5.2,2.54,2.36,4.73,5.42,6.58,9.2,1.85,3.77,3.26,8.31,4.23,13.62.97,5.31,1.46,11.48,1.46,18.51ZM1982.58,92.47v-23.86c0-4.41-.21-8.31-.62-11.7-.41-3.39-.99-6.25-1.73-8.58-.74-2.33-1.67-4.24-2.77-5.73-1.1-1.49-2.35-2.58-3.73-3.27-1.39-.69-2.92-1.04-4.62-1.04-2.05,0-3.91.54-5.58,1.62-1.67,1.08-3.09,2.81-4.27,5.19-1.18,2.39-2.07,5.52-2.66,9.39-.59,3.87-.88,8.58-.88,14.12v23.86c0,4.47.2,8.4.62,11.81.41,3.41.99,6.32,1.73,8.73.74,2.41,1.65,4.38,2.73,5.89,1.08,1.51,2.32,2.63,3.73,3.35,1.41.72,2.96,1.08,4.65,1.08,2.1,0,4-.56,5.69-1.69,1.69-1.13,3.11-2.91,4.23-5.35,1.13-2.44,1.99-5.63,2.58-9.58.59-3.95.88-8.7.88-14.24Z"/>
          <path class="cls-1" d="M1924.25,254.18v15.08s-64.49,0-64.49,0v-13.01s30.55-39.63,30.55-39.63c3.28-4.46,5.85-8.34,7.7-11.62,1.85-3.28,3.13-6.22,3.85-8.81.72-2.59,1.08-5.14,1.08-7.66,0-3.49-.47-6.57-1.42-9.24-.95-2.67-2.35-4.77-4.19-6.31-1.85-1.54-4.08-2.31-6.7-2.31-3.44,0-6.22.9-8.35,2.69-2.13,1.8-3.71,4.25-4.73,7.35-1.03,3.11-1.54,6.66-1.54,10.66h-17.93c0-6.52,1.27-12.49,3.81-17.93,2.54-5.44,6.23-9.76,11.08-12.97,4.85-3.21,10.79-4.81,17.82-4.81,6.46,0,11.94,1.27,16.43,3.81,4.49,2.54,7.9,6.12,10.24,10.74,2.33,4.62,3.5,10.08,3.5,16.39,0,3.49-.46,6.95-1.39,10.39-.92,3.44-2.25,6.86-3.96,10.27-1.72,3.41-3.77,6.84-6.16,10.27-2.39,3.44-5.02,6.93-7.89,10.47l-19.32,26.17h42.02Z"/>
          <path class="cls-1" d="M1984.62,156.45h2s0,15.55,0,15.55h-1.08c-5.59,0-10.31,1.01-14.16,3.04-3.85,2.03-6.94,4.81-9.27,8.35-2.34,3.54-4.03,7.68-5.08,12.43-1.05,4.75-1.58,9.79-1.58,15.12v17.78c0,4.41.37,8.3,1.12,11.66.74,3.36,1.77,6.17,3.08,8.43,1.31,2.26,2.8,3.96,4.46,5.12,1.67,1.15,3.4,1.73,5.19,1.73,2.1,0,4.01-.56,5.73-1.69,1.72-1.13,3.18-2.71,4.39-4.73,1.21-2.03,2.12-4.42,2.73-7.2.62-2.77.92-5.82.92-9.16,0-3.13-.31-6.07-.92-8.81-.62-2.74-1.49-5.17-2.62-7.27-1.13-2.1-2.54-3.75-4.23-4.93-1.69-1.18-3.64-1.77-5.85-1.77-2.82,0-5.34.86-7.54,2.58s-3.98,3.95-5.31,6.69c-1.34,2.75-2.08,5.66-2.23,8.74l-6.77-2.46c.46-4.77,1.42-9.03,2.89-12.78,1.46-3.74,3.35-6.96,5.66-9.66,2.31-2.69,4.97-4.74,8-6.16,3.03-1.41,6.31-2.12,9.85-2.12,4.62,0,8.62,1.03,12.01,3.08,3.39,2.05,6.18,4.84,8.39,8.35,2.21,3.51,3.84,7.52,4.89,12.01,1.05,4.49,1.58,9.2,1.58,14.12,0,5.39-.69,10.4-2.08,15.04-1.39,4.64-3.41,8.71-6.08,12.2-2.67,3.49-5.95,6.21-9.85,8.16-3.9,1.95-8.34,2.92-13.31,2.92-5.18,0-9.76-1.14-13.74-3.43-3.98-2.28-7.32-5.46-10.04-9.54-2.72-4.08-4.77-8.76-6.16-14.04-1.39-5.28-2.08-10.9-2.08-16.86v-7.77c0-8.52.82-16.56,2.46-24.13,1.64-7.57,4.31-14.24,8-20.01,3.69-5.77,8.54-10.31,14.54-13.62,6-3.31,13.36-4.96,22.09-4.96Z"/>
        </g>
      </g>
    </g>
  </g>
</svg>