<?xml version="1.0" encoding="UTF-8" standalone="no"?>
<!-- Created with Inkscape (http://www.inkscape.org/) -->

<svg
   width="143.93333mm"
   height="50.006248mm"
   viewBox="0 0 143.93333 50.006248"
   version="1.1"
   id="svg1"
   xml:space="preserve"
   inkscape:version="1.4.3 (0d15f75042, 2025-12-25)"
   sodipodi:docname="museos_cientificos_white.svg"
   xmlns:inkscape="http://www.inkscape.org/namespaces/inkscape"
   xmlns:sodipodi="http://sodipodi.sourceforge.net/DTD/sodipodi-0.dtd"
   xmlns="http://www.w3.org/2000/svg"
   xmlns:svg="http://www.w3.org/2000/svg"><sodipodi:namedview
     id="namedview1"
     pagecolor="#ffffff"
     bordercolor="#000000"
     borderopacity="0.25"
     inkscape:showpageshadow="2"
     inkscape:pageopacity="0.0"
     inkscape:pagecheckerboard="0"
     inkscape:deskcolor="#d1d1d1"
     inkscape:document-units="mm"
     inkscape:zoom="0.74661412"
     inkscape:cx="-163.40436"
     inkscape:cy="444.67415"
     inkscape:window-width="2133"
     inkscape:window-height="1261"
     inkscape:window-x="0"
     inkscape:window-y="0"
     inkscape:window-maximized="1"
     inkscape:current-layer="layer1" /><defs
     id="defs1" /><g
     inkscape:label="Layer 1"
     inkscape:groupmode="layer"
     id="layer1"
     transform="translate(-37.115368,-100.13638)"><path
       style="fill:#029de3;fill-opacity:1"
       d="m 59.764484,149.73385 c -10.613796,-0.69566 -19.315196,-8.13807 -22.103232,-18.90514 -0.784059,-3.02794 -0.791402,-8.36667 -0.01597,-11.60912 1.739261,-7.27265 6.571887,-13.27083 13.351447,-16.5716 3.707014,-1.80484 6.453301,-2.41489 10.850768,-2.41033 5.222715,0.005 8.610775,0.89304 12.750275,3.34038 11.239568,6.64501 15.43667,20.87666 9.59248,32.52644 -2.441009,4.86589 -5.654345,8.20441 -10.317125,10.71904 -4.640312,2.50251 -8.423644,3.28294 -14.108646,2.91033 z"
       id="path10"
       sodipodi:nodetypes="sssscsssss"
       inkscape:label="cenhe_bg" /><path
       d="m 65.345638,140.98313 c 2.320957,-0.42763 4.290904,-1.4706 6.001718,-3.17756 0.836745,-0.83486 1.516142,-1.61675 1.509772,-1.73753 -0.0064,-0.12078 -1.065408,-0.95985 -2.353415,-1.8646 l -2.341833,-1.64499 -0.979634,0.92391 c -1.400402,1.32075 -2.383734,1.75247 -4.080442,1.79148 -1.983952,0.0456 -3.678895,-0.9161 -4.711999,-2.67358 -0.629124,-1.07025 -0.733756,-1.53475 -0.728504,-3.23412 0.0068,-2.19741 0.528213,-3.52642 1.887866,-4.81181 2.011024,-1.90119 5.548663,-1.65397 7.600991,0.53117 l 0.763739,0.81316 2.337903,-1.77199 c 1.285846,-0.97459 2.341148,-1.90354 2.345115,-2.06433 0.01354,-0.54884 -2.767741,-2.91473 -4.248808,-3.61424 -0.839859,-0.39666 -2.324794,-0.80295 -3.439583,-0.9411 -7.488096,-0.92794 -13.45268,3.75474 -13.92608,10.9331 -0.241136,3.65644 0.901841,6.83096 3.342143,9.28251 2.871972,2.88521 6.78115,4.04172 11.021051,3.26052 z m -9.766122,-27.33396 c 0.415405,-0.87111 1.280807,-1.48094 2.101593,-1.48094 0.218854,0 1.493173,0.46327 2.831821,1.02949 2.942021,1.24443 4.248243,1.48849 5.777545,1.07953 1.483628,-0.39675 3.179826,-2.1285 3.76397,-3.84287 0.628434,-1.84436 0.91151,-1.92818 -0.428677,-1.91414 -0.994485,0.0104 -1.254974,0.0605 -1.254974,0.30206 0,0.19703 -0.291971,0.67328 -0.648825,1.05833 -0.910846,0.98282 -2.098617,0.914 -4.732271,-0.27419 -1.806812,-0.81516 -2.465007,-0.97721 -4.029831,-0.99219 -2.545823,-0.0244 -3.717306,0.72808 -4.859437,3.1212 -1.100227,2.30532 -1.244718,2.62401 0.161573,2.53311 1.092595,-0.0706 0.949408,0.15253 1.317513,-0.61939 z"
       style="fill:#ffffff;fill-opacity:1"
       id="path1-1"
       sodipodi:insensitive="true"
       inkscape:label="cenhe" /><path
       id="path8"
       style="font-weight:300;font-size:15.0182px;font-family:'VAG Rounded';-inkscape-font-specification:'VAG Rounded Light';letter-spacing:1.01077px;baseline-shift:baseline;display:inline;overflow:visible;vector-effect:none;fill:#ffffff;stroke:none;stroke-width:0.649464;enable-background:accumulate;stop-color:#000000"
       inkscape:label="MUSEOS CIENTÃFICOS"
       d="M 123.77106 114.25697 C 123.29427 114.24922 122.86489 114.39733 122.4099 114.57219 C 121.95917 114.76867 121.56275 115.03309 121.23426 115.36129 C 120.91537 115.67006 120.65972 116.02772 120.47876 116.42582 L 120.47462 116.43358 L 120.46687 116.44753 L 120.46687 116.46923 L 120.46687 116.4713 C 120.3076 116.84687 120.21314 117.2354 120.21314 117.62575 C 120.21314 118.29315 120.35981 118.89636 120.70355 119.37758 L 120.70561 119.38172 L 120.70768 119.38378 C 121.00573 119.78912 121.38227 120.12805 121.81924 120.38786 L 121.82493 120.39354 L 121.84043 120.40181 C 122.25579 120.631 122.70123 120.81768 123.1742 120.96818 C 123.58923 121.10022 123.96612 121.2422 124.30901 121.38986 L 124.32452 121.40537 L 124.34209 121.40537 C 124.65516 121.53897 124.89843 121.69564 125.08054 121.87045 C 125.20314 121.98815 125.26193 122.10709 125.26193 122.4053 C 125.26193 122.63457 125.22583 122.83439 125.15496 123.0187 C 125.08356 123.20439 124.98422 123.35807 124.85006 123.4993 C 124.72183 123.63427 124.56869 123.74061 124.37154 123.82951 C 124.18837 123.90291 123.97263 123.9463 123.70543 123.9463 C 123.41932 123.9463 123.194 123.91205 123.02382 123.85845 L 123.02175 123.85845 C 122.80125 123.77845 122.60506 123.69571 122.43781 123.61247 L 122.43729 123.61247 L 122.43678 123.61247 L 122.43626 123.61247 L 122.43574 123.61247 L 122.43212 123.6104 C 122.2578 123.50952 122.10092 123.4165 121.9691 123.34117 L 121.9629 123.34892 C 121.7687 123.22831 121.5499 123.12619 121.28542 123.12619 C 120.93503 123.12619 120.55209 123.30543 120.34801 123.6166 C 120.18625 123.85563 120.10772 124.14224 120.10772 124.42327 C 120.10772 124.80242 120.2972 125.15368 120.55885 125.39995 L 120.57022 125.41184 L 120.58624 125.42373 L 120.58624 125.42528 C 120.82467 125.62397 121.10729 125.78596 121.42805 125.92344 L 121.43012 125.92344 L 121.44407 125.92964 L 121.45389 125.93377 C 121.77945 126.05726 122.13102 126.15487 122.50861 126.23039 L 122.51481 126.23039 L 122.52824 126.23453 L 122.53031 126.23453 C 122.92129 126.29963 123.30852 126.3322 123.69251 126.3322 C 124.3346 126.3322 124.92788 126.23159 125.46191 126.018 L 125.46553 126.018 L 125.4676 126.01594 L 125.46966 126.01594 L 125.4738 126.01387 C 125.97117 125.80386 126.39929 125.51173 126.75537 125.15449 L 126.77294 125.15449 L 126.80033 125.1271 C 127.16498 124.76051 127.44593 124.32691 127.63439 123.84398 C 127.82126 123.36513 127.91551 122.86192 127.91551 122.34794 C 127.91551 121.66611 127.774 121.05355 127.43492 120.56252 C 127.13713 120.12178 126.75384 119.76158 126.29804 119.49644 L 126.29597 119.49644 C 125.88452 119.24191 125.43619 119.03583 124.956 118.88304 C 124.53662 118.74961 124.14884 118.60732 123.79173 118.45723 L 123.78966 118.45723 C 123.47589 118.32136 123.22914 118.16663 123.03984 118.00196 L 123.03777 117.99989 C 122.91446 117.88553 122.86776 117.79519 122.86776 117.53687 C 122.86776 117.23051 122.93295 117.09178 123.13182 116.91778 C 123.33368 116.74115 123.56107 116.65423 123.93229 116.65423 C 124.21413 116.65423 124.41694 116.68945 124.51262 116.72245 L 124.53019 116.7302 L 124.54052 116.7302 C 124.70338 116.7858 124.83074 116.84752 124.90949 116.89815 L 124.91983 116.90435 L 124.93326 116.91262 C 125.07553 116.99802 125.19623 117.07432 125.29862 117.13948 C 125.51782 117.27898 125.77543 117.34256 126.02312 117.34256 C 126.33225 117.34256 126.66501 117.21637 126.88663 116.9736 C 127.09232 116.74922 127.21685 116.43989 127.21685 116.13334 C 127.21685 115.78143 127.0468 115.45746 126.81635 115.22331 L 126.81429 115.22125 C 126.60016 114.99574 126.33295 114.81998 126.03294 114.6864 L 126.0288 114.68433 L 126.02674 114.68226 C 125.73616 114.54951 125.4133 114.45401 125.06194 114.38719 C 124.73397 114.31379 123.97828 114.26988 123.97828 114.26988 C 123.90802 114.26203 123.83917 114.25807 123.77106 114.25697 z M 151.71354 114.25697 C 151.23709 114.2493 150.80804 114.39744 150.35342 114.57219 C 149.90269 114.76866 149.50628 115.0331 149.17778 115.36129 C 148.85928 115.6697 148.60267 116.02624 148.42175 116.42376 L 148.41555 116.43358 C 148.24629 116.82044 148.15562 117.2226 148.15562 117.62523 C 148.15562 118.29248 148.30014 118.89574 148.64396 119.37707 L 148.6481 119.38327 L 148.65791 119.39309 L 148.65223 119.38327 C 148.95028 119.78861 149.32475 120.12753 149.76172 120.38734 L 149.76379 120.38941 L 149.77361 120.39716 L 149.77774 120.39923 C 150.19417 120.62936 150.64125 120.81672 151.11564 120.96767 C 151.5364 121.10153 151.91936 121.24515 152.26596 121.39503 L 152.2856 121.40537 C 152.59873 121.53899 152.84356 121.69518 153.02561 121.86994 C 153.14787 121.98731 153.20545 122.10668 153.20544 122.4053 C 153.20544 122.63509 153.16854 122.8349 153.09795 123.0187 C 153.02655 123.20439 152.92929 123.35755 152.79513 123.49878 C 152.66726 123.63338 152.51296 123.74023 152.3166 123.82899 L 152.31609 123.82899 L 152.31557 123.82899 L 152.31505 123.82899 L 152.31454 123.82899 C 152.13171 123.90199 151.9154 123.9463 151.64895 123.9463 C 151.36364 123.9463 151.13884 123.91185 150.96888 123.85845 C 150.74764 123.77825 150.55118 123.69598 150.38339 123.61247 L 150.37512 123.60833 L 150.37926 123.61247 C 150.2056 123.51199 150.05021 123.4202 149.9183 123.34478 C 149.9163 123.34379 149.9141 123.34165 149.9121 123.34065 L 149.90642 123.34892 C 149.71233 123.22836 149.49494 123.12671 149.23049 123.12671 C 148.88011 123.12671 148.49715 123.30541 148.29308 123.6166 C 148.13131 123.85563 148.05278 124.14224 148.05278 124.42327 C 148.05278 124.80233 148.24222 125.15364 148.50392 125.39995 L 148.5158 125.41184 L 148.53131 125.42321 L 148.53131 125.42528 C 148.76969 125.62392 149.05232 125.78595 149.37312 125.92344 L 149.38448 125.92964 L 149.39637 125.93326 C 149.72209 126.05679 150.07564 126.15488 150.45315 126.23039 L 150.45884 126.23039 L 150.47279 126.23453 C 150.86377 126.29963 151.251 126.33271 151.63499 126.33271 C 152.27708 126.33271 152.87243 126.23159 153.40646 126.018 L 153.4106 126.018 L 153.41266 126.01594 L 153.41473 126.01594 L 153.41886 126.01387 C 153.91624 125.80386 154.34385 125.51173 154.69992 125.15449 L 154.71542 125.15449 L 154.74281 125.1271 L 154.74281 125.12659 L 154.74281 125.12607 L 154.74281 125.12555 C 155.10689 124.75921 155.39068 124.3264 155.57894 123.84398 C 155.76582 123.36513 155.86006 122.86192 155.86006 122.34794 C 155.86006 121.66494 155.71575 121.05213 155.37585 120.56097 C 155.07766 120.12079 154.69172 119.75908 154.23535 119.49437 L 154.23897 119.49437 C 153.82817 119.24051 153.38044 119.03557 152.90107 118.88304 C 152.48107 118.74941 152.09281 118.60757 151.73525 118.45723 C 151.42063 118.32117 151.17508 118.16745 150.98542 118.00247 L 150.98335 118.00041 C 150.85968 117.88574 150.81127 117.79525 150.81127 117.53739 C 150.81127 117.23156 150.87777 117.09255 151.07689 116.9183 C 151.27879 116.74163 151.50458 116.65475 151.87581 116.65475 C 152.15671 116.65475 152.36003 116.69006 152.45613 116.72296 L 152.47422 116.73123 L 152.48559 116.73123 C 152.64807 116.78683 152.77373 116.84822 152.85301 116.89918 L 152.85662 116.90125 L 152.87006 116.909 L 152.87833 116.91313 C 153.02 116.99823 153.14126 117.07464 153.24316 117.13948 C 153.46236 117.27898 153.72048 117.34256 153.96818 117.34256 C 154.2773 117.34256 154.60961 117.21632 154.83118 116.9736 C 155.03688 116.74922 155.16139 116.4404 155.16139 116.13385 C 155.16139 115.78154 154.98908 115.45725 154.75883 115.22331 L 154.75677 115.22125 C 154.54199 114.99507 154.27513 114.82014 153.97387 114.6864 C 153.68194 114.55261 153.35869 114.45487 153.00494 114.38771 L 153.00287 114.38771 C 152.48906 114.27293 151.94957 114.26988 151.92076 114.26988 C 151.85056 114.26205 151.78161 114.25806 151.71354 114.25697 z M 141.94566 114.2673 L 141.94515 114.26782 C 141.10491 114.26782 140.32694 114.4418 139.64244 114.8006 C 138.98859 115.13879 138.42499 115.60121 137.97278 116.17778 L 137.95314 116.2031 L 137.95314 116.22067 C 137.52783 116.77493 137.201 117.40651 136.98627 118.11513 C 136.76925 118.82112 136.6602 119.55214 136.6602 120.29897 C 136.6602 121.03782 136.77097 121.76383 136.98266 122.47093 L 136.98266 122.48437 L 136.98679 122.49626 L 136.98679 122.49832 C 137.20599 123.21074 137.53426 123.85923 137.96916 124.42792 L 137.97329 124.43205 L 137.97898 124.43774 C 138.42992 125.00142 138.987 125.46225 139.63521 125.80871 L 139.64141 125.81285 L 139.64709 125.81492 C 140.33128 126.16282 141.10711 126.33065 141.94618 126.33065 C 142.77017 126.33065 143.52629 126.15989 144.1941 125.82267 L 144.21736 125.82267 L 144.23906 125.81233 C 144.89853 125.46582 145.45938 124.99999 145.90304 124.43154 C 146.34915 123.86242 146.68513 123.21255 146.90505 122.49781 L 146.90505 122.49626 C 146.9054 122.49526 146.90577 122.49412 146.90608 122.49212 L 146.91022 122.48385 L 146.91022 122.47817 C 147.12331 121.76881 147.23113 121.03971 147.23113 120.29846 C 147.23113 119.55786 147.12367 118.83328 146.91022 118.1327 L 146.91022 118.1265 L 146.90505 118.11513 L 146.90505 118.11306 C 146.68619 117.39157 146.353 116.74332 145.90666 116.18295 L 145.90511 116.18295 C 145.46242 115.60477 144.89969 115.14174 144.23906 114.80422 L 144.23699 114.80422 C 143.5606 114.44387 142.78555 114.2673 141.94566 114.2673 z M 98.385013 114.26782 C 98.017192 114.26782 97.656395 114.39608 97.366987 114.62128 C 96.996738 114.89743 96.825016 115.31869 96.740152 115.77935 L 96.738085 115.78917 L 96.738085 115.79331 L 95.287011 124.3442 L 95.287011 124.35402 L 95.287011 124.35609 C 95.269001 124.4713 95.249174 124.57416 95.232234 124.65891 L 95.22655 124.68785 L 95.22655 124.71731 C 95.21472 124.82539 95.20898 124.93022 95.20898 125.03357 C 95.20898 125.33799 95.28939 125.65339 95.484415 125.9069 L 95.486482 125.90897 L 95.505602 125.93222 L 95.521622 125.94772 C 95.761164 126.20904 96.114913 126.33065 96.44353 126.33065 C 96.699152 126.33065 96.957679 126.27465 97.18767 126.15081 L 97.189221 126.15081 L 97.201106 126.14306 C 97.546236 125.94583 97.712314 125.57323 97.759728 125.22891 L 97.76593 125.22891 L 98.605672 119.43184 L 100.35544 125.33846 L 100.35544 125.34414 L 100.35957 125.3581 C 100.45097 125.64554 100.58479 125.93621 100.88874 126.12963 L 100.89649 126.13376 L 100.90476 126.13996 L 100.91044 126.14409 C 101.12899 126.27157 101.38175 126.33168 101.62926 126.33168 C 101.874 126.33168 102.12264 126.26608 102.33826 126.13221 C 102.6457 125.94768 102.80112 125.65454 102.89482 125.36068 L 104.65026 119.43288 L 105.48846 125.2103 L 105.48846 125.30435 L 105.5391 125.30435 C 105.5967 125.61421 105.71337 125.94452 106.02176 126.13428 L 106.01607 126.13221 L 106.04346 126.14978 L 106.07085 126.16373 C 106.30121 126.27891 106.55533 126.33323 106.81086 126.33323 C 107.13864 126.33323 107.50118 126.21064 107.73483 125.93326 C 107.9477 125.68165 108.04902 125.35314 108.04902 125.03667 C 108.04901 124.91623 108.03427 124.79806 108.01027 124.68114 C 107.99947 124.58174 107.98517 124.47497 107.96737 124.35867 L 107.96737 124.34731 L 106.51423 115.7747 L 106.51113 115.76953 L 106.51113 115.76902 C 106.42553 115.31428 106.25193 114.89779 105.88636 114.62438 C 105.59695 114.39917 105.23668 114.27092 104.86886 114.27092 C 104.52554 114.27092 104.18541 114.34772 103.90044 114.55204 C 103.60352 114.75584 103.42544 115.06263 103.32011 115.39178 L 103.31805 115.40005 L 101.62874 121.18522 L 99.940991 115.39798 L 99.93944 115.39178 L 99.937373 115.38971 C 99.831906 115.06147 99.653139 114.75475 99.357047 114.55152 C 99.086222 114.35722 98.760934 114.29125 98.435139 114.28384 L 98.409818 114.26833 L 98.385013 114.26782 z M 110.67212 114.26782 C 110.33662 114.26782 109.98744 114.40616 109.74814 114.65797 C 109.50006 114.91257 109.38848 115.26157 109.38848 115.59383 L 109.38848 121.40433 C 109.38848 122.36045 109.52562 123.17464 109.83806 123.84759 C 110.12932 124.47494 110.51255 124.99801 110.9982 125.38652 L 111.00233 125.39065 L 111.01267 125.39634 L 111.01835 125.40047 C 111.48738 125.75397 112.01023 126.00709 112.56761 126.14668 L 112.56968 126.14668 L 112.58001 126.15081 L 112.58415 126.15288 C 113.11296 126.27159 113.63095 126.33065 114.13857 126.33065 C 114.63998 126.33065 115.1504 126.26915 115.66406 126.15288 L 115.66613 126.15288 L 115.68938 126.15288 L 115.70799 126.14358 C 116.25791 126.00666 116.7628 125.75546 117.21487 125.41287 L 117.23244 125.41287 L 117.2557 125.39324 L 117.25776 125.39324 C 117.7549 125.00522 118.14852 124.4784 118.44115 123.84811 C 118.75364 123.17505 118.88867 122.36087 118.88867 121.40485 L 118.88867 115.59435 C 118.88867 115.26282 118.77775 114.91539 118.53107 114.66107 C 118.29184 114.40847 117.94175 114.26833 117.60555 114.26833 C 117.26983 114.26833 116.92077 114.40672 116.68157 114.65901 C 116.43339 114.91371 116.32397 115.26241 116.32397 115.59435 L 116.32397 121.91283 C 116.32397 122.62249 116.13649 123.06107 115.75398 123.40679 C 115.35924 123.76358 114.86182 123.94785 114.14064 123.94785 C 113.41946 123.94785 112.92204 123.76357 112.5273 123.40679 C 112.1448 123.06107 111.95678 122.62248 111.95679 121.91283 L 111.95679 115.59435 C 111.95678 115.26325 111.84862 114.91559 111.60178 114.66107 C 111.36253 114.40753 111.0123 114.26833 110.67574 114.26833 L 110.67212 114.26782 z M 130.46471 114.35722 C 130.09544 114.35722 129.68855 114.48244 129.43531 114.80474 C 129.23514 115.05951 129.13869 115.38343 129.13869 115.69925 L 129.13869 124.89818 C 129.13869 125.214 129.23519 125.53637 129.43531 125.79114 C 129.68852 126.11339 130.09535 126.24021 130.46471 126.24021 L 134.24432 126.24021 C 134.54516 126.24021 134.86171 126.15201 135.10732 125.94721 C 135.39454 125.70788 135.51195 125.33662 135.51195 125.00411 C 135.51195 124.67159 135.39457 124.29987 135.10732 124.0605 C 134.86192 123.856 134.54551 123.76543 134.24432 123.76543 L 131.70288 123.76543 L 131.70288 121.53714 L 133.96114 121.53714 C 134.26233 121.53714 134.57872 121.44664 134.82413 121.24207 C 135.11132 121.00274 135.22876 120.63149 135.22876 120.29897 C 135.22876 119.96645 135.11137 119.59474 134.82413 119.35536 C 134.57847 119.15063 134.26188 119.06236 133.96114 119.06236 L 131.70288 119.06236 L 131.70288 116.832 L 134.24432 116.832 C 134.54564 116.832 134.86199 116.7414 135.10732 116.53693 C 135.39452 116.2976 135.51195 115.92635 135.51195 115.59383 C 135.51195 115.26131 135.39457 114.88959 135.10732 114.65022 C 134.86166 114.44549 134.54506 114.35722 134.24432 114.35722 L 130.46471 114.35722 z M 141.94515 116.55863 L 141.94566 116.55863 C 142.28136 116.55869 142.56476 116.60411 142.80659 116.68886 C 142.91918 116.73205 143.02247 116.78403 143.11768 116.8444 L 143.12388 116.84854 L 143.12957 116.85216 C 143.4795 117.06045 143.75356 117.32634 143.96931 117.66658 C 144.193 118.01931 144.35443 118.41587 144.45197 118.86805 L 144.45197 118.87425 L 144.45404 118.87839 C 144.56448 119.34778 144.61785 119.81473 144.61785 120.28089 C 144.61785 120.74704 144.56455 121.21348 144.45404 121.68287 L 144.45197 121.68649 L 144.45197 121.69269 C 144.35447 122.14486 144.193 122.54091 143.96931 122.89365 C 143.75327 123.23434 143.47784 123.5071 143.12595 123.72564 L 143.12543 123.72564 L 143.12492 123.72564 L 143.1244 123.72564 L 143.12388 123.72564 L 143.12337 123.72564 L 143.12337 123.72615 L 143.12285 123.72667 L 143.12285 123.72719 L 143.12285 123.7277 L 143.12233 123.7277 C 142.81287 123.91549 142.41589 124.02071 141.89399 124.02071 C 141.54146 124.02071 141.24338 123.97146 140.98758 123.88067 C 140.88558 123.84134 140.79019 123.79514 140.70129 123.74269 C 140.3602 123.52499 140.08623 123.25484 139.8693 122.91277 C 139.64472 122.55861 139.48041 122.15918 139.37321 121.70561 L 139.37321 121.70509 L 139.37269 121.70509 L 139.37269 121.70457 L 139.37269 121.70406 L 139.37218 121.70406 L 139.37166 121.70354 L 139.37166 121.70302 L 139.37114 121.70251 L 139.37114 121.70199 C 139.27073 121.23317 139.22076 120.76583 139.22076 120.29949 C 139.22076 119.83314 139.27076 119.3658 139.37114 118.89699 L 139.37321 118.89286 C 139.48041 118.43928 139.64472 118.03985 139.8693 117.6857 C 140.08671 117.34286 140.35857 117.07692 140.69923 116.86921 L 140.69923 116.86714 L 140.70129 116.86714 C 141.02313 116.66791 141.42471 116.55871 141.94515 116.55863 z M 137.78157 125.9746 C 137.66285 125.97459 137.54405 125.99107 137.43069 126.02317 C 137.33249 126.05097 137.22394 126.08927 137.08601 126.14203 L 137.08188 126.14409 L 135.3564 126.84741 C 135.09717 126.94561 134.86892 127.05635 134.69804 127.29906 C 134.58659 127.45734 134.50012 127.65261 134.50012 127.87371 C 134.50012 128.12159 134.58742 128.32292 134.70218 128.52586 L 134.70631 128.53206 L 134.70838 128.53775 C 134.88436 128.82934 135.25412 129.00904 135.58223 129.00904 C 135.70095 129.00904 135.81923 128.99049 135.93259 128.95839 C 136.03079 128.93059 136.13988 128.89289 136.27779 128.84005 L 136.28348 128.83799 L 138.00947 128.13674 C 138.26871 128.03854 138.49436 127.92781 138.66524 127.68509 C 138.77669 127.5268 138.86316 127.33154 138.86316 127.11044 C 138.86316 126.86635 138.77537 126.66348 138.65956 126.46966 C 138.48954 126.17161 138.11779 125.97511 137.78209 125.97511 L 137.78157 125.9746 z M 136.69327 129.45449 L 136.69327 129.455 C 136.34117 129.455 135.97876 129.59293 135.7264 129.85756 C 135.4644 130.12397 135.35175 130.48697 135.35175 130.83218 L 135.35175 140.26571 C 135.35175 140.60965 135.46024 140.96888 135.70728 141.23981 L 135.72279 141.26152 L 135.73984 141.27495 C 135.9973 141.5265 136.35325 141.64444 136.69327 141.64444 C 137.03199 141.64444 137.38572 141.52626 137.64257 141.27702 L 137.65238 141.26875 L 137.65238 141.2672 L 137.66995 141.24963 L 137.67202 141.24757 C 137.92477 140.97534 138.03324 140.61196 138.03324 140.2652 L 138.03324 130.83166 C 138.03324 130.48708 137.92225 130.12373 137.66014 129.85705 C 137.40778 129.59266 137.04524 129.45449 136.69327 129.45449 z M 99.888797 129.455 C 99.009355 129.45527 98.197426 129.62908 97.488427 129.99244 C 96.812734 130.33402 96.233645 130.80319 95.771736 131.38874 L 95.771736 131.3908 L 95.736079 131.43369 L 95.736079 131.45902 C 95.313197 132.01351 94.982502 132.64084 94.767663 133.34572 C 94.547357 134.05826 94.437451 134.79522 94.437451 135.54869 C 94.437451 136.2862 94.549582 137.01211 94.759911 137.71858 L 94.759911 137.74597 L 94.767663 137.76767 L 94.767663 137.76974 C 94.990357 138.48932 95.325579 139.14427 95.767602 139.71898 L 95.771219 139.72259 C 96.215985 140.28951 96.773675 140.75289 97.423832 141.10235 L 97.437267 141.11734 L 97.469307 141.12768 C 98.165374 141.4773 98.955308 141.64392 99.812316 141.64392 C 100.32773 141.64392 100.82086 141.59483 101.28509 141.49355 C 101.73325 141.39575 102.13625 141.27034 102.50001 141.10701 L 102.50414 141.10546 L 102.50983 141.10339 L 102.52016 141.09925 C 102.87785 140.92717 103.17997 140.73104 103.4245 140.48792 C 103.6809 140.23298 103.89475 139.89533 103.89475 139.48798 C 103.89475 139.17962 103.79835 138.85535 103.57643 138.60328 C 103.35445 138.34259 103.01698 138.19917 102.69173 138.19917 C 102.39175 138.19917 102.12112 138.30287 101.88144 138.44309 L 101.87782 138.44515 L 101.86749 138.45084 L 101.8618 138.45497 C 101.72244 138.54137 101.54116 138.64248 101.32282 138.75573 L 101.32075 138.7578 L 101.31455 138.75986 L 101.31248 138.76193 C 101.14058 138.85513 100.92027 138.94773 100.65981 139.0353 L 100.61899 139.0353 L 100.60348 139.0508 C 100.40608 139.115 100.14543 139.15829 99.812316 139.15829 C 99.338833 139.15829 98.984403 139.06049 98.690938 138.88285 C 98.363569 138.67454 98.099021 138.41505 97.880651 138.086 C 97.662438 137.74223 97.496343 137.35443 97.38249 136.91036 C 97.265305 136.45327 97.206791 136.00103 97.206791 135.54921 C 97.206791 135.09932 97.259081 134.64893 97.36492 134.19528 L 97.365437 134.19528 L 97.365437 134.19477 L 97.365954 134.19477 L 97.366471 134.19425 L 97.366987 134.19425 L 97.366987 134.19373 L 97.366987 134.19167 L 97.366987 134.19115 L 97.366987 134.19063 L 97.366987 134.19012 L 97.366987 134.1896 L 97.369055 134.18753 C 97.482672 133.74545 97.651556 133.35828 97.878584 133.01551 C 98.089521 132.69706 98.349104 132.45456 98.671817 132.25793 L 98.683703 132.25793 L 98.710575 132.23055 C 99.024429 132.04352 99.397964 131.94167 99.888797 131.94167 C 100.23903 131.94167 100.49347 131.99357 100.63449 132.05278 C 100.85859 132.14698 101.03531 132.24552 101.16417 132.33803 C 101.33446 132.46033 101.47875 132.57129 101.59154 132.66618 C 101.82409 132.86183 102.12805 132.98812 102.44885 132.98812 C 102.79211 132.98812 103.15857 132.83541 103.38057 132.54319 C 103.56873 132.29806 103.66996 131.99071 103.66996 131.68536 C 103.66996 131.31686 103.48585 131.02734 103.28291 130.79497 L 103.28136 130.79291 C 103.07633 130.5362 102.81477 130.3251 102.50414 130.14075 L 102.50001 130.13868 C 102.16575 129.93076 101.78211 129.7689 101.35589 129.64621 C 100.96817 129.53463 100.54008 129.49761 100.09964 129.48239 L 100.10739 129.455 L 99.890348 129.455 L 99.888797 129.455 z M 106.12873 129.455 C 105.77662 129.455 105.41421 129.59293 105.16186 129.85756 C 104.89952 130.12431 104.78927 130.48768 104.78927 130.83218 L 104.78927 140.26571 C 104.78927 140.61248 104.89778 140.97585 105.15049 141.24808 L 105.15256 141.25015 L 105.16238 141.26152 L 105.16858 141.26772 C 105.42659 141.52423 105.78598 141.64496 106.12924 141.64496 C 106.46904 141.64496 106.82526 141.52669 107.08267 141.27547 L 107.09973 141.26204 L 107.11626 141.23878 L 107.11678 141.23826 L 107.11678 141.23775 L 107.1173 141.23723 L 107.11936 141.23413 C 107.36323 140.96377 107.47128 140.60707 107.47128 140.2652 L 107.47128 130.83166 C 107.47128 130.48728 107.3588 130.12534 107.09818 129.85911 C 106.84573 129.59321 106.4822 129.455 106.12924 129.455 L 106.12873 129.455 z M 117.85566 129.455 C 117.49694 129.455 117.10925 129.60203 116.86916 129.91234 C 116.63834 130.21069 116.57822 130.56433 116.57822 130.90815 L 116.57822 140.26571 C 116.57822 140.61248 116.68465 140.97585 116.93737 141.24808 L 116.93944 141.25015 L 116.94925 141.26152 L 116.95546 141.26772 L 116.95752 141.26772 C 117.21553 141.52423 117.57339 141.64496 117.91664 141.64496 C 118.25599 141.64496 118.6117 141.52651 118.86903 141.27599 L 118.88712 141.26204 L 118.89694 141.24808 C 119.14971 140.97584 119.25661 140.61246 119.25661 140.26571 L 119.25661 134.6428 L 123.47909 140.66827 L 123.47702 140.66827 C 123.67231 140.94855 123.84136 141.16625 124.05115 141.34007 C 124.31596 141.55946 124.65098 141.64444 124.96737 141.64444 C 125.32678 141.64444 125.71404 141.49554 125.95387 141.18555 C 126.18444 140.88753 126.24481 140.53511 126.24481 140.1913 L 126.24481 130.83218 C 126.24481 130.48852 126.13475 130.12621 125.87377 129.85963 C 125.62132 129.59373 125.25987 129.455 124.90691 129.455 C 124.55481 129.455 124.19241 129.59294 123.94004 129.85756 C 123.67771 130.12431 123.56694 130.48768 123.56694 130.83218 L 123.56694 136.45923 L 119.53204 130.69524 L 119.34807 130.43169 C 119.15164 130.1496 118.98163 129.93367 118.77188 129.75989 C 118.50708 129.54047 118.17255 129.455 117.85618 129.455 L 117.85566 129.455 z M 147.92204 129.455 C 147.56994 129.455 147.2096 129.59294 146.95724 129.85756 C 146.69491 130.12431 146.58414 130.48768 146.58414 130.83218 L 146.58414 140.26571 C 146.58414 140.61248 146.69057 140.97585 146.94329 141.24808 L 146.95311 141.26152 L 146.97068 141.27547 C 147.22811 141.52669 147.58431 141.64444 147.92411 141.64444 C 148.26737 141.64444 148.62522 141.52423 148.88322 141.26772 L 148.88529 141.26772 L 148.89149 141.26152 L 148.90131 141.25015 L 148.90338 141.24808 C 149.15615 140.97584 149.26304 140.61246 149.26304 140.26571 L 149.26304 130.83218 C 149.26304 130.48852 149.153 130.12569 148.89201 129.85911 C 148.63957 129.59322 148.2781 129.455 147.92514 129.455 L 147.92204 129.455 z M 155.71485 129.455 C 154.83462 129.455 154.02196 129.6288 153.31241 129.99244 C 152.66738 130.31875 152.12473 130.77697 151.67375 131.32621 L 151.64429 131.32621 L 151.59779 131.38874 L 151.59572 131.3908 L 151.59572 131.39132 L 151.59572 131.39184 L 151.59572 131.39235 L 151.59572 131.39287 L 151.56058 131.43369 L 151.56058 131.45902 C 151.1377 132.01368 150.80847 132.64111 150.59371 133.34572 C 150.37341 134.05826 150.26195 134.79522 150.26195 135.54869 C 150.26195 136.2862 150.37563 137.01211 150.58596 137.71858 L 150.58596 137.74597 L 150.59423 137.76767 L 150.59423 137.76974 C 150.81665 138.48846 151.14933 139.1427 151.59055 139.71691 L 151.59107 139.71743 L 151.59158 139.71794 C 151.59189 139.71823 151.59215 139.71852 151.59262 139.71898 L 151.59624 139.72259 C 152.0418 140.29052 152.59968 140.75434 153.25091 141.10391 L 153.25608 141.10907 L 153.28347 141.12251 C 153.98214 141.47571 154.77767 141.64444 155.63888 141.64444 C 156.15429 141.64444 156.6434 141.59534 157.10753 141.49406 C 157.55559 141.39626 157.96259 141.27044 158.32657 141.10701 L 158.32864 141.10494 L 158.33071 141.10494 L 158.34104 141.1008 L 158.34466 141.09874 C 158.70234 140.92666 159.00655 140.73053 159.25107 140.48741 C 159.5075 140.23247 159.72184 139.89482 159.72184 139.48747 C 159.72184 139.17915 159.62564 138.85486 159.40351 138.60277 C 159.18153 138.3421 158.84201 138.19814 158.51674 138.19814 C 158.21676 138.19814 157.9477 138.30235 157.70801 138.44257 L 157.70439 138.44464 L 157.69405 138.45084 L 157.68785 138.45497 C 157.54849 138.54137 157.36669 138.64248 157.14835 138.75573 L 157.14628 138.75728 L 157.1406 138.75935 L 157.13647 138.76141 C 156.96495 138.85441 156.74305 138.94765 156.48224 139.0353 L 156.44504 139.0353 L 156.42953 139.0508 C 156.232 139.1153 155.97225 139.15829 155.63837 139.15829 C 155.16488 139.15829 154.81098 139.06048 154.5175 138.88285 L 154.5113 138.87872 C 154.18613 138.67092 153.92195 138.41345 153.70463 138.086 C 153.48641 137.74222 153.32084 137.35392 153.20699 136.90985 C 153.08981 136.45276 153.03284 136.0005 153.03284 135.54869 C 153.03284 135.09617 153.08594 134.64389 153.19304 134.18753 L 153.19097 134.1896 C 153.19097 134.18959 153.18832 134.19383 153.18632 134.19683 C 153.19132 134.17593 153.19872 134.14526 153.19872 134.14516 L 153.19252 134.18598 C 153.30614 133.74467 153.47536 133.35832 153.70205 133.01603 C 153.91301 132.69756 154.1741 132.45509 154.49683 132.25845 L 154.50872 132.25845 L 154.53611 132.23106 C 154.84967 132.04459 155.22374 131.94219 155.71381 131.94219 C 156.06405 131.94219 156.31651 131.99389 156.45795 132.05329 C 156.68237 132.14759 156.86091 132.24646 156.98919 132.33855 C 157.15899 132.4605 157.29943 132.5712 157.41293 132.66669 C 157.64589 132.86267 157.95358 132.98916 158.27438 132.98916 C 158.61763 132.98916 158.98204 132.83592 159.20404 132.5437 C 159.3926 132.29806 159.49084 131.99093 159.49084 131.68639 C 159.49084 131.31664 159.30682 131.02526 159.10224 130.79187 C 158.89721 130.53617 158.63411 130.3247 158.32502 130.14127 L 158.32089 130.1392 C 157.98691 129.93146 157.60675 129.76996 157.18039 129.64724 C 156.78058 129.53219 156.34125 129.48998 155.88538 129.47722 L 155.88538 129.45552 L 155.71485 129.455 z M 165.58401 129.455 C 164.73028 129.455 163.93822 129.63037 163.24049 129.99399 C 162.57537 130.33604 162.00111 130.80527 161.54085 131.38874 L 161.54085 131.3908 L 161.50571 131.43369 L 161.50571 131.45902 C 161.08332 132.01299 160.75362 132.64002 160.53884 133.34366 C 160.3182 134.05659 160.20708 134.79434 160.20708 135.54869 C 160.20708 136.30282 160.31741 137.04622 160.53729 137.76767 L 160.54866 137.80695 L 160.5683 137.82607 C 160.79062 138.5207 161.10794 139.16082 161.53723 139.71898 L 161.54343 139.72466 L 161.54343 139.72673 L 161.54705 139.73086 C 162.00119 140.29525 162.56173 140.75569 163.21155 141.10442 L 163.21671 141.10959 L 163.2441 141.12354 C 163.94138 141.47605 164.73166 141.64496 165.58401 141.64496 C 166.40849 141.64496 167.16282 141.47045 167.83607 141.13905 L 167.90842 141.13905 L 167.94252 141.10442 C 168.60283 140.75536 169.16536 140.29201 169.61167 139.72311 C 170.06523 139.14779 170.40574 138.49382 170.62918 137.77181 L 170.62918 137.76767 L 170.63745 137.74649 L 170.63745 137.7191 C 170.84778 137.01263 170.95991 136.28672 170.95991 135.54921 C 170.95991 134.81312 170.84773 134.09411 170.63745 133.39688 L 170.63745 133.36949 L 170.62918 133.34624 L 170.62918 133.34417 C 170.40593 132.61243 170.06441 131.9571 169.60754 131.38874 C 169.15866 130.80827 168.5894 130.33998 167.92185 130.00019 L 167.91772 129.99812 C 167.91072 129.99612 167.83556 129.98136 167.83194 129.98055 C 167.83187 129.98055 167.84277 129.98159 167.85157 129.98262 C 167.20138 129.65035 166.46556 129.48707 165.67186 129.47464 L 165.65016 129.45552 L 165.58401 129.455 z M 175.35086 129.45862 C 175.35086 129.45862 174.05205 129.63672 173.75354 129.7661 C 173.29624 129.96438 172.89172 130.22865 172.55671 130.56036 C 172.22995 130.87445 171.9665 131.24097 171.78105 131.6466 L 171.78312 131.6404 L 171.77485 131.65435 C 171.60178 132.04766 171.50923 132.45811 171.50923 132.86927 C 171.50923 133.54536 171.65694 134.16132 172.01101 134.65417 L 172.01928 134.6645 C 172.32348 135.07485 172.70542 135.41768 173.14996 135.68046 L 173.15771 135.68615 L 173.17528 135.69442 C 173.59641 135.92533 174.04583 136.11487 174.52507 136.26647 C 174.93869 136.39733 175.31588 136.53854 175.65782 136.68454 C 175.66582 136.68754 175.67544 136.69036 175.68314 136.69436 L 175.68934 136.69642 L 175.69347 136.69849 L 175.71466 136.70831 L 175.70846 136.70831 C 176.01547 136.83961 176.25413 136.99123 176.4309 137.15996 C 176.54752 137.27126 176.59884 137.37002 176.59884 137.66174 C 176.59884 137.88633 176.56264 138.08013 176.49342 138.25912 C 176.42362 138.43973 176.32966 138.58884 176.19835 138.72627 C 176.07467 138.8557 175.92411 138.95987 175.73171 139.04667 C 175.55314 139.11777 175.34233 139.15984 175.07749 139.15984 C 174.79024 139.15984 174.56376 139.12459 174.39794 139.07199 L 174.39588 139.07199 C 174.17573 138.99229 173.98075 138.90839 173.814 138.82549 C 173.65029 138.73139 173.504 138.64888 173.37837 138.57744 C 173.17165 138.44533 172.92625 138.33767 172.63578 138.33767 C 172.26403 138.33767 171.87153 138.52064 171.65341 138.84926 L 171.65341 138.84978 L 171.65341 138.8503 L 171.65393 138.8503 L 171.65393 138.85081 L 171.65341 138.85081 L 171.65341 138.85133 C 171.48527 139.09928 171.40381 139.39252 171.40381 139.68332 C 171.40381 140.08022 171.5992 140.44507 171.87252 140.70083 L 171.87458 140.7029 L 171.88802 140.71426 L 171.90197 140.72615 C 172.14685 140.92904 172.43643 141.09296 172.7629 141.23206 L 172.76497 141.23413 L 172.77685 141.23826 L 172.78874 141.24395 C 173.1193 141.36861 173.47555 141.46847 173.85896 141.54471 L 173.87653 141.54884 L 173.8848 141.54884 C 174.28039 141.61424 174.67286 141.64857 175.0625 141.64857 C 175.71485 141.64857 176.32054 141.54698 176.86549 141.33025 L 176.87325 141.32818 L 176.87738 141.32611 L 176.88306 141.32198 C 177.40187 141.10327 177.85612 140.80659 178.22458 140.42953 L 178.22665 140.42798 C 178.59982 140.05558 178.89102 139.61472 179.08396 139.12315 C 179.27471 138.63717 179.36922 138.1269 179.36922 137.60593 C 179.36922 136.91441 179.22301 136.28807 178.87312 135.78537 C 178.5702 135.34151 178.17736 134.97549 177.71505 134.7074 C 177.2964 134.44973 176.84168 134.24278 176.35338 134.08831 C 175.93182 133.95496 175.54077 133.81041 175.18188 133.66043 L 175.17981 133.66043 C 174.86814 133.52624 174.62422 133.37384 174.43774 133.21291 L 174.43774 133.21085 C 174.31804 133.1007 174.27909 133.03478 174.27909 132.78297 C 174.27909 132.48428 174.33669 132.36627 174.53127 132.19696 C 174.72765 132.02612 174.93783 131.94322 175.30487 131.94322 C 175.58422 131.94322 175.78571 131.97957 175.87331 132.00937 L 175.89863 132.02126 L 175.90896 132.02126 C 176.06649 132.07536 176.18904 132.13321 176.2645 132.18145 L 176.27225 132.18714 L 176.27845 132.19127 L 176.28052 132.19127 L 176.28258 132.19334 C 176.42969 132.28104 176.55603 132.3564 176.65931 132.42175 C 176.88906 132.5671 177.15672 132.63259 177.41533 132.63259 C 177.74094 132.63259 178.08449 132.50581 178.31967 132.25018 L 178.32122 132.24812 C 178.53663 132.01336 178.6628 131.69529 178.6628 131.37478 C 178.6628 131.00348 178.48402 130.66993 178.24319 130.42755 L 178.24164 130.42549 C 178.02024 130.19405 177.74709 130.01479 177.43859 129.87875 L 177.43652 129.87875 C 177.13969 129.74368 176.81148 129.64574 176.45415 129.57799 C 176.09553 129.49819 175.72648 129.45862 175.35086 129.45862 z M 110.26181 129.54492 C 109.87798 129.54492 109.45328 129.67258 109.18539 130.01156 C 108.97564 130.27697 108.87481 130.61033 108.87481 130.9376 L 108.87481 140.16184 C 108.87481 140.48911 108.97564 140.82248 109.18539 141.08789 C 109.45328 141.42687 109.87798 141.55452 110.26181 141.55452 L 114.07036 141.55452 C 114.38432 141.55452 114.71257 141.46182 114.97056 141.24808 C 115.27476 140.99605 115.39638 140.61169 115.39638 140.26571 C 115.39638 139.91977 115.27477 139.53537 114.97056 139.28334 C 114.71212 139.06922 114.38354 138.97845 114.07036 138.97845 L 111.55475 138.97845 L 111.55475 136.83595 L 113.78511 136.83595 C 114.09831 136.83595 114.42688 136.74515 114.68531 136.53106 C 114.98981 136.27877 115.10956 135.89392 115.10957 135.54869 C 115.10957 135.20345 114.98983 134.8186 114.68531 134.56632 C 114.42687 134.35219 114.09829 134.26143 113.78511 134.26143 L 111.55475 134.26143 L 111.55475 132.11892 L 114.07036 132.11892 C 114.38357 132.11892 114.71214 132.02862 114.97056 131.81455 C 115.27475 131.56252 115.39638 131.17813 115.39638 130.83218 C 115.39638 130.48622 115.27476 130.10183 114.97056 129.84981 C 114.71212 129.63566 114.38355 129.54492 114.07036 129.54492 L 110.26181 129.54492 z M 128.13307 129.54492 C 127.81986 129.54492 127.49078 129.63572 127.23235 129.84981 C 126.92816 130.10183 126.8086 130.48622 126.8086 130.83218 C 126.8086 131.17813 126.92816 131.56252 127.23235 131.81455 C 127.49079 132.02869 127.81989 132.11892 128.13307 132.11892 L 129.45909 132.11892 L 129.45909 140.26571 C 129.45909 140.61316 129.56785 140.97621 129.8203 141.24808 L 129.83012 141.26152 L 129.84769 141.27547 C 130.10508 141.52672 130.45927 141.64444 130.79906 141.64444 C 131.14232 141.64444 131.50172 141.52424 131.75972 141.26772 L 131.76592 141.26152 L 131.77781 141.25015 L 131.77987 141.24808 C 132.03263 140.97584 132.13903 140.61246 132.13903 140.26571 L 132.13903 132.11892 L 133.46504 132.11892 C 133.77825 132.11892 134.10734 132.02862 134.36576 131.81455 C 134.67027 131.56225 134.78951 131.1769 134.78951 130.83166 C 134.78951 130.48642 134.67027 130.10159 134.36576 129.8493 C 134.10732 129.63515 133.77823 129.54492 133.46504 129.54492 L 128.13307 129.54492 z M 140.82428 129.54492 C 140.44045 129.54492 140.01752 129.67294 139.74993 130.01156 C 139.54052 130.27652 139.43729 130.60958 139.43729 130.9376 L 139.43729 140.26571 C 139.43729 140.6092 139.54645 140.96849 139.79282 141.2393 L 139.80832 141.26152 L 139.83571 141.28322 C 140.09236 141.52831 140.44357 141.64444 140.77932 141.64444 C 141.12256 141.64444 141.48199 141.52424 141.73999 141.26772 L 141.74619 141.26152 L 141.75601 141.24963 L 141.75808 141.24757 C 142.01085 140.97534 142.11929 140.61196 142.11929 140.2652 L 142.11929 136.83595 L 144.22873 136.83595 C 144.54193 136.83595 144.86933 136.74485 145.12738 136.53106 C 145.43155 136.27904 145.55319 135.89464 145.55319 135.54869 C 145.55319 135.20273 145.43157 134.81833 145.12738 134.56632 C 144.86932 134.3525 144.54191 134.26143 144.22873 134.26143 L 142.11929 134.26143 L 142.11929 132.11892 L 144.58994 132.11892 C 144.90315 132.11892 145.23225 132.02812 145.49067 131.81403 C 145.79487 131.562 145.91441 131.17761 145.91441 130.83166 C 145.91441 130.4857 145.79487 130.10132 145.49067 129.8493 C 145.23223 129.63515 144.90313 129.54492 144.58994 129.54492 L 140.82428 129.54492 z M 165.58401 131.94167 C 166.08929 131.94167 166.45783 132.04642 166.74415 132.22693 L 166.75603 132.23313 L 166.76017 132.23675 L 166.76017 132.23468 L 166.76068 132.23468 L 166.7612 132.23468 L 166.7612 132.2352 L 166.76172 132.2352 L 166.76223 132.23571 L 166.76223 132.23623 L 166.76275 132.23675 L 166.76275 132.23726 L 166.76327 132.23778 L 166.76379 132.23778 L 166.76379 132.2383 L 166.7643 132.2383 C 167.09697 132.43614 167.35193 132.68385 167.55754 133.00621 C 167.77306 133.3441 167.92892 133.72552 168.02417 134.16221 L 168.02417 134.16273 L 168.02469 134.16324 L 168.02469 134.16376 L 168.02521 134.16428 L 168.02572 134.16479 L 168.02572 134.16531 L 168.02624 134.16583 L 168.02624 134.16634 L 168.02831 134.17668 L 168.03037 134.18701 C 168.13782 134.64425 168.1916 135.09755 168.1916 135.55024 C 168.1916 136.00617 168.13732 136.46264 168.02831 136.92328 L 168.02624 136.93465 L 168.02624 136.93672 L 168.02417 136.93878 L 168.02417 136.9424 C 167.92887 137.37831 167.77274 137.75741 167.55754 138.09479 C 167.34983 138.42046 167.09105 138.67606 166.75087 138.88544 C 166.46458 139.05816 166.09201 139.15932 165.58453 139.15932 C 165.07852 139.15932 164.70091 139.05769 164.40114 138.88182 L 164.39907 138.88182 C 164.07385 138.67435 163.81677 138.41902 163.60997 138.09479 C 163.39272 137.75416 163.23279 137.36841 163.12783 136.9269 C 163.02853 136.46619 162.97745 136.00703 162.97745 135.54972 C 162.97745 135.09063 163.02926 134.63392 163.12938 134.171 C 163.23432 133.73074 163.39301 133.3469 163.60997 133.00673 C 163.81279 132.68874 164.06451 132.44991 164.37788 132.25483 L 164.36393 132.25483 L 164.39494 132.23726 L 164.39545 132.23675 L 164.39597 132.23675 L 164.39649 132.23623 L 164.397 132.23571 L 164.397 132.2352 L 164.39752 132.23468 L 164.39804 132.23416 L 164.39804 132.23365 L 164.39855 132.23365 L 164.39855 132.23313 L 164.39907 132.23313 L 164.40476 132.23106 L 164.40527 132.23106 L 164.40527 132.23055 C 164.40579 132.23034 164.40737 132.22975 164.40837 132.22951 L 164.40889 132.22951 L 164.40889 132.22899 C 164.70828 132.0456 165.08133 131.94219 165.58505 131.94219 L 165.58401 131.94167 z M 153.16306 134.24283 L 153.16358 134.24334 C 153.16258 134.24634 153.15945 134.25213 153.15945 134.25213 L 153.1517 134.2604 C 153.1547 134.2564 153.15666 134.25143 153.16306 134.24283 z M 163.10561 136.87574 C 163.10961 136.88174 163.11181 136.88701 163.11181 136.88711 C 163.11177 136.88704 163.11443 136.89793 163.11543 136.90313 C 163.11043 136.88963 163.10661 136.87774 163.10561 136.87574 z " /></g></svg>
