<?xml version="1.0" encoding="UTF-8" standalone="no"?>
<!-- Created with Inkscape (http://www.inkscape.org/) -->

<svg
   xmlns:dc="http://purl.org/dc/elements/1.1/"
   xmlns:cc="http://creativecommons.org/ns#"
   xmlns:rdf="http://www.w3.org/1999/02/22-rdf-syntax-ns#"
   xmlns:svg="http://www.w3.org/2000/svg"
   xmlns="http://www.w3.org/2000/svg"
   xmlns:sodipodi="http://sodipodi.sourceforge.net/DTD/sodipodi-0.dtd"
   xmlns:inkscape="http://www.inkscape.org/namespaces/inkscape"
   width="550mm"
   height="350mm"
   viewBox="0 0 550.00002 350"
   version="1.1"
   id="svg1"
   inkscape:version="0.92.5 (2060ec1f9f, 2020-04-08)"
   sodipodi:docname="Slimbook_Logo Patrocinios [Slogan]_White&amp;Blue.svg"
   xml:space="preserve"><metadata
     id="metadata2031"><rdf:RDF><cc:Work
         rdf:about=""><dc:format>image/svg+xml</dc:format><dc:type
           rdf:resource="http://purl.org/dc/dcmitype/StillImage" /><dc:title></dc:title></cc:Work></rdf:RDF></metadata><sodipodi:namedview
     id="namedview1"
     pagecolor="#ffffff"
     bordercolor="#666666"
     borderopacity="1.0"
     inkscape:showpageshadow="2"
     inkscape:pageopacity="0.0"
     inkscape:pagecheckerboard="0"
     inkscape:deskcolor="#d1d1d1"
     inkscape:document-units="mm"
     inkscape:zoom="0.37606712"
     inkscape:cx="994.3033"
     inkscape:cy="504.50318"
     inkscape:window-width="2488"
     inkscape:window-height="1376"
     inkscape:window-x="72"
     inkscape:window-y="27"
     inkscape:window-maximized="1"
     inkscape:current-layer="layer1"
     showguides="true"
     showgrid="false" /><defs
     id="defs1" /><g
     inkscape:label="Capa 1"
     inkscape:groupmode="layer"
     id="layer1"
     transform="translate(-17.469748,-664.13367)"><g
       id="text35440-7-0"
       transform="matrix(2.6065516,0,0,2.7604156,-352.46643,-11.402825)"
       style="fill:#ffffff;fill-opacity:1;stroke:none;stroke-width:0.248007;stroke-dasharray:none;stroke-opacity:1"><path
         id="path177507-3-9"
         class="st3"
         d="m 156.6,340.7 v 7.8 h -1.9 v -7.8 h -2.8 v -1.6 h 7.5 v 1.6 z"
         style="fill:#ffffff;fill-opacity:1;stroke:none;stroke-width:0.248007;stroke-dasharray:none;stroke-opacity:1" /><path
         id="path177509-6-6"
         class="st3"
         d="m 164.8,344.3 c 0,-0.9 -0.4,-1.3 -1.1,-1.3 -0.4,0 -0.7,0.1 -1,0.4 -0.3,0.3 -0.4,0.6 -0.4,1 v 4.2 h -1.8 v -9.4 h 1.8 v 3.4 c 0.5,-0.7 1.2,-1.1 2,-1.1 0.3,0 0.5,0 0.8,0.1 0.2,0.1 0.5,0.2 0.7,0.4 0.2,0.2 0.4,0.4 0.6,0.7 0.2,0.3 0.2,0.7 0.2,1.2 v 4.7 h -1.8 z"
         style="fill:#ffffff;fill-opacity:1;stroke:none;stroke-width:0.248007;stroke-dasharray:none;stroke-opacity:1" /><path
         id="path177511-1-3"
         class="st3"
         d="m 171.1,341.4 c 0.3,0 0.6,0 0.9,0.1 0.3,0.1 0.6,0.2 0.9,0.4 0.3,0.2 0.6,0.4 0.8,0.7 0.2,0.3 0.4,0.6 0.5,1.1 0.1,0.5 0.2,1 0.2,1.6 0,0.1 0,0.2 0,0.3 h -4.7 c 0,0.3 0,0.5 0.1,0.7 0,0.2 0.1,0.4 0.2,0.6 0.1,0.2 0.2,0.3 0.4,0.4 0.2,0.1 0.4,0.1 0.7,0.1 0.7,0 1.1,-0.3 1.4,-0.9 h 1.8 c -0.2,0.7 -0.6,1.2 -1.2,1.7 -0.6,0.4 -1.3,0.6 -2.1,0.6 -1,0 -1.8,-0.3 -2.3,-1 -0.6,-0.6 -0.9,-1.5 -0.9,-2.6 0,-1.2 0.3,-2.1 0.9,-2.8 0.6,-0.6 1.4,-1 2.4,-1 z m 1.4,3 c 0,-0.5 -0.2,-0.9 -0.4,-1.2 -0.2,-0.3 -0.6,-0.4 -1,-0.4 -0.8,0 -1.2,0.5 -1.4,1.6 z"
         style="fill:#ffffff;fill-opacity:1;stroke:none;stroke-width:0.248007;stroke-dasharray:none;stroke-opacity:1" /><path
         id="path177513-2-8"
         class="st3"
         d="m 182.8,341.4 c 0.8,0 1.5,0.3 2.1,1 0.6,0.7 0.8,1.6 0.8,2.6 0,1 -0.3,1.9 -0.8,2.6 -0.6,0.7 -1.3,1.1 -2.1,1.1 -0.9,0 -1.5,-0.3 -1.9,-1 v 0.7 H 179 V 339 h 1.8 v 3.3 c 0.5,-0.5 1.1,-0.9 2,-0.9 z m 0.7,2.2 c -0.3,-0.4 -0.6,-0.6 -1.1,-0.6 -0.5,0 -0.8,0.2 -1.1,0.6 -0.3,0.4 -0.4,0.9 -0.4,1.5 0,0.7 0.1,1.2 0.4,1.6 0.3,0.4 0.7,0.6 1.1,0.6 0.4,0 0.8,-0.2 1.1,-0.6 0.3,-0.4 0.4,-0.9 0.4,-1.6 0,-0.6 -0.1,-1.1 -0.4,-1.5 z"
         style="fill:#ffffff;fill-opacity:1;stroke:none;stroke-width:0.248007;stroke-dasharray:none;stroke-opacity:1" /><path
         id="path177515-9-5"
         class="st3"
         d="m 189.8,341.4 c 0.3,0 0.6,0 0.9,0.1 0.3,0.1 0.6,0.2 0.9,0.4 0.3,0.2 0.6,0.4 0.8,0.7 0.2,0.3 0.4,0.6 0.5,1.1 0.1,0.5 0.2,1 0.2,1.6 0,0.1 0,0.2 0,0.3 h -4.7 c 0,0.3 0,0.5 0.1,0.7 0,0.2 0.1,0.4 0.2,0.6 0.1,0.2 0.2,0.3 0.4,0.4 0.2,0.1 0.4,0.1 0.7,0.1 0.7,0 1.1,-0.3 1.4,-0.9 h 1.8 c -0.2,0.7 -0.6,1.2 -1.2,1.7 -0.6,0.4 -1.3,0.6 -2.1,0.6 -1,0 -1.8,-0.3 -2.3,-1 -0.6,-0.6 -0.9,-1.5 -0.9,-2.6 0,-1.2 0.3,-2.1 0.9,-2.8 0.7,-0.6 1.4,-1 2.4,-1 z m 1.4,3 c 0,-0.5 -0.2,-0.9 -0.4,-1.2 -0.2,-0.3 -0.6,-0.4 -1,-0.4 -0.8,0 -1.2,0.5 -1.4,1.6 z"
         style="fill:#ffffff;fill-opacity:1;stroke:none;stroke-width:0.248007;stroke-dasharray:none;stroke-opacity:1" /><path
         id="path177517-3-6"
         class="st3"
         d="m 195.7,346.5 c 0.1,0.3 0.2,0.5 0.4,0.7 0.2,0.2 0.5,0.2 1.1,0.2 0.4,0 0.7,-0.1 1,-0.2 0.2,-0.1 0.4,-0.3 0.4,-0.5 0,-0.1 0,-0.2 -0.1,-0.3 -0.1,-0.1 -0.2,-0.2 -0.5,-0.2 l -2.2,-0.7 c 0,0 -0.1,0 -0.2,0 -0.1,0 -0.2,-0.1 -0.2,-0.1 0,0 -0.1,0 -0.2,-0.1 -0.1,0 -0.2,-0.1 -0.2,-0.1 -0.1,0 -0.1,-0.1 -0.2,-0.2 -0.1,-0.1 -0.2,-0.1 -0.2,-0.2 0,-0.1 -0.1,-0.2 -0.1,-0.3 -0.1,-0.1 -0.1,-0.2 -0.1,-0.3 0,-0.1 0,-0.3 0,-0.4 0,-0.7 0.3,-1.3 0.8,-1.7 0.5,-0.4 1.2,-0.6 2.1,-0.6 0.9,0 1.7,0.2 2.2,0.6 0.5,0.4 0.8,1 0.8,1.7 h -1.7 c 0,-0.6 -0.4,-0.9 -1.3,-0.9 -0.3,0 -0.6,0.1 -0.8,0.2 -0.2,0.1 -0.3,0.3 -0.3,0.5 0,0.1 0,0.2 0.1,0.3 0.1,0.1 0.3,0.1 0.5,0.2 l 2.3,0.7 c 0.9,0.3 1.4,0.9 1.4,1.8 0,0.3 0,0.5 -0.1,0.8 -0.1,0.2 -0.2,0.5 -0.5,0.7 -0.2,0.2 -0.5,0.4 -0.9,0.6 -0.4,0.2 -0.9,0.2 -1.5,0.2 -2.1,0 -3.2,-0.8 -3.3,-2.3 z"
         style="fill:#ffffff;fill-opacity:1;stroke:none;stroke-width:0.248007;stroke-dasharray:none;stroke-opacity:1" /><path
         id="path177519-1-1"
         class="st3"
         d="m 204.5,341.7 v 1.2 h -1 v 3.8 c 0,0.3 0,0.5 0.1,0.6 0.1,0.1 0.2,0.1 0.5,0.1 0.1,0 0.2,0 0.4,0 v 1.3 c -0.3,0.1 -0.6,0.1 -1,0.1 -1.2,0 -1.8,-0.5 -1.8,-1.6 v -4.3 h -0.9 v -1.2 h 0.9 v -1.9 h 1.8 v 1.9 z"
         style="fill:#ffffff;fill-opacity:1;stroke:none;stroke-width:0.248007;stroke-dasharray:none;stroke-opacity:1" /><path
         id="path177521-9-1"
         class="st3"
         d="m 215.6,342.1 c -0.3,-1 -1.1,-1.5 -2.2,-1.5 -0.8,0 -1.5,0.3 -1.9,0.9 -0.5,0.6 -0.7,1.4 -0.7,2.4 0,1 0.2,1.8 0.7,2.4 0.5,0.6 1.2,0.9 1.9,0.9 0.1,0 0.3,0 0.4,0 0.2,0 0.4,-0.1 0.6,-0.2 0.2,-0.1 0.4,-0.2 0.6,-0.4 0.2,-0.1 0.4,-0.3 0.5,-0.6 0.1,-0.3 0.2,-0.6 0.3,-0.9 h -2.1 v -1.6 h 3.8 v 5.1 h -1.2 l -0.2,-1.2 c -0.4,0.5 -0.8,0.9 -1.2,1.1 -0.4,0.2 -1,0.4 -1.6,0.4 -1.3,0 -2.3,-0.5 -3.2,-1.4 -0.8,-0.9 -1.2,-2.1 -1.2,-3.5 0,-1.5 0.4,-2.6 1.3,-3.6 0.9,-1 1.9,-1.4 3.3,-1.4 1.1,0 2.1,0.3 2.8,0.9 0.7,0.6 1.2,1.3 1.3,2.3 z"
         style="fill:#ffffff;fill-opacity:1;stroke:none;stroke-width:0.248007;stroke-dasharray:none;stroke-opacity:1" /><path
         id="path177523-4-5"
         class="st3"
         d="M 224.8,348.5 221,342 v 6.5 h -1.9 v -9.4 h 2 l 3.7,6.4 v -6.4 h 1.9 v 9.4 z"
         style="fill:#ffffff;fill-opacity:1;stroke:none;stroke-width:0.248007;stroke-dasharray:none;stroke-opacity:1" /><path
         id="path177525-7-9"
         class="st3"
         d="m 233.4,348.7 c -0.3,0.1 -0.6,0.1 -1,0.1 -0.3,0 -0.7,0 -1,-0.1 -0.3,-0.1 -0.6,-0.2 -1,-0.3 -0.3,-0.2 -0.6,-0.4 -0.9,-0.6 -0.2,-0.2 -0.5,-0.6 -0.6,-1 -0.2,-0.4 -0.2,-0.9 -0.2,-1.4 V 339 h 1.9 v 6.4 c 0,1.1 0.6,1.7 1.8,1.7 1.2,0 1.8,-0.6 1.8,-1.7 V 339 h 1.9 v 6.4 c 0,0.5 -0.1,1 -0.2,1.4 -0.2,0.4 -0.4,0.7 -0.6,1 -0.2,0.2 -0.5,0.4 -0.9,0.6 -0.3,0.2 -0.7,0.3 -1,0.3 z"
         style="fill:#ffffff;fill-opacity:1;stroke:none;stroke-width:0.248007;stroke-dasharray:none;stroke-opacity:1" /><path
         id="path177527-8-8"
         class="st3"
         d="m 239.8,339.3 h 0.9 l -2.7,9.4 h -0.9 z"
         style="fill:#ffffff;fill-opacity:1;stroke:none;stroke-width:0.248007;stroke-dasharray:none;stroke-opacity:1" /><path
         id="path177529-4-4"
         class="st3"
         d="m 243.5,339.1 v 7.8 h 4.5 v 1.6 h -6.4 v -9.4 z"
         style="fill:#ffffff;fill-opacity:1;stroke:none;stroke-width:0.248007;stroke-dasharray:none;stroke-opacity:1" /><path
         id="path177531-5-8"
         class="st3"
         d="m 251.1,341.5 v 7 h -1.8 v -7 z m 0,-2.4 v 1.6 h -1.8 v -1.6 z"
         style="fill:#ffffff;fill-opacity:1;stroke:none;stroke-width:0.248007;stroke-dasharray:none;stroke-opacity:1" /><path
         id="path177533-0-1"
         class="st3"
         d="m 252.7,341.5 h 1.8 v 1 c 0.5,-0.7 1.2,-1.1 2.1,-1.1 0.7,0 1.3,0.2 1.7,0.6 0.4,0.4 0.6,1 0.6,1.8 v 4.7 h -1.8 v -4.3 c 0,-0.8 -0.4,-1.3 -1.2,-1.3 -0.4,0 -0.8,0.1 -1.1,0.4 -0.3,0.2 -0.4,0.6 -0.4,1 v 4.2 h -1.8 z"
         style="fill:#ffffff;fill-opacity:1;stroke:none;stroke-width:0.248007;stroke-dasharray:none;stroke-opacity:1" /><path
         id="path177535-3-0"
         class="st3"
         d="M 266.8,348.5 H 265 v -0.8 c -0.5,0.7 -1.2,1.1 -2.1,1.1 -0.7,0 -1.3,-0.2 -1.7,-0.6 -0.4,-0.4 -0.6,-1 -0.6,-1.8 v -4.8 h 1.8 v 4.5 c 0,0.8 0.4,1.3 1.2,1.3 0.4,0 0.8,-0.1 1.1,-0.4 0.3,-0.3 0.4,-0.6 0.4,-1 v -4.4 h 1.8 v 6.9 z"
         style="fill:#ffffff;fill-opacity:1;stroke:none;stroke-width:0.248007;stroke-dasharray:none;stroke-opacity:1" /><path
         id="path177537-6-3"
         class="st3"
         d="m 272.1,345 2.3,3.5 h -2.2 l -1.2,-2.2 -1.2,2.2 h -2.2 l 2.3,-3.5 -2.3,-3.5 h 2.2 l 1.1,2.1 1.1,-2.1 h 2.2 z"
         style="fill:#ffffff;fill-opacity:1;stroke:none;stroke-width:0.248007;stroke-dasharray:none;stroke-opacity:1" /><path
         id="path177539-1-0"
         class="st3"
         d="m 281.7,342.9 c -1,0 -1.5,0.8 -1.5,2.3 0,0.7 0.1,1.2 0.4,1.6 0.3,0.4 0.6,0.6 1.1,0.6 0.4,0 0.6,-0.1 0.8,-0.3 0.2,-0.2 0.4,-0.5 0.5,-1 h 1.7 c -0.1,0.8 -0.4,1.5 -1,2 -0.5,0.5 -1.2,0.7 -2.1,0.7 -1,0 -1.8,-0.3 -2.4,-1 -0.6,-0.6 -0.9,-1.5 -0.9,-2.7 0,-1.2 0.3,-2.1 0.9,-2.8 0.6,-0.7 1.4,-1 2.4,-1 0.9,0 1.6,0.2 2.1,0.7 0.5,0.5 0.8,1.1 0.9,2 H 283 c -0.1,-0.5 -0.3,-0.8 -0.5,-1 -0.1,0 -0.4,-0.1 -0.8,-0.1 z"
         style="fill:#ffffff;fill-opacity:1;stroke:none;stroke-width:0.248007;stroke-dasharray:none;stroke-opacity:1" /><path
         id="path177541-0-4"
         class="st3"
         d="m 288.9,341.4 c 1.1,0 1.9,0.3 2.5,1 0.6,0.7 0.9,1.6 0.9,2.7 0,1.1 -0.3,2 -0.9,2.7 -0.6,0.7 -1.5,1 -2.5,1 -1.1,0 -1.9,-0.3 -2.5,-1 -0.6,-0.7 -0.9,-1.6 -0.9,-2.7 0,-1.1 0.3,-2 0.9,-2.7 0.6,-0.6 1.5,-1 2.5,-1 z m 0.1,1.5 c -0.5,0 -0.9,0.2 -1.2,0.6 -0.3,0.4 -0.5,0.9 -0.5,1.6 0,0.7 0.2,1.2 0.5,1.6 0.3,0.4 0.7,0.6 1.2,0.6 0.5,0 0.9,-0.2 1.2,-0.6 0.3,-0.4 0.5,-0.9 0.5,-1.6 0,-0.7 -0.2,-1.2 -0.5,-1.6 -0.3,-0.4 -0.7,-0.6 -1.2,-0.6 z"
         style="fill:#ffffff;fill-opacity:1;stroke:none;stroke-width:0.248007;stroke-dasharray:none;stroke-opacity:1" /><path
         id="path177543-6-4"
         class="st3"
         d="m 293.6,341.5 h 1.8 v 0.9 c 0.3,-0.4 0.6,-0.6 0.9,-0.7 0.3,-0.2 0.6,-0.2 1,-0.2 0.9,0 1.5,0.3 1.9,1 0.5,-0.7 1.2,-1 2,-1 0.7,0 1.2,0.2 1.6,0.6 0.4,0.4 0.6,0.9 0.6,1.6 v 4.9 h -1.8 V 344 c 0,-0.3 -0.1,-0.5 -0.3,-0.7 -0.2,-0.2 -0.4,-0.2 -0.7,-0.2 -0.4,0 -0.7,0.1 -0.9,0.4 -0.2,0.2 -0.3,0.6 -0.3,1 v 4.2 h -1.8 v -4.6 c 0,-0.3 -0.1,-0.5 -0.3,-0.7 -0.2,-0.2 -0.4,-0.2 -0.7,-0.2 -0.4,0 -0.7,0.1 -0.9,0.4 -0.2,0.2 -0.3,0.6 -0.3,1 v 4.2 h -1.8 z"
         style="fill:#ffffff;fill-opacity:1;stroke:none;stroke-width:0.248007;stroke-dasharray:none;stroke-opacity:1" /><path
         id="path177545-3-4"
         class="st3"
         d="m 308.8,341.4 c 0.9,0 1.6,0.4 2.1,1.1 0.5,0.7 0.8,1.6 0.8,2.6 0,1.1 -0.3,1.9 -0.8,2.6 -0.6,0.7 -1.2,1 -2.1,1 -0.9,0 -1.5,-0.4 -1.9,-1.1 v 3.6 h -1.8 v -9.8 h 1.8 v 1 c 0.4,-0.6 1,-1 1.9,-1 z m 0.7,2.2 c -0.3,-0.4 -0.6,-0.6 -1.1,-0.6 -0.5,0 -0.8,0.2 -1.1,0.6 -0.3,0.4 -0.4,0.9 -0.4,1.6 0,0.7 0.1,1.2 0.4,1.6 0.3,0.4 0.7,0.6 1.1,0.6 0.4,0 0.8,-0.2 1.1,-0.6 0.3,-0.4 0.4,-0.9 0.4,-1.5 0,-0.8 -0.1,-1.3 -0.4,-1.7 z"
         style="fill:#ffffff;fill-opacity:1;stroke:none;stroke-width:0.248007;stroke-dasharray:none;stroke-opacity:1" /><path
         id="path177547-2-4"
         class="st3"
         d="m 319.2,348.5 h -1.8 v -0.8 c -0.5,0.7 -1.2,1.1 -2.1,1.1 -0.7,0 -1.3,-0.2 -1.7,-0.6 -0.4,-0.4 -0.6,-1 -0.6,-1.8 v -4.8 h 1.8 v 4.5 c 0,0.8 0.4,1.3 1.2,1.3 0.4,0 0.8,-0.1 1.1,-0.4 0.3,-0.3 0.4,-0.6 0.4,-1 v -4.4 h 1.8 v 6.9 z"
         style="fill:#ffffff;fill-opacity:1;stroke:none;stroke-width:0.248007;stroke-dasharray:none;stroke-opacity:1" /><path
         id="path177549-0-7"
         class="st3"
         d="m 323.9,341.7 v 1.2 h -1 v 3.8 c 0,0.3 0,0.5 0.1,0.6 0.1,0.1 0.2,0.1 0.5,0.1 0.1,0 0.2,0 0.4,0 v 1.3 c -0.3,0.1 -0.6,0.1 -1,0.1 -1.2,0 -1.8,-0.5 -1.8,-1.6 v -4.3 h -0.9 v -1.2 h 0.9 v -1.9 h 1.8 v 1.9 z"
         style="fill:#ffffff;fill-opacity:1;stroke:none;stroke-width:0.248007;stroke-dasharray:none;stroke-opacity:1" /><path
         id="path177551-6-6"
         class="st3"
         d="m 327.9,341.4 c 0.3,0 0.6,0 0.9,0.1 0.3,0.1 0.6,0.2 0.9,0.4 0.3,0.2 0.6,0.4 0.8,0.7 0.2,0.3 0.4,0.6 0.5,1.1 0.1,0.5 0.2,1 0.2,1.6 0,0.1 0,0.2 0,0.3 h -4.7 c 0,0.3 0,0.5 0.1,0.7 0,0.2 0.1,0.4 0.2,0.6 0.1,0.2 0.2,0.3 0.4,0.4 0.2,0.1 0.4,0.1 0.7,0.1 0.7,0 1.1,-0.3 1.4,-0.9 h 1.8 c -0.2,0.7 -0.6,1.2 -1.2,1.7 -0.6,0.4 -1.3,0.6 -2.1,0.6 -1,0 -1.8,-0.3 -2.3,-1 -0.6,-0.6 -0.9,-1.5 -0.9,-2.6 0,-1.2 0.3,-2.1 0.9,-2.8 0.6,-0.6 1.4,-1 2.4,-1 z m 1.4,3 c 0,-0.5 -0.2,-0.9 -0.4,-1.2 -0.2,-0.3 -0.6,-0.4 -1,-0.4 -0.8,0 -1.2,0.5 -1.4,1.6 z"
         style="fill:#ffffff;fill-opacity:1;stroke:none;stroke-width:0.248007;stroke-dasharray:none;stroke-opacity:1" /><path
         id="path177553-1-3"
         class="st3"
         d="m 332.4,341.5 h 1.8 v 1.4 c 0.2,-0.5 0.5,-0.8 0.8,-1.1 0.3,-0.3 0.7,-0.4 1.1,-0.4 0.1,0 0.2,0 0.2,0 v 1.8 c -0.2,0 -0.4,-0.1 -0.6,-0.1 -1.1,0 -1.6,0.5 -1.6,1.6 v 3.7 h -1.8 z"
         style="fill:#ffffff;fill-opacity:1;stroke:none;stroke-width:0.248007;stroke-dasharray:none;stroke-opacity:1" /><path
         id="path177555-5-1"
         class="st3"
         d="m 338.6,346.5 c 0.1,0.3 0.2,0.5 0.4,0.7 0.2,0.2 0.5,0.2 1.1,0.2 0.4,0 0.7,-0.1 1,-0.2 0.2,-0.1 0.4,-0.3 0.4,-0.5 0,-0.1 0,-0.2 -0.1,-0.3 -0.1,-0.1 -0.2,-0.2 -0.5,-0.2 l -2.2,-0.7 c 0,0 -0.1,0 -0.2,0 -0.1,0 -0.2,-0.1 -0.2,-0.1 0,0 -0.1,0 -0.2,-0.1 -0.1,0 -0.2,-0.1 -0.2,-0.1 -0.1,0 -0.1,-0.1 -0.2,-0.2 -0.1,-0.1 -0.2,-0.1 -0.2,-0.2 0,-0.1 -0.1,-0.2 -0.1,-0.3 -0.1,-0.1 -0.1,-0.2 -0.1,-0.3 0,-0.1 0,-0.3 0,-0.4 0,-0.7 0.3,-1.3 0.8,-1.7 0.5,-0.4 1.2,-0.6 2.1,-0.6 0.9,0 1.7,0.2 2.2,0.6 0.5,0.4 0.8,1 0.8,1.7 h -1.7 c 0,-0.6 -0.4,-0.9 -1.3,-0.9 -0.3,0 -0.6,0.1 -0.8,0.2 -0.2,0.1 -0.3,0.3 -0.3,0.5 0,0.1 0,0.2 0.1,0.3 0.1,0.1 0.3,0.1 0.5,0.2 l 2.3,0.7 c 0.9,0.3 1.4,0.9 1.4,1.8 0,0.3 0,0.5 -0.1,0.8 -0.1,0.2 -0.2,0.5 -0.5,0.7 -0.2,0.2 -0.5,0.4 -0.9,0.6 -0.4,0.2 -0.9,0.2 -1.5,0.2 -2.1,0 -3.2,-0.8 -3.3,-2.3 z"
         style="fill:#ffffff;fill-opacity:1;stroke:none;stroke-width:0.248007;stroke-dasharray:none;stroke-opacity:1" /></g><path
       id="path980-7"
       style="display:inline;fill:#ffffff;fill-opacity:1;fill-rule:evenodd;stroke:none;stroke-width:1.85895"
       d="m 441.99712,712.80998 v 0.0857 c -35.26968,0.46977 -78.23505,16.93413 -100.00516,16.25039 -20.06352,-0.61369 -59.68055,-5.09701 -74.98881,8.24968 -6.55655,5.70004 33.32986,3.85685 77.68243,28.56047 46.77862,26.04689 49.6701,49.95748 49.6701,49.95748 0,0 -15.2276,12.56562 -25.26536,26.42161 2.37379,0.46695 4.66247,1.10237 6.83103,1.96503 2.03199,0.77278 3.92316,1.71859 5.71983,2.77384 0.54301,-0.64277 1.08253,-1.27451 1.61244,-1.92497 2.28651,-2.81167 4.89191,-5.66364 7.82524,-8.41679 2.94282,-2.74354 6.21637,-5.39567 9.83372,-7.77673 1.81445,-1.19195 3.71135,-2.31473 5.69303,-3.36202 1.98906,-1.04428 4.05983,-2.00335 6.23112,-2.86069 2.16383,-0.8534 4.42264,-1.61219 6.77421,-2.24419 2.34597,-0.63293 4.79284,-1.1471 7.33398,-1.51721 2.54299,-0.37412 5.03889,-0.47893 7.49431,-0.35427 2.46875,0.12482 4.88739,0.47866 7.25381,1.03101 2.37381,0.55627 4.6977,1.31428 6.97131,2.23578 2.26592,0.92056 4.48675,2.01192 6.65053,3.23835 2.15645,1.22658 4.2635,2.60084 6.30466,4.06716 2.03927,1.47486 4.01533,3.0495 5.91695,4.7055 3.82008,3.30369 7.36221,6.89911 10.58736,10.54397 0.58006,0.65603 0.95436,1.18769 1.34852,1.73273 v -4.70378 h 18.50448 v 11.67854 h 18.3825 l 7.47934,-11.67854 h 6.2395 c -2.94163,-28.42828 -14.44126,-100.95452 -56.43424,-122.57174 -8.97686,-4.62696 -19.88334,-6.23665 -31.64682,-6.08413 z m -10.96997,30.00258 c 4.49484,0 8.99724,1.82899 8.44514,5.85176 -0.50928,3.7246 -4.24921,4.77975 -8.13443,4.87934 -4.50973,0.12482 -8.04424,-1.59618 -8.35653,-5.36392 -0.29943,-3.6306 2.43182,-5.36718 8.04582,-5.36718 z m -111.16068,0.31592 c 33.27127,-0.1245 49.32833,5.57823 57.71581,10.48043 11.08864,6.48338 6.76547,13.75228 -4.388,11.66851 -17.34769,-3.2461 -15.81431,-9.90583 -53.32781,-22.14894 z m 165.66991,104.40324 v 5.6128 h 6.37644 v -5.6128 z m 41.61915,0 -3.59593,5.6128 h 7.1652 l 0.29231,-0.42609 c -0.0129,-0.30234 -0.10412,-1.98595 -0.36591,-5.18671 z m -161.72794,0.36257 c -1.05978,1.78935 -2.02405,3.57618 -2.78225,5.33543 h 0.513 0.94749 1.31671 1.21145 0.99089 c 0.35863,0 0.70395,-1.6e-4 1.03606,0.01 h 0.7001 c 0.33083,0 0.64849,0 0.95248,0.01 0.38165,0 0.74336,0.01 1.08275,0.01 0.55809,0.01 1.06139,0.01 1.5156,0.01 0.43343,0.01 0.822,0.01 1.16971,0.01 0.4353,0.01 0.80755,0 1.12127,0 h 1.55068 c 0.30525,-0.46851 0.66595,-0.95001 1.02264,-1.43039 -1.26836,-0.69247 -2.58975,-1.33773 -4.02713,-1.88322 l -0.0226,-0.0129 -0.0226,-0.01 c -2.53445,-1.00997 -5.30609,-1.6713 -8.27808,-2.04698 z" /><g
       id="text1-2-4-9-36-3"
       transform="matrix(0.8555447,0,0,0.8555447,-4163.1903,3681.5296)"
       style="fill:#009bde;fill-opacity:1;stroke:none;stroke-opacity:1"><path
         style="color:#000000;-inkscape-font-specification:'Strasua, Normal';fill:#009bde;fill-opacity:1;stroke:none;stroke-opacity:1;-inkscape-stroke:none"
         d="m 4922.3408,-3233.5371 z m 1.3899,0 v -14.3872 h 29.1892 q 6.7358,0 11.1196,-3.1736 4.3837,-3.1736 4.3837,-8.2515 0,-2.5388 -1.1762,-4.6546 -1.1761,-2.1156 -3.2075,-3.5967 -2.0315,-1.5868 -4.9182,-2.4332 -2.887,-0.8462 -6.2014,-0.8462 h -6.6291 q -5.1322,0 -9.5158,-1.5868 -4.3838,-1.6927 -7.5914,-4.6546 -3.2076,-3.0679 -5.0252,-7.0879 -1.8176,-4.1257 -1.8176,-9.0978 0,-4.866 1.8176,-8.9918 1.9247,-4.1257 5.346,-7.1936 3.4214,-3.0677 8.2329,-4.7603 4.8113,-1.7984 10.5851,-1.7984 h 27.6922 v 14.3869 h -28.4407 q -4.5977,0 -7.2706,2.5391 -2.6729,2.433 -2.6729,5.924 0,3.8083 2.6729,6.3472 2.78,2.539 7.2706,2.539 h 8.2329 q 5.5598,0 10.2641,1.9041 4.7047,1.7983 8.126,5.1837 3.4215,3.3852 5.346,8.0398 1.9245,4.6546 1.9245,10.1556 0,5.6068 -2.0314,10.2613 -2.0315,4.6547 -5.8806,8.0399 -3.7421,3.3852 -8.9813,5.2895 -5.2391,1.9041 -11.6542,1.9041 z m 65.1141,0 z m 0,0 v -82.5142 h 14.4342 v 68.127 h 22.667 v 14.3872 z m 42.9816,0 z m 0,0 v -82.5142 h 14.5411 v 82.5142 z m 19.4594,0 z m 52.0699,-78.8117 q 1.4969,-2.3273 3.7421,-3.2794 2.2453,-1.0579 4.5976,-1.0579 2.78,0 4.4908,2.01 1.7106,1.9041 1.7106,5.1835 v 50.2492 l 35.7112,-53.1054 q 1.4969,-2.3273 3.6353,-3.2794 2.2453,-1.0579 4.7044,-1.0579 2.78,0 4.4908,2.01 1.7105,1.9041 1.7105,5.1835 v 75.9555 h -14.541 v -55.7501 l -32.5036,50.778 q -1.8177,2.8563 -3.9561,3.9142 -2.1384,1.0579 -4.3838,1.0579 -1.9244,0 -3.6351,-0.6348 -1.7108,-0.7404 -2.9939,-2.0101 -1.2829,-1.2693 -2.0313,-2.9618 -0.7485,-1.6926 -0.7485,-3.8084 v -46.335 l -35.7112,55.7501 h -17.3209 z m 73.9886,78.706 z m 14.541,-68.233 v 53.8458 h 12.7235 q 7.4844,0 12.1887,-2.4331 4.8115,-2.4331 4.8115,-7.6167 0,-5.1836 -3.2077,-7.7225 -3.2075,-2.5389 -8.019,-2.5389 h -10.0503 v -14.2813 h 10.0503 q 4.8115,0 7.3775,-2.3274 2.6731,-2.3273 2.6731,-7.4051 0,-5.0778 -3.6354,-7.2994 -3.5283,-2.2214 -12.1887,-2.2214 z m 31.8621,24.8601 q 3.3145,1.4809 5.5597,3.7024 2.3523,2.1158 3.7422,4.6547 1.3901,2.539 1.9245,5.2894 0.6418,2.7504 0.6418,5.2894 0,5.0777 -2.0316,9.5209 -1.9246,4.443 -6.0945,7.8282 -4.0628,3.2794 -10.371,5.1836 -6.2015,1.9043 -14.7551,1.9043 h -25.0191 v -82.5143 h 28.1198 q 14.0065,0 21.384,5.2893 7.3774,5.2894 7.3774,16.0797 0,2.4331 -0.5345,5.0779 -0.5346,2.5389 -1.7107,4.9718 -1.1763,2.3274 -3.2076,4.3375 -2.0315,2.0097 -5.0253,3.3852 z m 18.8178,43.4786 z m 42.0194,0 q -9.195,0 -17.0002,-3.1736 -7.6983,-3.2794 -13.258,-8.9921 -5.5599,-5.7124 -8.6605,-13.3291 -3.1007,-7.7226 -3.1007,-16.6087 0,-8.886 2.9937,-16.2912 3.1008,-7.4052 8.5538,-12.8002 5.5596,-5.3953 13.2579,-8.3573 7.8051,-2.962 17.214,-2.962 h 2.4593 q 9.5159,0 17.2142,3.0678 7.8049,2.9621 13.2579,8.3572 5.5597,5.3952 8.5536,12.8003 2.9938,7.4051 2.9938,16.1854 0,8.8861 -3.1006,16.6087 -3.1008,7.6167 -8.7676,13.3291 -5.5596,5.7127 -13.258,8.9921 -7.6983,3.1736 -16.8933,3.1736 z m 0,-68.1273 q -5.9873,0 -11.0126,2.01 -5.0252,2.01 -8.7675,5.6069 -3.6352,3.5967 -5.7736,8.5687 -2.0314,4.9719 -2.0314,11.0019 0,5.8183 2.0314,10.6845 2.0314,4.8663 5.6667,8.4631 3.6352,3.491 8.6605,5.5009 5.1322,1.9041 11.2265,1.9041 h 2.4593 q 6.2012,0 11.2266,-2.01 5.1321,-2.0098 8.7673,-5.5009 3.6354,-3.5967 5.56,-8.4629 2.0313,-4.8662 2.0313,-10.5788 0,-5.924 -2.0313,-10.896 -2.0316,-4.9721 -5.7738,-8.5689 -3.6352,-3.7026 -8.7673,-5.7126 -5.0253,-2.01 -11.0128,-2.01 z m 51.1077,68.1273 z m 42.0194,0 q -9.1951,0 -17.0002,-3.1736 -7.6983,-3.2794 -13.2581,-8.9921 -5.5599,-5.7124 -8.6604,-13.3291 -3.1007,-7.7226 -3.1007,-16.6087 0,-8.886 2.9936,-16.2912 3.1008,-7.4052 8.5535,-12.8002 5.5601,-5.3953 13.2582,-8.3573 7.8051,-2.962 17.2141,-2.962 h 2.4591 q 9.5158,0 17.2141,3.0678 7.8053,2.9621 13.2582,8.3572 5.5598,5.3952 8.5535,12.8003 2.9938,7.4051 2.9938,16.1854 0,8.8861 -3.1008,16.6087 -3.1005,7.6167 -8.7673,13.3291 -5.56,5.7127 -13.2581,8.9921 -7.6982,3.1736 -16.8934,3.1736 z m 0,-68.1273 q -5.9876,0 -11.0127,2.01 -5.0253,2.01 -8.7675,5.6069 -3.6352,3.5967 -5.7737,8.5687 -2.0314,4.9719 -2.0314,11.0019 0,5.8183 2.0314,10.6845 2.0315,4.8663 5.6668,8.4631 3.6354,3.491 8.6605,5.5009 5.1321,1.9041 11.2266,1.9041 h 2.4591 q 6.2014,0 11.2268,-2.01 5.1321,-2.0098 8.7674,-5.5009 3.6352,-3.5967 5.5597,-8.4629 2.0314,-4.8662 2.0314,-10.5788 0,-5.924 -2.0314,-10.896 -2.0315,-4.9721 -5.7737,-8.5689 -3.6352,-3.7026 -8.7674,-5.7126 -5.0251,-2.01 -11.0128,-2.01 z m 52.3905,68.1273 z m 34.0005,-33.3232 -19.4593,29.6206 q -1.4969,2.4331 -3.7422,3.3852 -2.1386,0.8462 -4.5976,0.8462 -2.7799,0 -4.4906,-1.904 -1.7108,-1.9043 -1.7108,-5.1836 v -75.9554 h 14.5412 v 55.75 l 35.7111,-55.75 h 17.3211 l -24.9123,36.3908 34.0005,46.1234 h -19.6733 z"
         id="path40" /></g></g></svg>