<?xml version="1.0" encoding="UTF-8"?>
<svg id="Layer_1" xmlns="http://www.w3.org/2000/svg" xmlns:serif="http://www.serif.com/" version="1.1" viewBox="0 0 1024 500">
  <!-- Generator: Adobe Illustrator 29.0.1, SVG Export Plug-In . SVG Version: 2.1.0 Build 192)  -->
  <defs>
    <style>
      .st0 {
        fill: #fff;
      }
    </style>
  </defs>
  <path class="st0" d="M559.7,361.7l1.6-5c0-.6.2-1.1.3-1.7l1.2-9.2,7.2-47.2-10-1h-.3c-3,0-6-.5-9-.6l-6.4-.6h-1.5c-4.7-.3-9.4-.5-14.2-.6h-38.1c-4.7,0-9.5.3-14.2.6h-1.6c-5.1.3-10.3.7-15.4,1.1h-.4l-9.3.9,5.7,39,2.6,17.5c.2,1.4.5,2.8.8,4.2,0,.6.2,1.1.4,1.6.2,1,.5,2,.8,2.9,0,.5.3,1,.5,1.4,0,.5.8,2,1.2,3l.6,1.2c.5,1,1,2,1.5,2.9.2.4.4.7.6,1.1.5,1,1.1,2,1.8,2.9,0,.3.4.6.6.8.7,1,1.4,1.9,2.2,2.9l.5.6c.8,1,1.7,1.9,2.6,2.9l.4.4c1,1,2,1.9,3,2.8,21.7,18.6,54.8,16.1,73.4-5.6,4.9-5.7,8.5-12.4,10.6-19.6"/>
  <path class="st0" d="M509.8,29.7c10.1,0,20.2.3,30.2.8v-.3C540,13.6,526.3,0,509.8,0h0v29.7Z"/>
  <path class="st0" d="M606.3,68.2c-64.3-10.6-129.8-10.6-194.1,0l17.7,65.4c52.7-7.1,106-7.1,158.7,0l17.7-65.4Z"/>
  <path class="st0" d="M667.9,179.4c-103.3-28.2-212.3-28.2-315.6,0l27.2,100.2c86-19.2,175.3-19.2,261.3,0l27.2-100.2Z"/>
  <path class="st0" d="M323.3,482.8l-17.2-35.7h-8.1l25,52.2,24.9-52.2h-7.5l-17.1,35.7Z"/>
  <path class="st0" d="M403.6,454.7c-4.7-5.5-11.6-8.6-18.8-8.5-6.9-.3-13.6,2.3-18.5,7.2-4.8,4.6-7.5,10.9-7.5,17.5,0,6.7,2.7,13.1,7.5,17.7,4.6,4.9,11,7.6,17.7,7.6h.8c7.1,0,13.8-3.1,18.3-8.5l.6-.6v-12.7l-3.5,6c-1.8,2.7-4.2,4.9-6.9,6.5-2.9,1.6-6.1,2.5-9.4,2.4-3.2-.1-6.3-1.2-8.9-3.2l30.3-29.7-1.6-1.7ZM383.9,453.1c3.8,0,7.5,1.1,10.6,3.3l-25,25c-2.1-3.1-3.3-6.7-3.2-10.5.3-9.5,8.1-17.3,17.6-17.6"/>
  <path class="st0" d="M438.3,446c-3.3,0-6.5.8-9.3,2.4-.8.5-1.6,1-2.3,1.5v-2.9h-7.3v48.1h7.4v-31.4c0-2.9,1.2-5.6,3.3-7.5,2-2.1,4.7-3.3,7.6-3.3,3,0,5.9,1.4,8,3.7l3.6,3.6v-10.1l-.8-.6c-2.9-2.2-6.4-3.4-10-3.5"/>
  <path class="st0" d="M504.1,453.4c-1.4-1.4-3-2.6-4.7-3.6-3.9-2.4-8.4-3.6-13-3.6-.3,0-.7,0-1,0-13.8,0-25.1,11.3-25.1,25.1s10.7,24.6,24.1,25.1c.7,0,1.4,0,2.1,0,4.5,0,8.9-1.2,12.7-3.5,1.8-1.1,3.5-2.4,5-3.9v6.4h7.4v-48.3h-7.3v6.4ZM499,458.6c3.4,3.3,5.3,7.9,5.3,12.7,0,4.8-1.8,9.4-5.3,12.7-3.3,3.5-7.9,5.4-12.7,5.3-9.9-.1-17.9-8.2-18.1-18,0-4.8,1.9-9.4,5.4-12.7,6.5-6.9,17.6-7.2,24.5-.7l.7.7"/>
  <path class="st0" d="M552.4,446.1c-6.8-.2-13.4,2.5-18.2,7.2-4.8,4.6-7.5,10.9-7.4,17.5,0,6.6,2.6,13,7.3,17.7,4.5,4.9,10.9,7.7,17.6,7.6h1.1c7.1.1,13.8-2.9,18.4-8.2l.6-.6v-12.8l-3.9,5.9c-1.7,2.7-4.1,4.9-6.9,6.5-2.6,1.5-5.5,2.3-8.5,2.4-4.8,0-9.4-1.9-12.7-5.4-3.4-3.4-5.3-7.9-5.3-12.7s1.9-9.3,5.3-12.7c3.3-3.5,7.9-5.5,12.7-5.4,3,0,5.9.9,8.5,2.4,2.8,1.6,5.2,3.8,6.9,6.4l3.9,5.8v-12.7l-.6-.6c-4.7-5.2-11.5-8.2-18.5-8.2"/>
  <path class="st0" d="M604.8,446c-3.3,0-6.5.8-9.4,2.4-.8.5-1.5,1-2.2,1.5v-2.9h-7.4v48.1h7.4v-31.4c0-2.9,1.2-5.6,3.3-7.5,2-2.1,4.7-3.3,7.6-3.3,3,0,5.9,1.4,7.9,3.7l3.6,3.6v-10.1l-.8-.6c-2.9-2.2-6.4-3.4-10-3.5"/>
  <path class="st0" d="M665.2,474.6c0,3.9-1.6,7.6-4.5,10.2-2.7,2.8-6.5,4.3-10.3,4.2-3.8,0-7.4-1.5-9.9-4.2-2.8-2.7-4.3-6.4-4.2-10.3v-27.6h-7.2v27.7c0,.1,0,.2,0,.3,0,11.6,9.6,21.2,21.2,21.2h.3c5.5.3,10.8-1.7,14.8-5.5v4.2h7.3v-47.8h-7.4v27.5Z"/>
  <path class="st0" d="M722.2,447h-33.8v7h20.7l-25,41.1h36.1v-6.9h-23.1l25-41.1Z"/>
</svg>