<svg width="100" height="30" viewBox="0 10 133 40" fill="none" xmlns="http://www.w3.org/2000/svg" style="max-width: 100%; padding-inline-start: 15px;"><path d="M133.029 31.6312H95.5316C95.3251 31.6312 95.1294 31.7228 94.9981 31.8826L85.2162 43.8465C84.8526 44.2919 85.1731 44.9545 85.7497 44.9545H91.9368C92.1434 44.9545 92.3391 44.8629 92.4703 44.7031L97.5044 38.5454C97.6356 38.3855 97.8314 38.2939 98.0379 38.2939H105.598C105.811 38.2939 105.929 38.539 105.795 38.703L101.59 43.8487C101.226 44.294 101.547 44.9566 102.123 44.9566H108.31C108.517 44.9566 108.713 44.865 108.844 44.7052L113.878 38.5475C114.009 38.3877 114.205 38.2961 114.411 38.2961H128.58C128.894 38.2961 129.191 38.1554 129.387 37.9125L133.567 32.7392C133.926 32.2939 133.605 31.6334 133.031 31.6334L133.029 31.6312Z" fill="#41C0F0"></path><path d="M121.347 27.7491L117.186 22.5992C116.973 22.335 116.651 22.1816 116.309 22.1816H97.9839C97.7774 22.1816 97.5816 22.09 97.4504 21.9302L92.4078 15.7618C92.2765 15.602 92.0808 15.5104 91.8742 15.5104H85.6764C85.0977 15.5104 84.7793 16.173 85.1428 16.6183L94.942 28.6014C95.0732 28.7612 95.269 28.8528 95.4755 28.8528H120.814C121.39 28.8528 121.708 28.1923 121.349 27.747L121.347 27.7491Z" fill="#41C0F0"></path><path d="M92.2677 29.8159L88.5029 25.22C88.1071 24.7107 87.2853 24.9813 87.2724 25.6227V34.8166C87.2595 35.4644 88.0813 35.7605 88.4922 35.2577L92.2569 30.6618C92.457 30.4167 92.4613 30.0673 92.2677 29.818V29.8159Z" fill="#41C0F0"></path><path d="M24.8727 33.4022H39.3218V30.6286H24.8727C24.3132 30.6286 23.8596 30.175 23.8596 29.6155V25.6711H34.4788V22.8975H23.8596V18.9509C23.8596 18.3914 24.3132 17.9378 24.8727 17.9378H39.3218V15.1642H24.8727C22.7838 15.1642 21.0859 16.8621 21.0859 18.9509V29.6155C21.0859 31.7022 22.7838 33.4022 24.8727 33.4022Z" fill="white"></path><path d="M60.3614 31.633C60.3614 31.633 54.6004 26.9261 54.1856 25.671H54.5723C57.469 25.671 59.8236 23.3143 59.8236 20.4197C59.8236 17.5251 57.469 15.1663 54.5744 15.1663H45.3766C43.2877 15.1663 41.5898 16.8641 41.5898 18.953V33.4021H44.3635V25.671H50.3233C50.9821 25.671 51.2565 26.3299 51.7922 27.1183C53.4101 29.5074 58.8234 33.9379 58.8234 33.9379L60.3614 31.6308V31.633ZM44.3635 22.8974V18.9508C44.3635 18.3913 44.8171 17.9377 45.3766 17.9377H54.5744C55.9418 17.9377 57.0543 19.0502 57.0543 20.4176C57.0543 21.7849 55.9418 22.8974 54.5744 22.8974H44.3635Z" fill="white"></path><path d="M17.7745 20.6574C17.8544 20.6056 17.9279 20.5451 17.9948 20.4781C18.5824 19.8906 18.9064 19.1086 18.9064 18.2769C18.9064 16.5618 17.511 15.1642 15.7937 15.1642H0.521484V17.9378H15.7937C15.9794 17.9378 16.1328 18.089 16.1328 18.2769C16.1328 18.3461 16.1134 18.4022 16.0874 18.4476L1.6966 27.896C1.61667 27.9479 1.54323 28.0084 1.47843 28.0753C0.890868 28.6629 0.566847 29.4449 0.566847 30.2765C0.566847 31.9917 1.9623 33.3893 3.67745 33.3893L18.8179 33.4065V30.6329L3.67961 30.6157C3.49383 30.6157 3.34046 30.4644 3.34046 30.2765C3.34046 30.2074 3.35991 30.1512 3.38583 30.108L17.7745 20.6574Z" fill="white"></path><path d="M83.2655 24.2022C83.2655 19.1194 78.3426 15 72.2683 15C66.194 15 61.271 19.1194 61.271 24.2022C61.271 29.285 66.194 33.4044 72.2683 33.4044C78.3426 33.4044 83.2655 29.285 83.2655 24.2022ZM64.2023 24.2022C64.2023 20.7438 67.8205 17.9313 72.2683 17.9313C76.716 17.9313 80.3342 20.7438 80.3342 24.2022C80.3342 27.6606 76.716 30.4731 72.2683 30.4731C67.8205 30.4731 64.2023 27.6606 64.2023 24.2022Z" fill="white"></path><path d="M28.2642 39.3426V43.8702C28.2642 44.4837 28.761 44.9805 29.3745 44.9805H35.0124V43.6088H29.8195C29.7179 43.6088 29.6337 43.5268 29.6337 43.4231V42.2912H33.3275V40.9195H29.6337V39.7876C29.6337 39.686 29.7158 39.6018 29.8195 39.6018H35.0124V38.2301H29.3745C28.761 38.2301 28.2642 38.7269 28.2642 39.3404V39.3426Z" fill="white"></path><path d="M46.606 39.3427V43.8703C46.606 44.4838 47.1028 44.9806 47.7163 44.9806H53.3542V43.6089H48.1613C48.0597 43.6089 47.9755 43.5268 47.9755 43.4232V39.7855C47.9755 39.684 48.0576 39.5997 48.1613 39.5997H53.3542V38.228H47.7163C47.1028 38.228 46.606 38.7249 46.606 39.3383V39.3427Z" fill="white"></path><path d="M42.9593 43.4058L39.8466 38.6643L39.8271 38.6405C39.5787 38.3662 39.2396 38.215 38.8723 38.215C38.1638 38.215 37.587 38.7917 37.587 39.5002L37.5806 44.9697H38.9523L38.9587 39.8091L42.0391 44.501L42.0931 44.5787C42.3502 44.8617 42.6893 45.0021 43.0414 45.0021C43.3676 45.0021 43.7067 44.879 44.0027 44.6327C44.2122 44.4556 44.3332 44.1985 44.3332 43.922V38.2214H42.9615V43.4058H42.9593Z" fill="white"></path><path d="M82.2005 41.5546C82.6844 40.8245 82.7492 40.0058 82.3733 39.3081C82.0191 38.6471 81.3321 38.2345 80.5847 38.2345H76.9795C76.3681 38.2345 75.8691 38.7313 75.8691 39.3448V44.9784H77.2387V42.2912H78.9862C79.1202 42.2912 79.347 42.4187 79.4247 42.6541C79.7358 43.5981 81.7404 44.9871 81.7404 44.9871L82.4986 43.8487C82.4986 43.8487 80.9325 42.6477 80.7532 42.2891H80.8029C81.371 42.2891 81.8938 42.0126 82.2005 41.5525V41.5546ZM80.5847 40.9217H77.2387V39.604H80.7878C80.872 39.604 80.9519 39.6386 81.0038 39.6969C81.2371 39.9648 81.304 40.2693 81.1831 40.5329C81.0772 40.7683 80.8396 40.9195 80.5826 40.9195L80.5847 40.9217Z" fill="white"></path><path d="M19.0532 39.6083H21.7383V44.9805H23.11V39.6083H25.7972V38.2366H19.0532V39.6083Z" fill="white"></path><path d="M70.4148 43.2697L68.447 38.2323H66.9521L69.3888 44.4708C69.5098 44.7797 69.8035 44.9806 70.1362 44.9806H70.6957C71.0283 44.9806 71.3221 44.7797 71.4431 44.4708L73.8797 38.2323H72.3849L70.417 43.2697H70.4148Z" fill="white"></path><path d="M1.88878 43.4252V38.2366H0.51709V43.8767C0.51709 44.4859 1.01176 44.9805 1.62092 44.9805H7.26752V43.611H2.07239C1.97086 43.611 1.88662 43.5289 1.88662 43.4252H1.88878Z" fill="white"></path><path d="M15.4761 38.2323H10.9462C10.3328 38.2323 9.83594 38.7291 9.83594 39.3426V44.9806H11.2076V42.2912H15.2168V44.9806H16.5885V39.3426C16.5885 38.7291 16.0917 38.2323 15.4782 38.2323H15.4761ZM15.2168 40.9217H11.2076V39.7898C11.2076 39.6882 11.2897 39.604 11.3934 39.604H15.0332C15.1348 39.604 15.219 39.6861 15.219 39.7898V40.9217H15.2168Z" fill="white"></path><path d="M58.7998 41.1053C58.7739 41.1464 58.7134 41.1464 58.6875 41.1053L56.7693 38.2216L55.3608 38.228L57.7089 41.8333C57.8169 41.9975 57.953 42.1228 58.1064 42.2157V44.9893H59.3765V42.2157C59.5299 42.1228 59.6682 41.9975 59.774 41.8333L62.1221 38.228L60.7158 38.2216L58.7976 41.1053H58.7998Z" fill="white"></path></svg>
