<?xml version="1.0" encoding="utf-8"?>
<!-- Generator: Adobe Illustrator 28.1.0, SVG Export Plug-In . SVG Version: 6.00 Build 0)  -->
<svg version="1.1" id="Capa_1" xmlns="http://www.w3.org/2000/svg" xmlns:xlink="http://www.w3.org/1999/xlink" x="0px" y="0px"
	 viewBox="0 0 1150 750" style="enable-background:new 0 0 1150 750;" xml:space="preserve">
<style type="text/css">
	.st0{fill:#FFFFFF;}
</style>
<g>
	<g>
		<path class="st0" d="M1135.6,504.55 M1139.71,495.15c14.08-39.34,3.32-68.86,3.32-68.86c-12.14-39.52-43.36-43.44-52.01-43.98
			c-8.07-0.51-91.68-8.23-122.4,74.32l0,0c-2.86,6.72-6.57,13.05-11.2,18.69c-20.85,25.42-61.27,62.2-79.17,55.67
			c-20.92-7.6-14.49-19.16,25.68-70c40.16-50.85-0.19-71.14-0.19-71.14s-20.92-9.88-32.87-14.84c-11.95-4.94-8.02-19.38-8.02-19.38
			l3.94-18.42l-44.81-11.32c-30.09,100.56-76.69,157.56-76.69,157.56c-50.08,61.97-81.65,46.31-81.65,46.31
			c-13.23-6.5-6.33-30.49-2.11-42.85c1.06-1.55,0.95-2.5,1.42-3.25l31.34-57.25l63.03-0.17l8.58-44.16l-47.84,0.13l18-33.49
			c0,0,15.31-24.43,17.64-28.12l-44.84-19.28l-43.23,81.02l-51.18,0.13l-9.58,44.16l37.19-0.1l-10.72,20.1
			c0,0-19.84,29.32-26.39,36.26h-0.25c-39.58,44.17-61.84,44.22-61.84,44.22c38.87-38.12,15.02-86.46,15.02-86.46
			s-15.28-31.18-20.29-57.01c-5.01-25.84,15.3-39.64,15.3-39.64l-34.73-24.67c-17.03,9.96-73.99,98.65-73.99,98.65
			c-40.85,66.28-66.61,55.49-69.89,53.74c22.54-53.74,43.06-103.46,43.06-103.46c26.26-61.89,49.75-84.3,49.75-84.3l-22.04-38.55
			c-64.01,21.23-178.17-8.31-178.17-8.31c-138.7-25.08-159.52,69.74-159.52,69.74c-21.63,116.78,88.92,110.35,88.92,110.35
			l9.53-47.41l0.74-4.07c-18.07,2.06-28.59-3.69-28.59-3.69c-26.99-12.06-25.48-45.9-11.26-63.9c14.21-18,54.39-13.35,54.39-13.35
			l146.39,11.24c-59.65,27.11-170.74,173.75-170.74,173.75C110.85,562.48,66.9,526.15,66.9,526.15
			c-23.81-11.03-19.67-45.92-19.67-45.92l-43.84,9.1c-3.06,43.87,14.43,61.26,14.43,61.26c39.22,47.96,96.24,28.81,96.24,28.81
			c64.95-13.91,127.08-95.44,127.08-95.44l71.86-2.83l-39.95,79.36l52.9,24.17l29.85-67.81c50.75,24.88,97.32-35.47,97.32-35.47
			l47.52-69.56c3.98,6.25,12.93,37.16,12.93,37.16c12.31,45.05-5.41,66.16-5.41,66.16c-25.57,35.93-62.89,5.97-62.89,5.97
			l-27.74,38.8c34.7,31.87,93.97,21.78,93.97,21.78c39.5-8.28,70.6-24.03,94.12-40.58c8.04,36.91,32.82,41.87,67.57,41.12
			c47.82-1.04,93.08-53.71,93.08-53.71c34.71-32.93,75.33-115.61,75.33-115.61c3.99-0.51,16.93,4.43,16.93,4.43
			c23.42,12.87-3.86,40.81-3.86,40.81s-80.34,94.23-17.6,118.43c62.75,24.23,124.17-43.99,124.17-43.99c0-0.01-0.01-0.03-0.01-0.04
			l0.03,0.06l-0.02-0.01c5.4,20.8,17.03,29.56,17.03,29.56c55.42,47.04,113.68,2.16,125.67-10.41
			C1116.85,540.59,1131.98,516.74,1139.71,495.15z M336.82,433.63l-52.63,2.77c48.85-70.21,109.62-114.15,109.62-114.15
			C385.26,329.19,336.82,433.63,336.82,433.63 M1046.96,532.18c-52.99,3.2-33.86-55.09-33.86-55.09
			c20.86-58.32,67.33-43.11,67.33-43.11C1110.23,442.68,1099.95,528.98,1046.96,532.18"/>
		<g>
			<g>
				<path class="st0" d="M726.45,98.77l-89.33-13.23L597.38,4.43l-40.22,80.89l-89.38,12.72l64.5,63.22l-15.51,88.97l80.04-41.8
					l79.84,42.24l-15.03-89.06L726.45,98.77z M596.88,184.16c-21.49-0.07-38.84-17.51-38.78-39c0.01-5.66,1.35-10.93,3.46-15.8
					l35.79-70.28l35.27,70.48c2.23,4.87,3.4,10.28,3.25,15.81C635.79,166.86,618.35,184.21,596.88,184.16"/>
			</g>
			<path class="st0" d="M596.99,166.78v-0.39h-0.06c-5.65-0.02-10.95-2.23-14.92-6.23c-3.97-4-6.16-9.31-6.14-14.97
				c0-2.7,0.6-5.44,1.82-8.37l0.23-0.55h-10.91l-0.08,0.28c-0.88,2.97-1.31,5.79-1.32,8.61c-0.03,8.39,3.21,16.29,9.12,22.23
				c5.91,5.94,13.78,9.23,22.26,9.25v-0.4h0L596.99,166.78L596.99,166.78z"/>
		</g>
	</g>
	<g>
		<path class="st0" d="M55.81,687c4.42,0,6.99,2.16,8.32,7.02c0.13,0.47,0.57,0.81,1.06,0.81h18.35c0.32,0,0.63-0.14,0.84-0.4
			c0.21-0.24,0.3-0.58,0.25-0.89c-2.57-15.56-13.35-24.85-28.83-24.85c-8.88,0-15.42,2.58-21.2,8.37
			c-7.85,7.85-7.85,17.65-7.85,30.07c0,12.41,0,22.21,7.85,30.06c5.78,5.79,12.32,8.37,21.2,8.37c15.48,0,26.25-9.29,28.83-24.85
			c0.05-0.32-0.04-0.65-0.25-0.89c-0.21-0.25-0.52-0.4-0.84-0.4H65.19c-0.5,0-0.93,0.34-1.06,0.81c-1.33,4.86-3.9,7.02-8.32,7.02
			c-2.67,0-4.95-0.96-6.24-2.65c-1.5-1.97-2.55-4.37-2.55-17.48c0-13.11,1.06-15.51,2.55-17.48C50.86,687.96,53.13,687,55.81,687z"
			/>
		<path class="st0" d="M152.4,669.32h-13.92c-0.47,0-0.88,0.29-1.04,0.73l-26.71,73.42c-0.12,0.35-0.08,0.72,0.13,1.01
			c0.21,0.29,0.55,0.47,0.91,0.47h18.87c0.47,0,0.9-0.31,1.05-0.76l3.36-10.16h20.97l3.16,10.15c0.14,0.46,0.58,0.78,1.06,0.78
			h18.86c0.36,0,0.7-0.18,0.91-0.47s0.25-0.67,0.13-1.01l-26.71-73.42C153.28,669.61,152.87,669.32,152.4,669.32z M150.58,716.75
			h-9.73l5.02-14.92L150.58,716.75z"/>
		<path class="st0" d="M263.43,669.32h-49.9c-0.61,0-1.11,0.5-1.11,1.11v73.42c0,0.61,0.5,1.11,1.11,1.11h18.04
			c0.61,0,1.11-0.5,1.11-1.11v-27.25h26.12c0.61,0,1.11-0.5,1.11-1.11V699.4c0-0.61-0.5-1.11-1.11-1.11h-26.12v-10.67h30.75
			c0.61,0,1.11-0.5,1.11-1.11v-16.09C264.54,669.81,264.04,669.32,263.43,669.32z"/>
		<path class="st0" d="M317.3,664.31h12.06c0.4,0,0.77-0.22,0.96-0.57l10.42-18.56c0.19-0.34,0.19-0.76-0.01-1.1
			c-0.2-0.34-0.56-0.55-0.96-0.55H324c-0.47,0-0.88,0.29-1.04,0.73l-6.7,18.56c-0.12,0.34-0.07,0.71,0.13,1.01
			C316.6,664.13,316.94,664.31,317.3,664.31z"/>
		<path class="st0" d="M349.77,669.32h-49.9c-0.61,0-1.11,0.5-1.11,1.11v73.42c0,0.61,0.5,1.11,1.11,1.11h49.9
			c0.61,0,1.11-0.5,1.11-1.11v-16.09c0-0.61-0.5-1.11-1.11-1.11h-30.75v-10.67h26.12c0.61,0,1.11-0.5,1.11-1.11v-16.08
			c0-0.61-0.5-1.11-1.11-1.11h-26.12v-10.06h30.75c0.61,0,1.11-0.5,1.11-1.11v-16.09C350.88,669.81,350.38,669.32,349.77,669.32z"/>
		<path class="st0" d="M492.16,694.04c0-12.29-8.99-24.72-26.16-24.72h-29.08c-0.61,0-1.11,0.5-1.11,1.11v73.42
			c0,0.61,0.5,1.11,1.11,1.11h18.04c0.61,0,1.11-0.5,1.11-1.11v-26.22h4.28l12.69,26.69c0.19,0.38,0.58,0.63,1,0.63h20.93
			c0.39,0,0.74-0.2,0.94-0.53c0.2-0.33,0.22-0.74,0.04-1.09l-15.38-29.65C484.25,711.59,492.16,705.71,492.16,694.04z
			 M471.91,694.04c0,3.14-2.31,6.32-6.73,6.32h-9.1v-12.64h9.1C469.6,687.72,471.91,690.9,471.91,694.04z"/>
		<path class="st0" d="M554.97,668.7c-8.88,0-15.42,2.58-21.2,8.37c-7.85,7.85-7.85,17.65-7.85,30.07c0,12.41,0,22.21,7.85,30.06
			c5.78,5.79,12.32,8.37,21.2,8.37c8.88,0,15.42-2.58,21.2-8.37c7.85-7.85,7.85-17.65,7.85-30.06c0-12.41,0-22.22-7.85-30.07
			C570.39,671.28,563.85,668.7,554.97,668.7z M548.63,689.75c1.02-1.33,3.22-2.75,6.34-2.75s5.32,1.42,6.34,2.75
			c1.48,1.95,2.45,4.21,2.45,17.38c0,13.08-0.97,15.33-2.45,17.27c-1.06,1.39-3.28,2.86-6.34,2.86c-3.06,0-5.28-1.47-6.34-2.86
			c-1.48-1.94-2.45-4.19-2.45-17.27C546.18,693.97,547.15,691.7,548.63,689.75z"/>
		<path class="st0" d="M653.21,669.32h-13.92c-0.47,0-0.88,0.29-1.04,0.73l-26.71,73.42c-0.12,0.35-0.08,0.72,0.13,1.01
			s0.55,0.47,0.91,0.47h18.87c0.47,0,0.9-0.31,1.05-0.76l3.36-10.16h20.97l3.16,10.15c0.14,0.46,0.58,0.78,1.06,0.78h18.86
			c0.36,0,0.7-0.18,0.91-0.47c0.21-0.29,0.25-0.67,0.13-1.01l-26.71-73.42C654.08,669.61,653.67,669.32,653.21,669.32z
			 M651.39,716.75h-9.73l5.02-14.92L651.39,716.75z"/>
		<path class="st0" d="M746.06,698.1l-8.89-1.24c-1.93-0.23-3.41-0.85-4.4-1.84c-1.01-1.01-1.11-2.18-1.11-2.63
			c0-2.83,2.39-5.69,7.76-5.69c6.06,0,9.75,0.62,13.13,4c0.43,0.43,1.14,0.43,1.57,0l11.34-11.34c0.43-0.43,0.43-1.14,0-1.57
			c-6.29-6.28-14.16-9.09-25.53-9.09c-16.7,0-27.92,9.77-27.92,24.31c0,6.62,1.8,11.84,5.37,15.51c3.45,3.56,8.63,5.85,15.38,6.81
			l8.88,1.24c1.93,0.25,3.38,0.82,4.17,1.61c0.79,0.87,1.16,2.01,1.16,3.59c0,3.64-3.16,5.49-9.41,5.49
			c-3.24,0-11.26-0.47-15.61-4.83c-0.42-0.4-1.15-0.4-1.57,0l-11.54,11.55c-0.42,0.43-0.43,1.12-0.01,1.55
			c6.84,7.03,15.4,10.03,28.63,10.03c17.62,0,29.46-9.73,29.46-24.2c0-7.56-1.9-13.08-5.79-16.87
			C757.82,701.19,752.75,699.04,746.06,698.1z"/>
		<path class="st0" d="M853.8,669.32h-54.14c-0.61,0-1.11,0.5-1.11,1.11v16.09c0,0.61,0.5,1.11,1.11,1.11h16.94v56.22
			c0,0.61,0.5,1.11,1.11,1.11h18.05c0.61,0,1.11-0.5,1.11-1.11v-56.22h16.94c0.61,0,1.11-0.5,1.11-1.11v-16.09
			C854.9,669.81,854.41,669.32,853.8,669.32z"/>
		<path class="st0" d="M939.62,669.32h-49.9c-0.61,0-1.11,0.5-1.11,1.11v73.42c0,0.61,0.5,1.11,1.11,1.11h49.9
			c0.61,0,1.11-0.5,1.11-1.11v-16.09c0-0.61-0.5-1.11-1.11-1.11h-30.75v-10.67h26.12c0.61,0,1.11-0.5,1.11-1.11v-16.08
			c0-0.61-0.5-1.11-1.11-1.11h-26.12v-10.06h30.75c0.61,0,1.11-0.5,1.11-1.11v-16.09C940.73,669.81,940.23,669.32,939.62,669.32z"/>
		<path class="st0" d="M1033.14,694.04c0-12.29-8.99-24.72-26.16-24.72h-29.08c-0.61,0-1.11,0.5-1.11,1.11v73.42
			c0,0.61,0.5,1.11,1.11,1.11h18.04c0.61,0,1.11-0.5,1.11-1.11v-26.22h4.28l12.69,26.69c0.19,0.38,0.58,0.63,1,0.63h20.93
			c0.39,0,0.74-0.2,0.94-0.53c0.2-0.33,0.22-0.74,0.04-1.09l-15.38-29.65C1025.23,711.59,1033.14,705.71,1033.14,694.04z
			 M1012.88,694.04c0,3.14-2.31,6.32-6.73,6.32h-9.1v-12.64h9.1C1010.58,687.72,1012.88,690.9,1012.88,694.04z"/>
		<path class="st0" d="M1117.46,704.49c-3.31-3.3-8.37-5.45-15.07-6.39l-8.89-1.24c-1.93-0.23-3.41-0.85-4.4-1.84
			c-1.01-1.02-1.12-2.18-1.12-2.63c0-2.83,2.4-5.69,7.76-5.69c6.06,0,9.75,0.62,13.13,4c0.43,0.43,1.14,0.43,1.57,0l11.34-11.34
			c0.43-0.43,0.43-1.14,0-1.57c-6.29-6.28-14.16-9.09-25.53-9.09c-16.7,0-27.92,9.77-27.92,24.31c0,6.62,1.8,11.84,5.37,15.51
			c3.45,3.56,8.63,5.85,15.38,6.81l8.88,1.24c1.93,0.25,3.38,0.82,4.17,1.61c0.79,0.87,1.16,2.01,1.16,3.59
			c0,3.64-3.16,5.49-9.41,5.49c-3.24,0-11.26-0.47-15.61-4.83c-0.42-0.4-1.15-0.4-1.57,0l-11.54,11.55
			c-0.42,0.43-0.43,1.12-0.01,1.55c6.84,7.03,15.4,10.03,28.63,10.03c17.62,0,29.46-9.73,29.46-24.2
			C1123.24,713.81,1121.34,708.29,1117.46,704.49z"/>
	</g>
</g>
</svg>
